<svg width="144" height="44" viewBox="0 0 144 44" fill="none" xmlns="http://www.w3.org/2000/svg">
<path d="M4.67844 16.44L-0.00156246 8.99997L11.3984 0.719968H17.8784V42.72H8.87844V13.5L4.67844 16.44ZM28.8247 37.56C26.3447 33.76 25.1047 28.48 25.1047 21.72C25.1047 14.96 26.3247 9.69997 28.7647 5.93997C31.2447 2.13997 34.8647 0.23997 39.6247 0.23997C44.3447 0.23997 47.9447 2.13997 50.4247 5.93997C52.9047 9.73997 54.1447 15 54.1447 21.72C54.1447 28.52 52.9247 33.8 50.4847 37.56C48.0447 41.32 44.4647 43.2 39.7447 43.2C34.9847 43.2 31.3447 41.32 28.8247 37.56ZM34.7047 21.72C34.7047 30.44 36.3847 34.8 39.7447 34.8C41.4647 34.8 42.6847 33.82 43.4047 31.86C44.1647 29.9 44.5447 26.52 44.5447 21.72C44.5447 16.92 44.1647 13.54 43.4047 11.58C42.6847 9.61997 41.4247 8.63997 39.6247 8.63997C37.9047 8.63997 36.6447 9.65997 35.8447 11.7C35.0847 13.7 34.7047 17.04 34.7047 21.72ZM61.4614 37.56C58.9814 33.76 57.7414 28.48 57.7414 21.72C57.7414 14.96 58.9614 9.69997 61.4014 5.93997C63.8814 2.13997 67.5014 0.23997 72.2614 0.23997C76.9814 0.23997 80.5814 2.13997 83.0614 5.93997C85.5414 9.73997 86.7814 15 86.7814 21.72C86.7814 28.52 85.5614 33.8 83.1214 37.56C80.6814 41.32 77.1014 43.2 72.3814 43.2C67.6214 43.2 63.9814 41.32 61.4614 37.56ZM67.3414 21.72C67.3414 30.44 69.0214 34.8 72.3814 34.8C74.1014 34.8 75.3214 33.82 76.0414 31.86C76.8014 29.9 77.1814 26.52 77.1814 21.72C77.1814 16.92 76.8014 13.54 76.0414 11.58C75.3214 9.61997 74.0614 8.63997 72.2614 8.63997C70.5414 8.63997 69.2814 9.65997 68.4814 11.7C67.7214 13.7 67.3414 17.04 67.3414 21.72ZM93.9181 19.38C91.5581 17.26 90.3781 14.52 90.3781 11.16C90.3781 7.75997 91.5581 5.05997 93.9181 3.05997C96.2781 1.01997 99.3181 -3.00407e-05 103.038 -3.00407e-05C106.758 -3.00407e-05 109.798 1.01997 112.158 3.05997C114.518 5.05997 115.698 7.75997 115.698 11.16C115.698 14.52 114.518 17.26 112.158 19.38C109.798 21.42 106.758 22.44 103.038 22.44C99.3181 22.44 96.2781 21.42 93.9181 19.38ZM98.7781 11.16C98.7781 12.44 99.1781 13.44 99.9781 14.16C100.778 14.88 101.798 15.24 103.038 15.24C104.358 15.24 105.398 14.88 106.158 14.16C106.918 13.44 107.298 12.44 107.298 11.16C107.298 9.95997 106.898 8.99997 106.098 8.27997C105.338 7.55997 104.318 7.19997 103.038 7.19997C101.758 7.19997 100.718 7.55997 99.9181 8.27997C99.1581 8.99997 98.7781 9.95997 98.7781 11.16ZM121.698 40.38C119.338 38.26 118.158 35.52 118.158 32.16C118.158 28.76 119.338 26.06 121.698 24.06C124.018 22.02 127.058 21 130.818 21C134.578 21 137.618 22.02 139.938 24.06C142.298 26.06 143.478 28.76 143.478 32.16C143.478 35.52 142.298 38.26 139.938 40.38C137.618 42.42 134.578 43.44 130.818 43.44C127.058 43.44 124.018 42.42 121.698 40.38ZM126.558 32.16C126.558 33.44 126.958 34.44 127.758 35.16C128.558 35.88 129.578 36.24 130.818 36.24C132.138 36.24 133.178 35.88 133.938 35.16C134.698 34.44 135.078 33.44 135.078 32.16C135.078 30.96 134.678 30 133.878 29.28C133.118 28.56 132.098 28.2 130.818 28.2C129.538 28.2 128.498 28.56 127.698 29.28C126.938 30 126.558 30.96 126.558 32.16ZM104.538 43.44L99.3781 39.9L129.198 -3.00407e-05L134.238 3.77997L104.538 43.44Z" fill="#FFA63A"/>
</svg>
