<svg width="51" height="16" viewBox="0 0 51 16" fill="none" xmlns="http://www.w3.org/2000/svg">
<path d="M22.1 15.8008H18L20.6 0.300781H24.7L22.1 15.8008Z" fill="#00579F"/>
<path d="M37.1016 0.7C36.3016 0.3 35.0016 0 33.4016 0C29.3016 0 26.4016 2.1 26.4016 5.1C26.4016 7.3 28.5016 8.6 30.0016 9.3C31.6016 10.1 32.1016 10.6 32.1016 11.2C32.1016 12.2 30.8016 12.7 29.6016 12.7C28.0016 12.7 27.1016 12.5 25.7016 11.9L25.2016 11.7L24.6016 15.2C25.6016 15.6 27.4016 16 29.2016 16C33.5016 16 36.4016 13.9 36.4016 10.7C36.4016 8.9 35.3016 7.6 32.9016 6.5C31.5016 5.8 30.6016 5.3 30.6016 4.6C30.6016 3.9 31.3016 3.3 33.0016 3.3C34.3016 3.3 35.3016 3.6 36.1016 3.9L36.5016 4L37.1016 0.7Z" fill="#00579F"/>
<path d="M42.5992 10.3008C42.8992 9.40078 44.1992 6.00078 44.1992 6.00078C44.1992 6.00078 44.4992 5.10078 44.6992 4.50078L44.9992 5.80078C44.9992 5.80078 45.7992 9.50078 45.9992 10.3008C45.3992 10.3008 43.3992 10.3008 42.5992 10.3008ZM47.6992 0.300781H44.4992C43.4992 0.300781 42.7992 0.600781 42.2992 1.60078L36.1992 15.8008H40.4992C40.4992 15.8008 41.1992 13.9008 41.3992 13.5008C41.8992 13.5008 46.0992 13.5008 46.6992 13.5008C46.7992 14.0008 47.1992 15.8008 47.1992 15.8008H50.9992L47.6992 0.300781Z" fill="#00579F"/>
<path d="M14.5008 0.300781L10.5008 10.9008L10.0008 8.70078C9.30078 6.20078 6.90078 3.50078 4.30078 2.20078L8.00078 15.8008H12.4008L18.9008 0.300781H14.5008Z" fill="#00579F"/>
<path d="M6.7 0.300781H0.1L0 0.600781C5.2 1.90078 8.6 5.00078 10 8.70078L8.6 1.60078C8.3 0.600781 7.6 0.300781 6.7 0.300781Z" fill="#FAA61A"/>
</svg>
