<svg width="35" height="27" viewBox="0 0 35 27" fill="none" xmlns="http://www.w3.org/2000/svg">
<path d="M6.40078 26.8578V25.0578C6.40078 24.8578 6.40078 24.7578 6.30078 24.6578C6.20078 24.5578 6.20078 24.3578 6.10078 24.2578C6.00078 24.0578 5.80078 24.0578 5.70078 23.9578C5.60078 23.8578 5.40078 23.8578 5.30078 23.8578C5.10078 23.8578 4.90078 23.8578 4.70078 23.9578C4.50078 24.0578 4.40078 24.1578 4.30078 24.3578C4.20078 24.1578 4.10078 24.0578 3.90078 23.9578C3.70078 23.8578 3.50078 23.8578 3.40078 23.8578C3.20078 23.8578 3.10078 23.8578 2.90078 23.9578C2.80078 24.0578 2.60078 24.1578 2.50078 24.2578V23.9578H1.80078V26.7578H2.40078V25.1578C2.40078 25.0578 2.40078 24.9578 2.40078 24.8578C2.40078 24.7578 2.50078 24.6578 2.50078 24.5578C2.60078 24.4578 2.60078 24.4578 2.70078 24.3578C2.80078 24.3578 2.90078 24.2578 3.00078 24.3578C3.40078 24.3578 3.60078 24.6578 3.60078 25.1578V26.7578H4.20078V25.1578C4.20078 25.0578 4.20078 24.9578 4.20078 24.8578C4.20078 24.7578 4.30078 24.6578 4.30078 24.5578C4.40078 24.4578 4.40078 24.4578 4.50078 24.3578C4.60078 24.3578 4.70078 24.2578 4.80078 24.3578C5.20078 24.3578 5.40078 24.6578 5.40078 25.1578V26.7578L6.40078 26.8578ZM15.7008 23.9578H14.7008V23.0578H14.0008V23.9578H13.4008V24.5578H14.0008V25.8578C14.0008 26.5578 14.3008 26.9578 15.0008 26.9578C15.3008 26.9578 15.5008 26.8578 15.8008 26.7578L15.6008 26.2578C15.4008 26.3578 15.2008 26.4578 15.0008 26.4578C14.7008 26.4578 14.6008 26.2578 14.6008 25.9578V24.6578H15.6008L15.7008 23.9578ZM21.0008 23.8578C20.8008 23.8578 20.7008 23.8578 20.6008 23.9578C20.5008 24.0578 20.4008 24.1578 20.3008 24.2578V23.9578H19.7008V26.7578H20.3008V25.1578C20.3008 24.6578 20.5008 24.4578 20.9008 24.4578C21.0008 24.4578 21.2008 24.4578 21.3008 24.5578L21.5008 23.9578C21.3008 23.8578 21.2008 23.8578 21.0008 23.8578ZM13.0008 24.1578C12.6008 23.9578 12.2008 23.8578 11.8008 23.8578C11.1008 23.8578 10.6008 24.1578 10.6008 24.7578C10.6008 25.2578 10.9008 25.5578 11.6008 25.5578H11.9008C12.2008 25.5578 12.4008 25.6578 12.4008 25.8578C12.4008 26.0578 12.2008 26.1578 11.7008 26.1578C11.4008 26.1578 11.0008 26.0578 10.7008 25.8578L10.4008 26.3578C10.8008 26.6578 11.2008 26.7578 11.6008 26.7578C12.4008 26.7578 12.9008 26.3578 12.9008 25.8578C12.9008 25.3578 12.5008 25.0578 11.9008 24.9578H11.6008C11.3008 24.9578 11.1008 24.8578 11.1008 24.6578C11.1008 24.4578 11.3008 24.3578 11.6008 24.3578C11.9008 24.3578 12.2008 24.4578 12.5008 24.5578L13.0008 24.1578ZM29.7008 23.8578C29.5008 23.8578 29.4008 23.8578 29.3008 23.9578C29.2008 24.0578 29.1008 24.1578 29.0008 24.2578V23.9578H28.4008V26.7578H29.0008V25.1578C29.0008 24.6578 29.2008 24.4578 29.6008 24.4578C29.7008 24.4578 29.9008 24.4578 30.0008 24.5578L30.2008 23.9578C30.0008 23.8578 29.9008 23.8578 29.7008 23.8578ZM21.7008 25.3578C21.7008 25.5578 21.7008 25.7578 21.8008 25.9578C21.9008 26.1578 22.0008 26.3578 22.1008 26.4578C22.2008 26.5578 22.4008 26.6578 22.6008 26.7578C22.8008 26.8578 23.0008 26.8578 23.2008 26.8578C23.6008 26.8578 23.9008 26.7578 24.2008 26.5578L23.9008 26.0578C23.7008 26.2578 23.4008 26.3578 23.1008 26.3578C22.9008 26.3578 22.7008 26.2578 22.5008 26.0578C22.3008 25.8578 22.3008 25.6578 22.3008 25.4578C22.3008 25.2578 22.4008 24.9578 22.5008 24.8578C22.7008 24.6578 22.9008 24.5578 23.1008 24.5578C23.4008 24.5578 23.6008 24.6578 23.9008 24.8578L24.2008 24.3578C23.9008 24.1578 23.5008 23.9578 23.2008 24.0578C23.0008 24.0578 22.8008 24.0578 22.6008 24.1578C22.4008 24.2578 22.2008 24.3578 22.1008 24.4578C22.0008 24.5578 21.8008 24.7578 21.8008 24.9578C21.7008 24.9578 21.7008 25.1578 21.7008 25.3578ZM27.5008 25.3578V23.9578H26.9008V24.2578C26.8008 24.1578 26.7008 24.0578 26.5008 23.9578C26.3008 23.8578 26.2008 23.8578 26.0008 23.8578C25.6008 23.8578 25.2008 24.0578 24.9008 24.2578C24.6008 24.4578 24.5008 24.9578 24.5008 25.3578C24.5008 25.7578 24.7008 26.1578 24.9008 26.4578C25.2008 26.7578 25.6008 26.8578 26.0008 26.8578C26.2008 26.8578 26.3008 26.8578 26.5008 26.7578C26.7008 26.6578 26.8008 26.5578 26.9008 26.4578V26.7578H27.5008V25.3578ZM25.2008 25.3578C25.2008 25.1578 25.3008 25.0578 25.4008 24.8578C25.5008 24.7578 25.6008 24.6578 25.8008 24.5578C26.0008 24.4578 26.1008 24.4578 26.3008 24.5578C26.5008 24.5578 26.6008 24.6578 26.7008 24.7578C26.8008 24.8578 26.9008 25.0578 26.9008 25.1578C26.9008 25.2578 26.9008 25.4578 26.8008 25.6578C26.7008 25.8578 26.6008 25.9578 26.5008 26.0578C26.4008 26.1578 26.2008 26.1578 26.0008 26.1578C25.9008 26.1578 25.8008 26.1578 25.7008 26.0578C25.6008 26.0578 25.5008 25.9578 25.4008 25.8578C25.3008 25.7578 25.3008 25.6578 25.2008 25.5578C25.2008 25.6578 25.2008 25.4578 25.2008 25.3578ZM17.6008 23.8578C17.2008 23.8578 16.8008 24.0578 16.5008 24.3578C16.2008 24.6578 16.1008 25.0578 16.1008 25.4578C16.1008 25.8578 16.3008 26.2578 16.6008 26.4578C16.9008 26.7578 17.3008 26.8578 17.7008 26.8578C18.1008 26.8578 18.6008 26.7578 18.9008 26.4578L18.6008 25.9578C18.4008 26.1578 18.1008 26.2578 17.8008 26.2578C17.6008 26.2578 17.4008 26.2578 17.2008 26.0578C17.0008 25.9578 16.9008 25.7578 16.9008 25.5578H19.0008C19.0008 25.4578 19.0008 25.3578 19.0008 25.3578C19.0008 24.4578 18.5008 23.8578 17.6008 23.8578ZM17.6008 24.4578C17.7008 24.4578 17.8008 24.4578 17.9008 24.4578C18.0008 24.4578 18.1008 24.5578 18.1008 24.5578C18.2008 24.6578 18.2008 24.6578 18.3008 24.7578C18.4008 24.8578 18.4008 24.9578 18.4008 25.0578H16.9008C16.9008 24.8578 17.0008 24.6578 17.1008 24.5578C17.3008 24.4578 17.4008 24.4578 17.6008 24.4578ZM33.3008 25.3578V22.7578H32.7008V24.2578C32.6008 24.1578 32.5008 24.0578 32.3008 23.9578C32.1008 23.8578 32.0008 23.8578 31.8008 23.8578C31.4008 23.8578 31.0008 24.0578 30.7008 24.2578C30.4008 24.4578 30.3008 24.9578 30.3008 25.3578C30.3008 25.7578 30.5008 26.1578 30.7008 26.4578C31.0008 26.7578 31.4008 26.8578 31.8008 26.8578C32.0008 26.8578 32.1008 26.8578 32.3008 26.7578C32.5008 26.6578 32.6008 26.5578 32.7008 26.4578V26.7578H33.3008V25.3578ZM34.3008 26.3578H34.4008C34.4008 26.3578 34.5008 26.3578 34.5008 26.4578C34.5008 26.4578 34.5008 26.5578 34.6008 26.5578V26.6578V26.7578C34.6008 26.7578 34.6008 26.8578 34.5008 26.8578C34.5008 26.8578 34.4008 26.8578 34.4008 26.9578H34.3008C34.2008 26.9578 34.2008 26.9578 34.1008 26.9578L34.0008 26.8578V26.7578V26.6578C34.0008 26.6578 34.0008 26.5578 34.1008 26.5578C34.1008 26.5578 34.2008 26.5578 34.2008 26.4578C34.3008 26.3578 34.3008 26.3578 34.3008 26.3578ZM34.3008 26.8578C34.4008 26.8578 34.4008 26.8578 34.3008 26.8578C34.4008 26.8578 34.4008 26.8578 34.5008 26.7578L34.6008 26.6578C34.6008 26.5578 34.6008 26.5578 34.5008 26.5578C34.5008 26.5578 34.5008 26.5578 34.4008 26.5578H34.3008H34.2008H34.1008L34.0008 26.6578C34.0008 26.7578 34.0008 26.7578 34.1008 26.7578C34.2008 26.8578 34.2008 26.8578 34.3008 26.8578ZM34.4008 26.5578C34.5008 26.5578 34.5008 26.5578 34.4008 26.5578C34.5008 26.6578 34.5008 26.6578 34.5008 26.6578C34.5008 26.6578 34.5008 26.6578 34.4008 26.6578L34.5008 26.7578H34.4008L34.3008 26.6578V26.7578H34.2008V26.4578L34.4008 26.5578ZM34.3008 26.5578C34.4008 26.6578 34.4008 26.6578 34.4008 26.6578C34.4008 26.6578 34.4008 26.6578 34.3008 26.5578ZM31.0008 25.3578C31.0008 25.1578 31.1008 25.0578 31.2008 24.8578C31.3008 24.7578 31.4008 24.6578 31.6008 24.5578C31.8008 24.4578 31.9008 24.4578 32.1008 24.5578C32.3008 24.5578 32.4008 24.6578 32.5008 24.7578C32.6008 24.8578 32.7008 25.0578 32.7008 25.1578C32.7008 25.3578 32.7008 25.4578 32.6008 25.6578C32.5008 25.8578 32.4008 25.9578 32.3008 26.0578C32.2008 26.1578 32.0008 26.1578 31.8008 26.1578C31.7008 26.1578 31.6008 26.1578 31.5008 26.0578C31.4008 26.0578 31.3008 25.9578 31.2008 25.8578C31.1008 25.7578 31.1008 25.6578 31.0008 25.5578C31.0008 25.6578 31.0008 25.4578 31.0008 25.3578ZM9.90078 25.3578V23.9578H9.30078V24.2578C9.20078 24.1578 9.00078 24.0578 8.90078 23.9578C8.70078 23.8578 8.60078 23.8578 8.40078 23.8578C8.00078 23.8578 7.60078 24.0578 7.30078 24.2578C7.00078 24.4578 6.90078 24.9578 6.90078 25.3578C6.90078 25.7578 7.10078 26.1578 7.30078 26.4578C7.60078 26.7578 8.00078 26.8578 8.40078 26.8578C8.60078 26.8578 8.70078 26.8578 8.90078 26.7578C9.10078 26.6578 9.20078 26.5578 9.30078 26.4578V26.7578H9.90078V25.3578ZM7.60078 25.3578C7.60078 25.1578 7.70078 25.0578 7.80078 24.8578C7.90078 24.7578 8.00078 24.6578 8.20078 24.5578C8.40078 24.4578 8.50078 24.4578 8.70078 24.5578C8.90078 24.5578 9.00078 24.6578 9.10078 24.7578C9.20078 24.8578 9.30078 25.0578 9.30078 25.1578C9.30078 25.3578 9.30078 25.4578 9.20078 25.6578C9.10078 25.8578 9.00078 25.9578 8.90078 26.0578C8.80078 26.1578 8.60078 26.1578 8.40078 26.1578C8.30078 26.1578 8.20078 26.1578 8.10078 26.0578C8.00078 26.0578 7.90078 25.9578 7.80078 25.8578C7.70078 25.7578 7.70078 25.6578 7.60078 25.5578C7.60078 25.6578 7.60078 25.4578 7.60078 25.3578Z" fill="#231F20"/>
<path d="M22.1992 2.25781H12.6992V19.1578H22.1992V2.25781Z" fill="#FF5F00"/>
<path d="M13.4 10.6592C13.4 9.05922 13.8 7.45922 14.5 5.95922C15.2 4.45922 16.3 3.25922 17.5 2.25922C15.9 1.05922 14 0.259223 12 0.0592231C10 -0.140777 7.9 0.159223 6.1 1.05922C4.3 1.95922 2.7 3.25922 1.6 4.95922C0.6 6.65922 0 8.65922 0 10.6592C0 12.6592 0.6 14.6592 1.6 16.3592C2.7 18.0592 4.2 19.4592 6 20.3592C7.8 21.2592 9.9 21.5592 11.9 21.3592C13.9 21.1592 15.8 20.3592 17.4 19.1592C16.1 18.1592 15.1 16.8592 14.4 15.4592C13.7 13.9592 13.4 12.3592 13.4 10.6592Z" fill="#EB001B"/>
<path d="M35.0016 10.6588C35.0016 12.6588 34.4016 14.6588 33.4016 16.3588C32.3016 18.0588 30.8016 19.4588 29.0016 20.3588C27.2016 21.2588 25.1016 21.5588 23.1016 21.3588C21.1016 21.1588 19.2016 20.3588 17.6016 19.1588C18.9016 18.1588 19.9016 16.8588 20.6016 15.4588C21.3016 13.9588 21.7016 12.3588 21.7016 10.7588C21.7016 9.15883 21.3016 7.55883 20.6016 6.05883C19.9016 4.55883 18.8016 3.35883 17.6016 2.35883C19.2016 1.15883 21.1016 0.358832 23.1016 0.158832C25.1016 -0.0411676 27.2016 0.258833 29.0016 1.15883C30.8016 2.05883 32.4016 3.45883 33.4016 5.15883C34.4016 6.65883 35.0016 8.65883 35.0016 10.6588Z" fill="#F79E1B"/>
<path d="M33.9992 17.359V16.959H34.0992H33.6992H33.8992L33.9992 17.359ZM34.6992 17.359V16.959H34.5992L34.4992 17.259L34.2992 16.959H34.1992V17.359H34.2992V17.059L34.3992 17.359H34.4992L34.5992 17.059L34.6992 17.359Z" fill="#F79E1B"/>
</svg>
