<svg width="50" height="20" viewBox="0 0 50 20" fill="none" xmlns="http://www.w3.org/2000/svg">
<path d="M0.107411 11.1781C0.14647 10.9743 0.239234 10.7802 0.385705 10.654C0.810468 10.2949 0.864173 9.78532 1.00088 9.30972C1.40611 9.28546 1.80158 9.43105 2.20682 9.40193C2.42164 9.38737 2.62181 9.34369 2.82199 9.2806C3.04658 9.21266 3.14911 9.01369 3.19793 8.80986C3.30534 8.33426 3.31511 7.85867 3.16375 7.38307C3.02217 6.95115 2.65599 6.93174 2.30934 6.89292C1.9627 6.85409 1.61605 6.92689 1.26941 6.94145C1.40123 6.33482 1.7137 5.81069 2.1287 5.36421C3.7301 3.61227 5.63422 2.28255 7.83127 1.39444C8.89073 0.967376 9.99414 0.671342 11.1268 0.477221C12.6013 0.224864 14.0904 0.12295 15.5795 0.0453018C16.7513 -0.0129345 17.9231 -0.00808145 19.0899 0.0210367C20.413 0.0550078 21.7362 0.12295 23.0544 0.215158C24.0504 0.2831 25.0464 0.346189 26.0326 0.501486C27.4631 0.729578 28.8497 1.12753 30.1679 1.7293C31.9402 2.54461 33.6393 3.4958 35.1968 4.66538C36.1586 5.38848 37.2425 5.83981 38.3703 6.20864C39.1319 6.461 39.9424 6.50467 40.7236 6.69394C41.3534 6.84439 41.9881 6.97542 42.6179 7.13071C43.443 7.33454 44.2681 7.54322 45.0884 7.77131C45.9574 8.00911 46.8118 8.29059 47.6662 8.57206C48.9894 9.00884 49.5606 10.0037 49.7803 11.28C49.834 11.5906 49.917 11.8915 49.9316 12.2118C49.9316 12.2604 49.9658 12.2846 50 12.304C49.9854 12.9495 50.0244 13.5901 49.9268 14.2355C49.8779 14.5413 49.7705 14.8519 49.8291 15.1673C49.917 15.6623 49.7754 16.0166 49.336 16.269C48.6964 16.6378 47.9934 16.8222 47.261 16.8756C47.2708 16.5359 47.3684 16.2107 47.3684 15.8662C47.3635 13.7551 46.1332 11.8818 44.1754 11.0762C43.321 10.722 42.4226 10.5958 41.4901 10.7414C39.5664 11.0374 38.2336 12.0954 37.4426 13.8327C37.1302 14.5267 36.9935 15.2741 37.0618 16.0457C37.0667 16.1137 37.1009 16.1816 37.1204 16.2544C36.9983 16.3175 36.8665 16.2884 36.7347 16.2884C28.7081 16.2884 20.6816 16.2884 12.655 16.2884C12.5964 16.2884 12.5427 16.2835 12.4841 16.2884C12.367 16.3029 12.2986 16.2495 12.2547 16.1525C12.1863 15.9972 12.1277 15.8419 12.0594 15.6866C12.1619 15.3517 12.0496 15.0266 11.9813 14.7111C11.8543 14.1045 11.6151 13.527 11.2635 13.0077C10.6533 12.0954 9.83302 11.4451 8.80285 11.0325C8.25115 10.8142 7.67991 10.7074 7.09892 10.6783C6.45445 10.6443 5.81974 10.7559 5.21433 10.9792C3.82775 11.4839 2.83175 12.406 2.22635 13.7454C1.9334 14.3957 1.78205 15.0703 1.80646 15.7837C1.47447 15.8467 1.21082 15.7351 0.981349 15.4876C0.639586 15.1188 0.371058 14.6917 0.0927644 14.2792C0.0244117 14.1822 0 14.0851 0 13.9638C0.00488234 13.0854 0.00488234 12.2021 0.00488234 11.3237C0.0781174 11.3043 0.0976467 11.2412 0.107411 11.1781ZM29.4942 6.9463C29.5577 6.97057 29.6211 6.97542 29.6895 6.95601C30.4609 7.07248 31.2421 7.09674 32.0135 7.16469C32.1014 7.17439 32.1892 7.15983 32.2771 7.15498C33.1462 7.25204 34.0201 7.32484 34.8941 7.36366C35.1675 7.37822 35.1723 7.36851 35.0552 7.12586C34.6206 6.20379 33.9664 5.46613 33.1218 4.89832C32.1062 4.2092 31.0565 3.56374 29.9434 3.03962C29.8945 3.01535 29.836 3.00565 29.7822 2.99109C29.5772 2.80667 29.3184 2.72417 29.0743 2.62226C28.4982 2.38446 27.9123 2.16607 27.3264 1.95739C27.0774 1.87004 26.8187 1.82151 26.5599 1.75842C26.2963 1.73901 26.057 1.61283 25.7885 1.62739C25.603 1.47694 25.3588 1.4818 25.1538 1.46724C24.6216 1.42841 24.0943 1.30223 23.5524 1.35076C23.4987 1.35562 23.4401 1.36532 23.3864 1.37503C22.9519 1.36532 22.5173 1.35562 22.0828 1.34106C21.9607 1.33621 21.9315 1.37988 21.9559 1.50121C22.0437 1.89916 22.1219 2.30196 22.2049 2.70476C22.3513 3.40359 22.5027 4.10243 22.654 4.80126C22.7566 5.28657 22.8591 5.77672 22.9616 6.26202C22.986 6.37364 23.0593 6.43673 23.1862 6.44644C23.7184 6.49012 24.2506 6.53865 24.7827 6.58232C25.5493 6.64541 26.3158 6.70365 27.0823 6.76674C27.2044 6.77644 27.3264 6.76674 27.4436 6.75218C27.883 6.93174 28.3468 6.86865 28.8009 6.87351C28.9425 6.87836 29.0841 6.88321 29.2257 6.89292C29.3038 7.00454 29.4014 6.97057 29.4942 6.9463ZM12.4109 1.63224C12.3133 1.64195 12.2156 1.65165 12.118 1.66136C12.0545 1.63224 12.0252 1.67106 12.0057 1.71959C11.2098 1.76813 10.4921 2.02534 9.87208 2.53976C9.42291 2.91344 8.99326 3.29683 8.62709 3.75786C8.27068 4.20434 8.29021 4.67023 8.41715 5.17009C8.43668 5.25745 8.50991 5.27201 8.58803 5.28171C8.92003 5.31083 9.24714 5.33995 9.57914 5.36907C10.912 5.48554 12.2449 5.56319 13.5729 5.69907C13.9098 5.73304 14.2564 5.71849 14.5982 5.72334C14.6177 5.77187 14.6568 5.80099 14.7105 5.80099C15.2671 5.76702 15.809 5.96114 16.3656 5.9029C16.6292 5.91746 16.888 5.93202 17.1516 5.95143C17.3518 6.07276 17.5764 5.99025 17.7864 6.02423C18.4308 6.12129 19.0851 6.1504 19.7393 6.17952C19.959 6.20864 20.2129 6.27173 20.3838 6.17952C20.6035 6.0582 20.4228 5.79613 20.4082 5.60201C20.3349 4.55861 20.2275 3.51521 20.1348 2.47181C20.1055 2.15637 20.0859 1.84577 20.0664 1.53033C20.0566 1.34106 19.998 1.244 19.7735 1.24885C18.8946 1.26341 18.0158 1.2537 17.137 1.25856C17.0589 1.25856 16.9759 1.27312 16.8978 1.27797C16.4974 1.20517 16.0922 1.26341 15.6967 1.30709C15.3354 1.35076 14.9741 1.33621 14.6128 1.35076C14.5445 1.35076 14.4664 1.33135 14.4127 1.40415C14.1832 1.43327 13.9537 1.45753 13.7242 1.48665C13.5436 1.42841 12.5623 1.54003 12.4109 1.63224ZM44.815 8.92633C44.4927 9.13501 44.4341 9.4262 44.6587 9.73194C44.9907 10.1881 45.4692 10.4453 45.977 10.654C46.7142 10.9549 47.4954 11.0471 48.2814 11.0908C48.4718 11.1005 48.6622 11.1733 48.8575 11.1005C49.1309 10.9986 49.1798 10.8967 49.0235 10.654C48.7306 10.2124 48.3107 9.90664 47.8957 9.59605C47.3391 9.17869 46.7288 8.87295 46.0355 8.74677C45.8988 8.72251 45.7621 8.72251 45.6254 8.7128C45.3276 8.69339 45.0591 8.77104 44.815 8.92633Z" fill="#3A62FF"/>
<path d="M46.4756 16.9684C46.3144 16.9684 46.2363 17.0024 46.1777 17.1723C45.5235 19.0504 43.634 20.2151 41.6665 19.9676C39.733 19.725 38.1853 18.138 38.0096 16.2114C37.9901 16.0221 37.951 15.9736 37.7606 16.0512C37.5506 16.1337 37.3505 16.2356 37.121 16.2599C37.1015 16.192 37.0722 16.124 37.0624 16.0512C36.9989 15.2796 37.1308 14.5322 37.4432 13.8382C38.2342 12.1009 39.567 11.0429 41.4907 10.7469C42.4232 10.6013 43.3216 10.7275 44.176 11.0817C46.1338 11.8873 47.3593 13.7606 47.369 15.8717C47.369 16.2162 47.2714 16.5414 47.2616 16.8811C47.0126 17.0218 46.7392 16.9684 46.4756 16.9684ZM42.1937 13.0035C40.6705 13.0035 39.3815 14.2799 39.3766 15.7989C39.3718 17.3227 40.6656 18.6088 42.2035 18.6088C43.7317 18.6088 45.0157 17.3324 45.0157 15.8134C45.0157 14.2799 43.7366 13.0035 42.1937 13.0035Z" fill="#02206A"/>
<path d="M11.7711 15.6474C11.6295 15.7008 11.4831 15.7688 11.3366 15.793C11.1755 15.8173 11.1413 15.8852 11.1413 16.0308C11.1315 16.7442 10.9118 17.3994 10.5359 17.9963C9.49106 19.6706 7.46001 20.3937 5.59008 19.7725C3.99355 19.2435 2.81691 17.7003 2.75344 16.0454C2.74367 15.8464 2.6802 15.7979 2.49468 15.8076C2.27009 15.8173 2.04062 15.7979 1.81115 15.793C1.78674 15.0796 1.93809 14.4002 2.23103 13.7547C2.83644 12.4153 3.83732 11.4932 5.21902 10.9885C5.82443 10.7653 6.46402 10.6537 7.1036 10.6876C7.6846 10.7168 8.25583 10.8235 8.80754 11.0419C9.83283 11.4496 10.6531 12.0999 11.2682 13.0171C11.6198 13.5412 11.859 14.1139 11.9859 14.7205C12.0494 15.0359 12.1666 15.3611 12.0641 15.696C11.9762 15.594 11.8785 15.6037 11.7711 15.6474ZM9.76448 15.8124C9.76448 14.2789 8.4853 12.9783 6.94248 13.0074C5.40455 13.0316 4.14491 14.1576 4.13514 15.7979C4.13026 17.4382 5.39478 18.5641 6.94737 18.6078C8.47554 18.6126 9.76448 17.3363 9.76448 15.8124Z" fill="#02206A"/>
<path d="M1.27048 6.93217C1.24119 6.94673 1.20701 6.96129 1.17771 6.97585C1.17283 7.00982 1.16795 7.04379 1.15819 7.07776C1.16795 7.16997 1.13377 7.24276 1.08007 7.31071C1.07519 7.39321 1.06542 7.48056 1.06054 7.56306C1.08495 7.631 1.07519 7.68439 1.00195 7.71836C1.00195 7.74748 0.997068 7.7766 0.997068 7.80571C1.05077 7.90277 1.05077 7.99498 0.987303 8.08719C0.992186 8.49484 1.01171 8.9025 0.972656 9.31015C0.982421 9.31015 0.997068 9.31015 1.00683 9.315C1.41207 9.29074 1.80754 9.43633 2.21277 9.40721C2.42759 9.39265 2.62777 9.34898 2.82795 9.28589C3.05253 9.21794 3.15506 9.01897 3.20389 8.81514C3.3113 8.33955 3.32106 7.86395 3.16971 7.38835C3.02812 6.95643 2.66195 6.93702 2.3153 6.8982C1.96377 6.84481 1.61713 6.91761 1.27048 6.93217Z" fill="#FDD33B"/>
<path d="M0.98161 8.08238C1.0448 7.99013 1.0448 7.89788 0.991332 7.80078C0.913559 7.89303 0.918419 7.98527 0.98161 8.08238Z" fill="#C2CCD6"/>
<path d="M1.07953 7.30531C1.13786 7.23734 1.16702 7.15966 1.1573 7.07227C1.06008 7.12567 1.03578 7.20335 1.07953 7.30531Z" fill="#C2CCD6"/>
<path d="M0.997175 7.71396C1.07009 7.68483 1.08467 7.63142 1.05551 7.55859C0.968011 7.58287 0.987454 7.65084 0.997175 7.71396Z" fill="#C2CCD6"/>
<path d="M23.3916 1.37027C22.957 1.36056 22.5225 1.35086 22.088 1.3363C21.9659 1.33144 21.9366 1.37512 21.961 1.49645C22.0489 1.8944 22.127 2.2972 22.21 2.7C22.3565 3.39883 22.5079 4.09767 22.6592 4.7965C22.7617 5.2818 22.8643 5.77196 22.9668 6.25726C22.9912 6.36888 23.0644 6.43197 23.1914 6.44168C23.7236 6.48535 24.2557 6.53388 24.7879 6.57756C25.5544 6.64065 26.321 6.69889 27.0875 6.76198C27.2095 6.77168 27.3316 6.76198 27.4488 6.74742C27.439 6.68433 27.4341 6.62124 27.4 6.563C26.7701 5.54872 26.1403 4.52959 25.5105 3.51045C25.1638 2.95235 24.8172 2.39426 24.4852 1.8216C24.3241 1.54498 24.1434 1.37512 23.7968 1.42851C23.6699 1.45277 23.5087 1.51101 23.3916 1.37027Z" fill="#02206A"/>
<path d="M12.4094 1.63281C12.3117 1.64252 12.2141 1.65222 12.1164 1.66193C12.1018 1.72017 12.0579 1.73473 12.0042 1.72017C11.2083 1.7687 10.4906 2.02591 9.87057 2.54033C9.42139 2.91401 8.99175 3.2974 8.62557 3.75844C8.26916 4.20491 8.28869 4.6708 8.41563 5.17067C8.43516 5.25802 8.50839 5.27258 8.58651 5.28229C8.91851 5.3114 9.24563 5.34052 9.57763 5.36964C10.9105 5.48611 12.2434 5.56376 13.5714 5.69965C13.9083 5.73362 14.2549 5.71906 14.5967 5.72391C14.6211 5.71906 14.6455 5.7142 14.6699 5.7142C14.9287 5.69965 14.9336 5.69479 14.7968 5.48126C14.6504 5.24831 14.5088 5.02022 14.3623 4.78728C13.7081 3.73902 13.0587 2.68592 12.4094 1.63281Z" fill="#02206A"/>
<path d="M29.6911 6.9554C30.4625 7.07187 31.2437 7.09614 32.0151 7.16408C32.103 7.17378 32.1909 7.15922 32.2787 7.15437C32.2397 7.06702 32.2153 6.96996 32.1664 6.89231C31.561 5.91685 30.941 4.94625 30.3502 3.96594C30.1549 3.64564 29.901 3.35931 29.7887 2.99048C29.5837 2.80606 29.3249 2.72356 29.0808 2.62165C28.5047 2.38385 27.9188 2.16547 27.3329 1.95679C27.0839 1.86943 26.8252 1.8209 26.5664 1.75781C27.2353 2.84489 27.8993 3.92711 28.573 5.01419C28.9002 5.53832 29.237 6.05759 29.5544 6.58657C29.6227 6.69334 29.7204 6.80495 29.6911 6.9554Z" fill="#344A82"/>
<path d="M16.8992 1.27282C16.4988 1.20002 16.0936 1.25826 15.6981 1.30193C15.3368 1.34561 14.9755 1.33105 14.6142 1.34561C14.5459 1.34561 14.4678 1.3262 14.4141 1.39899C14.8046 2.03474 15.1904 2.67049 15.5809 3.30623C16.0057 3.99536 16.45 4.67479 16.8601 5.37362C16.9675 5.55318 17.1433 5.71333 17.1482 5.94628C17.3483 6.06761 17.5729 5.9851 17.7829 6.01908C18.4273 6.11614 19.0816 6.14525 19.7358 6.17437C19.7212 6.13069 19.7163 6.07731 19.6919 6.03849C19.394 5.54348 19.0962 5.04847 18.7935 4.55831C18.1881 3.58286 17.5778 2.6074 16.9675 1.63194C16.8943 1.52032 16.8357 1.4087 16.8992 1.27282Z" fill="#344A82"/>
<path d="M16.8983 1.27343C16.8348 1.40932 16.8934 1.51608 16.9618 1.63256C17.5721 2.60801 18.1823 3.58347 18.7878 4.55893C19.0905 5.04908 19.3883 5.54409 19.6861 6.0391C19.7105 6.07792 19.7154 6.13131 19.73 6.17498C19.9498 6.2041 20.2036 6.26719 20.3745 6.17498C20.5942 6.05366 20.4136 5.7916 20.3989 5.59748C20.3257 4.55408 20.2183 3.51068 20.1255 2.46728C20.0962 2.15183 20.0767 1.84124 20.0572 1.52579C20.0474 1.33652 19.9888 1.23946 19.7642 1.24431C18.8854 1.25887 18.0066 1.24917 17.1278 1.25402C17.0594 1.25402 16.9813 1.26858 16.8983 1.27343Z" fill="#02206A"/>
<path d="M29.793 2.98633C29.9053 3.35516 30.1591 3.64149 30.3544 3.96179C30.9452 4.94695 31.5653 5.9127 32.1707 6.88816C32.2195 6.97066 32.2439 7.06287 32.283 7.15022C33.152 7.24728 34.026 7.32008 34.8999 7.3589C35.1733 7.37346 35.1782 7.36376 35.061 7.1211C34.6265 6.19903 33.9722 5.46137 33.1276 4.89357C32.1121 4.20444 31.0624 3.55898 29.9492 3.03486C29.9004 3.01545 29.8467 3.00089 29.793 2.98633Z" fill="#02206A"/>
<path d="M23.3906 1.37116C23.5078 1.51189 23.6689 1.45366 23.7959 1.43424C24.1474 1.38086 24.328 1.55557 24.4843 1.82734C24.8163 2.39514 25.1629 2.95324 25.5096 3.51619C26.1394 4.53533 26.7692 5.54961 27.399 6.56874C27.4381 6.62698 27.443 6.69007 27.4478 6.75316C27.8873 6.93272 28.3511 6.86963 28.81 6.87448C28.81 6.81625 28.7954 6.76771 28.7661 6.71433C28.395 6.12226 28.0337 5.52534 27.6627 4.93327C27.1891 4.17135 26.7057 3.40942 26.2321 2.64265C26.0613 2.37088 25.905 2.0894 25.739 1.81763C25.6804 1.72543 25.6609 1.65748 25.7927 1.62351C25.6072 1.47307 25.3631 1.47792 25.158 1.46336C24.6259 1.42454 24.0986 1.29836 23.5566 1.34689C23.5029 1.3566 23.4492 1.3663 23.3906 1.37116Z" fill="#344A82"/>
<path d="M45.625 8.71387C45.3272 8.69446 45.0586 8.77211 44.8145 8.9274C44.4923 9.13608 44.4337 9.42726 44.6583 9.73301C44.9903 10.1892 45.4687 10.4464 45.9765 10.6551C46.7137 10.956 47.4949 11.0482 48.281 11.0919C48.4714 11.1016 48.6618 11.1744 48.8571 11.1016C49.1305 10.9996 49.1793 10.8977 49.0231 10.6551C48.7301 10.2135 48.3103 9.90771 47.8953 9.59712C47.3387 9.17976 46.7284 8.87402 46.0351 8.74784C45.8984 8.72357 45.7617 8.72358 45.625 8.71387Z" fill="#FDD33B"/>
<path d="M12.4102 1.63239C13.0595 2.6855 13.7089 3.73375 14.3631 4.78686C14.5047 5.0198 14.6511 5.25275 14.7976 5.48084C14.9294 5.68952 14.9294 5.69922 14.6707 5.71378C14.6463 5.71378 14.6219 5.71864 14.5974 5.72349C14.617 5.77202 14.656 5.80114 14.7097 5.80114C15.2663 5.76717 15.8083 5.96129 16.3648 5.90305C16.3258 5.84482 16.2574 5.8157 16.2184 5.74776C15.818 5.07804 15.4128 4.41317 15.0027 3.75316C14.5779 3.06889 14.1532 2.38946 13.7284 1.70519C13.6796 1.62754 13.66 1.5596 13.7382 1.4868C13.5429 1.42857 12.5615 1.54019 12.4102 1.63239Z" fill="#344A82"/>
<path d="M25.7942 1.62226C25.6623 1.65623 25.6819 1.72417 25.7404 1.81638C25.9113 2.08815 26.0676 2.36963 26.2336 2.64139C26.7072 3.40332 27.1856 4.16524 27.6641 4.93202C28.0351 5.52409 28.3964 6.12101 28.7675 6.71308C28.8017 6.76647 28.8114 6.815 28.8114 6.87323C28.953 6.87809 29.0946 6.88294 29.2362 6.89265C29.3241 6.89265 29.4315 6.82956 29.4901 6.95088C29.5536 6.97515 29.617 6.98 29.6854 6.96059C29.7098 6.81014 29.617 6.69367 29.5487 6.58691C29.2264 6.05793 28.8896 5.53865 28.5673 5.01452C27.8984 3.9323 27.2296 2.84522 26.5607 1.75814C26.3068 1.73388 26.0627 1.6077 25.7942 1.62226Z" fill="#02206A"/>
<path d="M13.7305 1.4868C13.6524 1.55474 13.6768 1.62754 13.7207 1.70518C14.1455 2.38946 14.5751 3.06888 14.995 3.75316C15.4051 4.41802 15.8104 5.08288 16.2107 5.74775C16.2498 5.81569 16.3133 5.84481 16.3572 5.90304C16.6208 5.9176 16.8796 5.93216 17.1433 5.95157C17.1384 5.71863 16.9626 5.55848 16.8552 5.37892C16.4451 4.68008 16.0057 4.00066 15.576 3.31153C15.1854 2.67579 14.7997 2.04004 14.4091 1.4043C14.1846 1.42856 13.96 1.45768 13.7305 1.4868Z" fill="#02206A"/>
<path d="M29.4962 6.94576C29.4327 6.82438 29.3301 6.8875 29.2422 6.8875C29.3057 7.00402 29.4034 6.97003 29.4962 6.94576Z" fill="#5B5D61"/>
<path d="M12 1.72064C12.0535 1.73035 12.0972 1.72064 12.1118 1.66238C12.0486 1.63325 12.0243 1.67209 12 1.72064Z" fill="#5B5D61"/>
<path d="M45.0141 15.8138C45.0141 14.2803 43.7349 13.0039 42.1921 13.0039C40.6688 13.0039 39.3799 14.2803 39.375 15.7992C39.3701 17.3231 40.6639 18.6091 42.2019 18.6091C43.73 18.6091 45.0141 17.3328 45.0141 15.8138Z" fill="#CCD5E2"/>
<path d="M42.1932 13.7207V14.1575C42.6326 14.1575 43.0476 14.3322 43.3649 14.6476C43.6823 14.9631 43.8581 15.3756 43.8581 15.8124C43.8581 16.7053 43.1013 17.4575 42.2029 17.4575C41.7635 17.4575 41.3485 17.2828 41.0263 16.9625C40.7089 16.6471 40.5332 16.2346 40.5381 15.8026C40.5429 14.9097 41.2997 14.1575 42.1981 14.1575L42.1932 13.7207ZM42.1932 13.7207C41.0556 13.7207 40.0987 14.6719 40.0938 15.8026C40.0889 16.9383 41.0556 17.8943 42.1981 17.8943C43.3356 17.8943 44.2926 16.9431 44.2926 15.8124C44.2975 14.667 43.3405 13.7207 42.1932 13.7207Z" fill="#8FA3C0"/>
<path d="M6.95384 18.6087C8.48201 18.6087 9.76607 17.3323 9.76607 15.8133C9.76607 14.2798 8.4869 12.9792 6.94408 13.0083C5.40614 13.0326 4.1465 14.1585 4.13673 15.7988C4.13185 17.4391 5.40126 18.565 6.95384 18.6087Z" fill="#CCD5E2"/>
<path d="M6.94317 13.7207V14.1575C7.38258 14.1575 7.79758 14.3322 8.11493 14.6476C8.43229 14.9631 8.60805 15.3756 8.60805 15.8124C8.60805 16.7053 7.85129 17.4575 6.95294 17.4575C6.51353 17.4575 6.09853 17.2828 5.77629 16.9625C5.45894 16.6471 5.28318 16.2346 5.28806 15.8026C5.29294 14.9097 6.04971 14.1575 6.94806 14.1575L6.94317 13.7207ZM6.94317 13.7207C5.80559 13.7207 4.84865 14.6719 4.84377 15.8026C4.83889 16.9383 5.80559 17.8943 6.94806 17.8943C8.08564 17.8943 9.04258 16.9431 9.04258 15.8124C9.04746 14.667 8.09052 13.7207 6.94317 13.7207Z" fill="#8FA3C0"/>
</svg>
