<svg width="16" height="16" viewBox="0 0 16 16" fill="none" xmlns="http://www.w3.org/2000/svg">
<path d="M8.38624e-05 7.9898C0.0141887 6.09374 0.611293 4.40234 1.8055 2.93443C2.9809 1.48768 4.49717 0.577293 6.3167 0.175027C7.07836 0.00565238 7.84942 -0.0319865 8.62989 0.0244718C9.51849 0.0903399 10.3624 0.318526 11.1805 0.664333C11.7118 0.890166 11.7894 1.49239 11.4814 1.8382C11.2886 2.05462 10.976 2.13695 10.6986 2.03815C10.433 1.94405 10.1744 1.82643 9.90637 1.7488C8.17148 1.24303 6.49065 1.37947 4.90151 2.24987C3.09139 3.23789 1.96301 4.76227 1.56807 6.79241C1.26952 8.31444 1.49284 9.77765 2.25215 11.135C3.25595 12.9276 4.76751 14.0732 6.79156 14.4308C9.21759 14.8589 11.2886 14.1202 12.9366 12.2759C13.8252 11.2809 14.3329 10.0999 14.4763 8.77316C14.5257 8.31914 14.5163 7.85806 14.5281 7.39934C14.5375 7.08411 14.655 6.83711 14.9394 6.68655C15.3743 6.45366 15.955 6.76654 15.9832 7.25584C16.1054 9.3895 15.5648 11.3232 14.2224 13.0075C13.4678 13.9532 12.5393 14.6848 11.4485 15.2094C10.0686 15.8728 8.61343 16.1174 7.09481 15.9481C5.43984 15.7646 3.98 15.1177 2.72702 14.0191C1.3612 12.824 0.505507 11.3255 0.148185 9.54476C0.0447491 9.03193 -0.00226694 8.51439 8.38624e-05 7.9898Z" fill="#FFA63A"/>
<path d="M8.02573 8.45558C8.05629 8.41324 8.0798 8.37089 8.11271 8.33796C10.3037 6.13844 12.497 3.94127 14.6879 1.7441C14.8572 1.57472 15.0452 1.4524 15.2968 1.46416C15.5836 1.47827 15.7975 1.61236 15.9221 1.87113C16.042 2.12284 16.0161 2.37455 15.8633 2.60744C15.828 2.66155 15.781 2.7133 15.734 2.76035C13.3291 5.15512 10.9266 7.55225 8.5241 9.94937C8.26551 10.2081 7.92935 10.2622 7.6355 10.0929C7.56967 10.0552 7.50855 10.0011 7.45448 9.94467C6.74454 9.23659 6.0346 8.52851 5.32701 7.81572C4.99319 7.47932 5.02375 6.96885 5.39283 6.69596C5.68198 6.48189 6.09102 6.52188 6.36606 6.79712C6.88324 7.3123 7.39571 7.82983 7.91054 8.34502C7.9411 8.3756 7.97166 8.40383 8.02573 8.45558Z" fill="#FFA63A"/>
</svg>
