<svg width="29" height="26" viewBox="0 0 29 26" fill="none" xmlns="http://www.w3.org/2000/svg">
<path d="M28.9993 8.5197C28.9378 13.225 25.1364 17.0181 20.5432 16.9563C15.7043 16.8878 12.1144 13.1016 12.1348 8.45111C12.1553 3.69092 15.9909 -0.0609806 20.6455 0.000750932C25.2797 0.0624825 29.0607 3.91727 28.9993 8.5197ZM20.0176 7.9504C19.3488 7.9504 18.7346 7.94354 18.1271 7.9504C17.9838 7.9504 17.8268 7.96412 17.6972 8.01213C17.3218 8.16303 17.1444 8.5197 17.2126 8.93124C17.274 9.28106 17.588 9.54856 18.0043 9.55542C18.8779 9.56914 19.7583 9.56228 20.6319 9.56228C21.3485 9.55542 21.642 9.26048 21.642 8.53342C21.642 7.29879 21.642 6.06416 21.642 4.82953C21.642 4.68549 21.6283 4.53459 21.5942 4.39055C21.5055 4.03388 21.212 3.80753 20.8571 3.78695C20.5159 3.77323 20.1883 3.99272 20.0791 4.34253C20.0313 4.49343 20.0245 4.65805 20.0245 4.81581C20.0108 5.85153 20.0176 6.87353 20.0176 7.9504Z" fill="white"/>
<path d="M5.42594 22.4162C5.42594 22.8826 5.43276 23.301 5.42594 23.7262C5.41911 24.3504 5.10517 24.6934 4.4841 24.7002C3.28291 24.7071 2.0749 24.7002 0.873708 24.6796C0.286764 24.6728 -0.00670859 24.3093 0.000116344 23.6508C0.000116344 21.7783 0.00694128 19.9057 0.0137662 18.0332C0.0137662 16.5585 0.0205911 15.0838 0.0205911 13.616C0.0205911 12.8409 0.320888 12.546 1.09893 12.546C2.2114 12.5528 3.32386 12.5597 4.44315 12.5665C5.18707 12.5734 5.44641 12.7655 5.44641 13.6571C5.44641 13.712 5.53514 13.6571 6.36778 13.4857C7.39835 13.273 8.45621 13.1633 9.5209 13.3485C10.4627 13.5062 11.3022 13.8835 12.0734 14.4254C13.4384 15.3925 14.7966 16.3733 16.1616 17.3405C16.6257 17.6697 17.0147 18.0675 17.1375 18.6505C17.1853 18.8837 17.3423 18.8494 17.4992 18.8563C19.4444 18.9112 21.3826 18.966 23.3277 19.0141C23.9966 19.0346 24.5972 19.213 25.1022 19.6862C26.2829 20.8111 25.9144 22.958 24.3924 23.5342C23.3823 23.9114 22.3313 24.1858 21.2939 24.4876C19.7651 24.9403 18.2432 25.3998 16.7076 25.8114C15.3767 26.1681 14.0731 26.0034 12.8105 25.4479C10.4286 24.3984 8.03989 23.3558 5.65116 22.3201C5.56244 22.2858 5.46689 22.2927 5.42594 22.4162ZM5.43959 20.5093C5.80814 20.6465 5.83543 20.6328 6.00606 20.7082C8.38796 21.7371 10.7699 22.766 13.1313 23.8291C14.3461 24.3778 15.5541 24.5082 16.8441 24.1103C18.5093 23.5959 20.1814 23.1226 21.8536 22.6356C22.4132 22.471 22.966 22.3133 23.5257 22.1418C23.9693 22.0046 24.215 21.6754 24.1672 21.2981C24.1194 20.9072 23.8191 20.6602 23.3414 20.6465C21.253 20.5848 19.1645 20.5299 17.0761 20.475C16.9669 20.475 16.8304 20.5162 16.7553 20.5916C15.9568 21.4216 15.0081 21.5931 14.0049 21.0581C12.8583 20.4476 11.7185 19.8371 10.5788 19.213C10.4218 19.1307 10.258 19.0278 10.1351 18.8975C9.89627 18.6505 9.8212 18.3419 9.95087 18.0126C10.0669 17.7177 10.3058 17.5462 10.6061 17.5462C10.8245 17.5462 11.0565 17.6148 11.2476 17.7177C12.4283 18.335 13.5954 18.9729 14.7693 19.6039C15.0969 19.7823 15.3972 19.7343 15.5473 19.4805C15.7043 19.2336 15.6019 18.9455 15.3016 18.726C13.9912 17.8 12.674 16.874 11.3909 15.9138C10.3058 15.1044 9.11823 14.7546 7.77372 14.9466C6.7022 15.0975 5.66481 15.3856 5.45324 15.4131C5.44641 17.217 5.43959 18.7054 5.43959 20.5093Z" fill="white"/>
</svg>
