<svg width="32" height="26" viewBox="0 0 32 26" fill="none" xmlns="http://www.w3.org/2000/svg">
<path d="M8.81884 17.8864C7.98781 17.8864 7.31892 17.2131 7.31892 16.3766C7.31892 13.3774 7.31892 6.54246 7.31892 1.57101C7.31892 0.741298 7.62296 0.265235 8.26482 0.0612081C8.41346 0.0136018 8.57561 0 8.73101 0C13.7105 0 18.6832 0 23.6626 0C23.7167 0 24.9666 0.0068009 25.0612 0.0068009C23.237 0.618882 23.5342 2.44152 23.5275 3.65888C23.514 7.88904 23.514 13.4726 23.514 16.2201C23.514 17.1383 22.7708 17.8864 21.8587 17.8864H8.81884ZM15.4198 8.43992C13.5956 8.43992 11.7781 8.43992 9.95391 8.43992C9.77149 8.43992 9.58907 8.43312 9.4134 8.45352C9.06883 8.49432 8.83235 8.75276 8.8256 9.086C8.81884 9.43285 9.00802 9.67768 9.36611 9.75249C9.47421 9.77289 9.58907 9.78649 9.69717 9.78649C13.5078 9.78649 17.3251 9.78649 21.1357 9.78649C21.2709 9.78649 21.406 9.77289 21.5344 9.74569C21.8046 9.69128 21.96 9.50766 22.0141 9.24242C22.0681 8.97719 22.0005 8.72555 21.7573 8.59634C21.5749 8.50112 21.3587 8.44672 21.156 8.44672C19.2439 8.43312 17.3319 8.43992 15.4198 8.43992ZM15.4198 5.58354C13.5956 5.58354 11.7781 5.58354 9.95391 5.58354C9.77149 5.58354 9.58907 5.57674 9.4134 5.59714C9.06883 5.63795 8.83235 5.89638 8.8256 6.22962C8.81884 6.57647 9.00802 6.8213 9.36611 6.89611C9.47421 6.91651 9.58907 6.93012 9.69717 6.93012C13.5078 6.93012 17.3251 6.93012 21.1357 6.93012C21.2709 6.93012 21.406 6.91651 21.5344 6.88931C21.8046 6.8349 21.96 6.65128 22.0141 6.38604C22.0681 6.12081 22.0005 5.86918 21.7573 5.73996C21.5749 5.64475 21.3587 5.59034 21.156 5.59034C19.2439 5.57674 17.3319 5.58354 15.4198 5.58354ZM15.4198 2.59114C13.5956 2.59114 11.7781 2.59114 9.95391 2.59114C9.77149 2.59114 9.58907 2.58434 9.4134 2.60474C9.06883 2.64555 8.83235 2.90398 8.8256 3.23723C8.81884 3.58407 9.00802 3.82891 9.36611 3.90372C9.47421 3.92412 9.58907 3.93772 9.69717 3.93772C13.5078 3.93772 17.3251 3.93772 21.1357 3.93772C21.2709 3.93772 21.406 3.92412 21.5344 3.89692C21.8046 3.84251 21.96 3.65888 22.0141 3.39365C22.0681 3.12841 22.0005 2.87678 21.7573 2.74756C21.5749 2.65235 21.3587 2.59794 21.156 2.59794C19.2439 2.58434 17.3319 2.59114 15.4198 2.59114ZM15.3928 11.3643C13.974 11.3643 12.5551 11.3643 11.1363 11.3643C10.5958 11.3643 10.0553 11.3575 9.51475 11.3711C9.0891 11.3779 8.83235 11.6295 8.81884 12.0036C8.80533 12.4592 9.10936 12.7109 9.69041 12.7109C13.5078 12.7109 17.3251 12.7109 21.1425 12.7109C21.2844 12.7109 21.4398 12.6905 21.5749 12.6497C21.8789 12.5545 22.0343 12.3232 22.0276 12.0104C22.0208 11.7043 21.8587 11.4935 21.5681 11.4119C21.433 11.3711 21.2776 11.3711 21.1357 11.3711C19.2237 11.3643 17.3049 11.3643 15.3928 11.3643ZM12.6835 15.5877C13.1091 15.5877 13.5416 15.5877 13.9672 15.5877C14.6226 15.5877 15.2712 15.6013 15.9266 15.5809C16.4265 15.5673 16.7306 15.0776 16.5211 14.6491C16.3657 14.3227 16.0617 14.2547 15.7306 14.2547C13.697 14.2615 11.6633 14.2547 9.62961 14.2547C9.55529 14.2547 9.48097 14.2547 9.4134 14.2683C9.07558 14.3227 8.86614 14.5063 8.83235 14.8532C8.79181 15.2952 9.06207 15.5809 9.55529 15.5809C10.5958 15.5945 11.643 15.5877 12.6835 15.5877Z" fill="white"/>
<path d="M1.95435 20.1239C1.95435 19.9266 1.95435 19.777 1.95435 19.6342C1.95435 15.336 1.95435 13.833 1.95435 9.53486C1.95435 8.35831 2.40703 7.44698 3.46778 6.90291C3.70426 6.7805 3.97451 6.68528 4.23125 6.67168C4.79879 6.63768 6.85949 6.65808 7.45405 6.65808C7.45405 7.05933 7.45405 7.48779 7.45405 7.96385C7.05542 7.96385 5.16364 7.96385 4.76501 7.96385C3.84614 7.96385 3.29887 8.49432 3.29887 9.40564C3.29212 13.8262 3.29887 15.4584 3.29887 19.879C3.29887 19.947 3.30563 20.015 3.31239 20.1239C3.45427 20.1239 3.58264 20.1239 3.71101 20.1239C6.29195 20.1239 8.86613 20.1307 11.4471 20.1171C11.9268 20.1171 12.2376 20.2871 12.4335 20.7155C12.5754 21.0216 12.6835 21.4364 12.9335 21.5793C13.197 21.7289 13.6091 21.6269 13.9605 21.6269C15.5685 21.6269 17.1832 21.6201 18.7913 21.6337C19.0075 21.6337 19.1426 21.5861 19.2304 21.3752C19.3385 21.1236 19.4872 20.8992 19.602 20.6475C19.7777 20.2599 20.0682 20.1103 20.4871 20.1171C23.0748 20.1307 25.6625 20.1239 28.257 20.1239C28.3921 20.1239 28.5205 20.1239 28.6759 20.1239C28.6826 20.0014 28.6894 19.913 28.6894 19.8314C28.6894 15.4584 28.6894 13.8738 28.6894 9.49406C28.6894 9.01119 28.6083 8.54193 28.1691 8.26989C27.9259 8.11347 27.6151 7.99106 27.3313 7.97745C26.5206 7.93665 24.2234 7.96385 23.3856 7.96385C23.3856 7.51499 23.3856 7.08654 23.3856 6.67848C24.4126 6.67848 26.9327 6.56967 27.9327 6.70569C29.0542 6.85531 30.0406 7.90265 30.0271 9.51446C30.0069 12.6225 30.0204 12.9353 30.0204 16.0433C30.0204 17.2539 30.0204 18.4712 30.0204 19.6818C30.0204 19.8178 30.0204 19.947 30.0204 20.1171C30.4393 20.1171 30.8176 20.1103 31.2027 20.1171C31.7568 20.1239 32 20.3823 32 20.94C31.9865 23.3067 30.1082 25.517 27.7773 25.9046C27.4259 25.9658 27.0611 25.9862 26.703 25.9862C19.5683 25.993 12.4268 25.9658 5.29201 25.9998C2.70431 26.0202 0.35309 24.1432 0.0287831 21.348C0.00851392 21.178 -0.00499885 21.008 0.00175754 20.838C0.0287831 20.3755 0.272013 20.1375 0.731447 20.1239C1.12332 20.1171 1.51519 20.1239 1.95435 20.1239Z" fill="white"/>
<path d="M26.8651 5.65155C25.9598 5.65155 25.095 5.65155 24.2099 5.65155C24.1964 5.59714 24.1761 5.54273 24.1761 5.48833C24.1761 4.34577 24.1626 3.20322 24.1761 2.05387C24.1829 1.4894 24.4396 1.04734 24.9598 0.802506C25.4463 0.578076 25.953 0.598479 26.3449 0.972529C26.5814 1.19696 26.8246 1.5506 26.8381 1.84984C26.8989 3.11481 26.8651 4.36618 26.8651 5.65155Z" fill="white"/>
</svg>
