<svg width="23" height="26" viewBox="0 0 23 26" fill="none" xmlns="http://www.w3.org/2000/svg">
<path d="M18.9051 7.84781C18.4009 7.84781 17.9015 7.84781 17.3643 7.84781C17.3643 7.77327 17.3643 7.68476 17.3643 7.59625C17.3643 6.10557 17.3643 4.61488 17.3643 3.12419C17.3643 2.63506 17.2512 2.52791 16.7517 2.52791C11.8888 2.52791 7.03053 2.52791 2.16759 2.52791C1.67281 2.52791 1.55972 2.63972 1.55972 3.13351C1.55972 9.23601 1.55972 15.3385 1.55972 21.441C1.55972 21.9255 1.66339 22.0326 2.15345 22.0326C7.0211 22.0326 11.8935 22.0326 16.7611 22.0326C17.2747 22.0326 17.3643 21.9395 17.3643 21.4317C17.3643 20.7097 17.3643 19.9876 17.3643 19.2656C17.3643 19.1817 17.3643 19.0978 17.3643 19.0233C17.892 19.0233 18.3915 19.0233 18.924 19.0233C18.924 19.0839 18.924 19.1584 18.924 19.2329C18.924 20.8727 18.924 22.5078 18.924 24.1476C18.924 24.8929 18.6507 25.4892 17.9533 25.8153C17.713 25.9271 17.4255 25.9923 17.1616 25.9923C12.0348 26.0016 6.9033 26.0016 1.77648 25.9969C0.70211 25.9923 0 25.2656 0 24.1802C0 19.6708 0 15.1568 0 10.6475C0 7.7034 0 4.76395 0 1.81984C0 1.08847 0.278017 0.510826 0.956566 0.189396C1.2016 0.0729359 1.49846 0.00771829 1.77177 0.00771829C6.89859 -0.00159851 12.0254 -0.00159851 17.1569 0.00305989C18.17 0.00305989 18.9004 0.683187 18.9146 1.71269C18.9428 3.72978 18.924 5.75153 18.924 7.76862C18.9193 7.79657 18.9099 7.82452 18.9051 7.84781ZM9.45257 24.7066C10.0369 24.7112 10.5128 24.2454 10.5222 23.6677C10.5317 23.0808 10.0463 22.5963 9.45257 22.601C8.87769 22.6056 8.38763 23.0854 8.38763 23.6538C8.39234 24.2221 8.87298 24.7019 9.45257 24.7066ZM9.47613 1.25151C9.12272 1.25151 8.76931 1.24685 8.42061 1.25151C8.12846 1.25617 7.96353 1.39592 7.96353 1.63816C7.95882 1.87574 8.12374 2.03412 8.41119 2.03878C9.11801 2.0481 9.82012 2.0481 10.5269 2.03878C10.7908 2.03412 10.9652 1.86176 10.9699 1.65213C10.9699 1.41921 10.7955 1.26083 10.5128 1.25617C10.1688 1.24685 9.82012 1.25151 9.47613 1.25151Z" fill="white"/>
<path d="M18.1323 8.61179C20.8041 8.61179 23 10.7826 23 13.4239C22.9953 16.0932 20.79 18.264 18.0947 18.2547C15.4229 18.2454 13.2459 16.0745 13.2411 13.4239C13.2411 10.7686 15.4323 8.61179 18.1323 8.61179ZM17.9297 13.9783C17.9957 14.0714 18.0428 14.1413 18.0899 14.2112C18.4292 14.7329 18.7685 15.2547 19.1125 15.7718C19.2633 15.9954 19.4847 16.0513 19.6732 15.9348C19.8711 15.809 19.9135 15.5947 19.7816 15.3618C19.6826 15.1941 19.5696 15.0357 19.4659 14.8727C19.1879 14.4441 18.9099 14.0155 18.6224 13.5683C18.7261 13.545 18.8015 13.5264 18.8769 13.5078C19.1596 13.4519 19.4518 13.4146 19.7251 13.3261C19.8476 13.2842 19.9748 13.1491 20.0266 13.0233C20.0973 12.8602 20.0078 12.7065 19.8429 12.6134C19.7816 12.5807 19.7203 12.5388 19.6591 12.5062C18.7214 11.9845 17.7884 11.4581 16.8459 10.955C16.7234 10.8897 16.5255 10.8851 16.3889 10.927C16.2145 10.9829 16.1862 11.1646 16.2004 11.337C16.2993 12.4643 16.3889 13.5963 16.4925 14.7236C16.5161 14.9845 16.6999 15.1475 16.9308 15.087C17.0627 15.0544 17.1899 14.9472 17.2795 14.8401C17.5009 14.5745 17.6988 14.2857 17.9297 13.9783Z" fill="white"/>
<path d="M7.96353 5.03413C6.61115 5.03413 5.25405 5.03413 3.90166 5.03413C3.76972 5.03413 3.63307 5.02482 3.50113 5.04345C3.24196 5.08072 3.06761 5.32296 3.0629 5.63041C3.05347 5.9565 3.19955 6.1801 3.46343 6.24998C3.54354 6.27327 3.62836 6.27793 3.71317 6.27793C6.54518 6.27793 9.37718 6.27793 12.2092 6.27793C12.3081 6.27793 12.4071 6.26395 12.506 6.24066C12.7087 6.18942 12.8218 6.01706 12.8642 5.77482C12.9066 5.52792 12.8547 5.295 12.671 5.17854C12.539 5.09469 12.3741 5.04345 12.2233 5.04345C10.805 5.02948 9.3866 5.03413 7.96353 5.03413Z" fill="white"/>
<path d="M7.96353 7.8152C6.61115 7.8152 5.25405 7.8152 3.90166 7.8152C3.76972 7.8152 3.63307 7.80588 3.50113 7.82452C3.24196 7.86178 3.06761 8.10402 3.0629 8.41148C3.05347 8.73756 3.19955 8.96117 3.46343 9.03104C3.54354 9.05433 3.62836 9.05899 3.71317 9.05899C6.54518 9.05899 9.37718 9.05899 12.2092 9.05899C12.3081 9.05899 12.4071 9.04502 12.506 9.02173C12.7087 8.97048 12.8218 8.79812 12.8642 8.55589C12.9066 8.30899 12.8547 8.07607 12.671 7.95961C12.539 7.87576 12.3741 7.82452 12.2233 7.82452C10.805 7.81054 9.3866 7.8152 7.96353 7.8152Z" fill="white"/>
<path d="M7.96353 10.5776C6.61115 10.5776 5.25405 10.5776 3.90166 10.5776C3.76972 10.5776 3.63307 10.5683 3.50113 10.5869C3.24196 10.6242 3.06761 10.8665 3.0629 11.1739C3.05347 11.5 3.19955 11.7236 3.46343 11.7935C3.54354 11.8168 3.62836 11.8214 3.71317 11.8214C6.54518 11.8214 9.37718 11.8214 12.2092 11.8214C12.3081 11.8214 12.4071 11.8075 12.506 11.7842C12.7087 11.7329 12.8218 11.5606 12.8642 11.3183C12.9066 11.0714 12.8547 10.8385 12.671 10.722C12.539 10.6382 12.3741 10.5869 12.2233 10.5869C10.805 10.573 9.3866 10.5776 7.96353 10.5776Z" fill="white"/>
<path d="M7.96353 13.3587C6.61115 13.3587 5.25405 13.3587 3.90166 13.3587C3.76972 13.3587 3.63307 13.3494 3.50113 13.368C3.24196 13.4053 3.06761 13.6475 3.0629 13.955C3.05347 14.2811 3.19955 14.5047 3.46343 14.5745C3.54354 14.5978 3.62836 14.6025 3.71317 14.6025C6.54518 14.6025 9.37718 14.6025 12.2092 14.6025C12.3081 14.6025 12.4071 14.5885 12.506 14.5652C12.7087 14.514 12.8218 14.3416 12.8642 14.0994C12.9066 13.8525 12.8547 13.6196 12.671 13.5031C12.539 13.4193 12.3741 13.368 12.2233 13.368C10.805 13.354 9.3866 13.3587 7.96353 13.3587Z" fill="white"/>
<path d="M7.96353 16.1537C6.61115 16.1537 5.25405 16.1537 3.90166 16.1537C3.76972 16.1537 3.63307 16.1444 3.50113 16.1631C3.24196 16.2003 3.06761 16.4426 3.0629 16.75C3.05347 17.0761 3.19955 17.2997 3.46343 17.3696C3.54354 17.3929 3.62836 17.3975 3.71317 17.3975C6.54518 17.3975 9.37718 17.3975 12.2092 17.3975C12.3081 17.3975 12.4071 17.3836 12.506 17.3603C12.7087 17.309 12.8218 17.1367 12.8642 16.8944C12.9066 16.6475 12.8547 16.4146 12.671 16.2981C12.539 16.2143 12.3741 16.1631 12.2233 16.1631C10.805 16.1491 9.3866 16.1537 7.96353 16.1537Z" fill="white"/>
<path d="M7.96353 18.9162C6.61115 18.9162 5.25405 18.9162 3.90166 18.9162C3.76972 18.9162 3.63307 18.9069 3.50113 18.9255C3.24196 18.9628 3.06761 19.205 3.0629 19.5124C3.05347 19.8385 3.19955 20.0621 3.46343 20.132C3.54354 20.1553 3.62836 20.16 3.71317 20.16C6.54518 20.16 5.23049 20.16 8.06249 20.16C8.16144 20.16 8.2604 20.146 8.35935 20.1227C8.56197 20.0715 8.67507 19.8991 8.71748 19.6569C8.75988 19.41 8.70805 19.177 8.52428 19.0606C8.39234 18.9767 8.22741 18.9255 8.07662 18.9255C6.65827 18.9115 9.3866 18.9162 7.96353 18.9162Z" fill="white"/>
</svg>
