<svg width="20" height="20" viewBox="0 0 20 20" fill="none" xmlns="http://www.w3.org/2000/svg">
<path d="M14.8011 6.56915C13.6114 4.21167 11.9409 2.16196 9.8327 0.475404C9.6601 0.339988 9.45668 0.28459 9.26559 0.321522C9.06833 0.358454 8.9019 0.49387 8.79094 0.690839C8.77245 0.721616 8.75396 0.752392 8.74163 0.789324L8.26081 1.73108C7.55809 3.09756 6.8307 4.50712 6.11565 5.89206C6.07866 5.95977 6.01702 6.02748 5.94921 6.06441C5.14786 6.52606 4.33418 7.00002 3.54515 7.44935C2.76229 7.89869 1.98559 8.34803 1.20273 8.80352C0.0315193 9.4806 -0.338336 10.8286 0.333568 12.0104C0.752739 12.7552 1.1904 13.5062 1.60957 14.2325L1.80066 14.5649C1.99792 14.9096 2.21367 15.1496 2.47257 15.3281C3.28625 15.8883 4.15541 15.9252 5.0554 15.4266C5.27731 15.3035 5.50539 15.1681 5.72114 15.045C5.77045 15.0142 5.81976 14.9896 5.86908 14.9588C5.87524 14.9711 5.88141 14.9834 5.88141 15.0019L6.1588 15.8206C6.44236 16.6577 6.73208 17.5194 7.0218 18.3688C7.21289 18.9474 7.54576 19.3783 8.0389 19.6799C8.3841 19.8954 8.78478 20 9.17929 20C9.88818 20 10.5971 19.6738 11.0101 19.0767C11.5464 18.3011 11.5957 17.4825 11.1519 16.6392C10.7635 15.8944 10.3628 15.1373 9.97448 14.411C9.79572 14.0786 9.61695 13.7401 9.43819 13.4077C9.37655 13.2907 9.3149 13.1738 9.25326 13.0568L9.23477 13.0199C9.77106 12.6506 9.80804 12.6567 10.5046 12.6814C10.5539 12.6814 10.6032 12.6875 10.6587 12.6875C10.745 12.6937 10.8313 12.6937 10.9176 12.6998C11.4292 12.7244 11.9347 12.7552 12.4464 12.7798C13.5621 12.8414 14.6778 12.8968 15.7935 12.9583C16.1326 12.9768 16.3175 12.8537 16.4161 12.7429C16.5148 12.6321 16.6196 12.4351 16.5641 12.0966C16.262 10.1515 15.6703 8.29263 14.8011 6.56915ZM7.44713 12.5152L4.93827 8.16952L6.31291 7.38165L8.8156 11.7273L7.44713 12.5152ZM8.09438 13.6785L8.44574 14.3371C8.95738 15.3097 9.46901 16.276 9.98064 17.2486C10.1841 17.6302 10.1471 18.0118 9.86969 18.3381C9.64161 18.6089 9.24093 18.7074 8.86491 18.5843C8.58752 18.492 8.39643 18.295 8.2978 17.9934C7.98342 17.0701 7.66288 16.1222 7.35467 15.2112C7.24987 14.9034 7.14508 14.5895 7.04029 14.2817L8.09438 13.6785ZM15.134 11.5919L14.9367 11.5857C14.6593 11.5734 14.3819 11.5611 14.1107 11.5488C13.747 11.5303 13.3833 11.5118 13.0196 11.4934C12.1258 11.4441 11.2012 11.3949 10.2889 11.358C10.1471 11.3518 10.0916 11.321 10.0238 11.1918C9.08066 9.536 8.14369 7.91716 7.35467 6.55068C7.31768 6.48297 7.31768 6.45835 7.3485 6.39064C7.93411 5.25807 8.52588 4.10703 9.10532 2.99292L9.5923 2.045C9.59846 2.03269 9.60462 2.02654 9.61079 2.01423C12.545 4.60561 14.3573 7.75096 15.134 11.5919ZM6.30674 13.1861L5.91839 13.4077C5.41292 13.697 4.90745 13.9924 4.39582 14.2817C3.82254 14.608 3.26776 14.4541 2.94105 13.8878C2.4664 13.063 1.99176 12.2382 1.51711 11.4134C1.17191 10.8163 1.31985 10.2685 1.92395 9.92378C2.38627 9.65911 2.84859 9.38827 3.31707 9.12359L3.80405 8.84045L6.30674 13.1861Z" fill="#FFA63A"/>
<path d="M19.9976 7.00002C19.9667 6.6307 19.6524 6.36602 19.264 6.3968C18.1914 6.47066 17.3161 6.53221 16.5148 6.59377C16.1326 6.62454 15.8614 6.91384 15.8737 7.277C15.886 7.64017 16.1819 7.91715 16.5641 7.92331C16.5702 7.92331 16.5702 7.92331 16.5764 7.92331L16.8045 7.90484C17.0141 7.88638 17.2175 7.87407 17.4209 7.86176C17.6182 7.84945 17.8154 7.83098 18.0127 7.81867C18.4565 7.78789 18.9188 7.75712 19.3688 7.72018C19.7633 7.68325 20.0284 7.38164 19.9976 7.00002Z" fill="#FFA63A"/>
<path d="M14.1539 3.62691C14.16 3.62691 14.16 3.62691 14.1662 3.62691C14.1908 3.62691 14.2217 3.62076 14.2463 3.60229L14.3018 3.57152C14.3696 3.52843 14.4682 3.47303 14.5607 3.41763C14.61 3.38686 14.6408 3.33762 14.6532 3.31299C14.6593 3.30684 14.6593 3.30068 14.6655 3.29453L15.134 2.61129C15.4792 2.10656 15.8244 1.60182 16.1757 1.10324C16.2867 0.943206 16.4038 0.721616 16.3052 0.450783C16.2127 0.192261 16.0278 0.0383782 15.7751 0.00760171C15.51 -0.02933 15.2881 0.0691546 15.1401 0.28459C14.8936 0.641597 14.6408 1.00476 14.3943 1.36177L14.0984 1.79264C13.9196 2.05116 13.7347 2.32199 13.5559 2.59283C13.4018 2.82057 13.3956 3.07294 13.5374 3.30684C13.6484 3.50996 13.8456 3.60845 14.1539 3.62691Z" fill="#FFA63A"/>
<path d="M15.0538 5.25191C15.1771 5.4735 15.399 5.59661 15.6271 5.59661C15.7319 5.59661 15.8305 5.57199 15.9292 5.51659C16.7244 5.06725 17.5011 4.62407 18.2962 4.16858C18.512 4.04548 18.6353 3.84851 18.6414 3.60845V3.60229C18.6353 3.34993 18.512 3.12834 18.3024 3.01139C18.1051 2.89443 17.8586 2.90059 17.649 3.01754C16.8291 3.47919 16.0278 3.94699 15.2758 4.38402C14.9737 4.56252 14.8751 4.94415 15.0538 5.25191Z" fill="#FFA63A"/>
</svg>
