<svg width="28" height="20" viewBox="0 0 28 20" fill="none" xmlns="http://www.w3.org/2000/svg">
<path d="M24.9577 9.21853C24.9514 9.42509 24.9389 9.58784 24.9326 9.75058C24.8762 12.7551 24.826 15.7596 24.7696 18.7579C24.7633 18.9331 24.7633 19.1146 24.7382 19.2899C24.6629 19.7406 24.4183 19.9597 23.9605 19.9972C23.879 20.0035 23.7912 19.9972 23.7097 19.9972C17.2312 19.9972 10.7528 19.9972 4.27437 19.9972C3.4967 19.9972 3.23957 19.7468 3.23957 18.9644C3.23957 15.8222 3.23957 12.6862 3.23957 9.54402C3.23957 9.41257 3.23957 9.27487 3.23957 9.06831C3.10787 9.14968 3.02634 9.19975 2.94481 9.25609C2.36784 9.65043 1.79086 10.051 1.21389 10.4391C0.799969 10.7208 0.386051 10.6832 0.154006 10.3703C-0.121939 9.98844 -0.0215949 9.53776 0.411137 9.23731C2.51835 7.78513 4.62557 6.33295 6.72651 4.88077C8.95289 3.34095 11.173 1.80114 13.3994 0.267589C13.9136 -0.0891965 14.0955 -0.0891965 14.6098 0.267589C18.9057 3.24706 23.2017 6.2328 27.4976 9.21227C27.9429 9.51898 28.0746 9.78188 27.9617 10.1387C27.8175 10.6019 27.2907 10.8022 26.8705 10.5267C26.3123 10.1574 25.773 9.7631 25.2211 9.38754C25.1584 9.3312 25.0769 9.28739 24.9577 9.21853ZM23.2644 18.495C23.2707 18.4011 23.2769 18.3385 23.2769 18.2759C23.3271 14.9897 23.3773 11.7035 23.44 8.42359C23.4463 8.22329 23.3647 8.12314 23.2142 8.02299C20.2165 5.95113 17.225 3.87926 14.2335 1.79488C14.0516 1.6697 13.9387 1.65718 13.7443 1.78862C10.8343 3.82919 7.91182 5.85723 4.98304 7.88528C4.80117 8.01047 4.73218 8.14192 4.73218 8.36725C4.73846 11.6347 4.73846 14.8958 4.73846 18.1632C4.73846 18.2759 4.73846 18.3823 4.73846 18.495C6.71397 18.495 8.64559 18.495 10.6086 18.495C10.6086 18.3698 10.6086 18.2571 10.6086 18.1444C10.6086 16.2666 10.6148 14.3888 10.6086 12.511C10.6086 12.029 10.6964 11.5783 11.0726 11.2654C11.3674 11.0212 11.6873 10.7771 12.0385 10.6519C13.3304 10.1825 14.6474 10.2138 15.9393 10.6457C16.88 10.9586 17.4946 11.5157 17.457 12.7926C17.4006 14.5766 17.4445 16.3605 17.4445 18.1444C17.4445 18.2571 17.4445 18.3698 17.4445 18.495C19.4012 18.495 21.3202 18.495 23.2644 18.495ZM12.1137 18.3886C13.4119 18.3886 14.6662 18.3886 15.9456 18.3886C15.9456 18.2508 15.9456 18.1382 15.9456 18.0255C15.9456 16.2604 15.9456 14.5015 15.9456 12.7363C15.9456 12.2543 15.9205 12.1792 15.4627 12.029C14.4467 11.7035 13.4244 11.7286 12.421 12.0853C12.2015 12.1667 12.0886 12.3232 12.0886 12.5861C12.1012 14.4201 12.0949 16.2541 12.0949 18.0944C12.0949 18.1883 12.1074 18.2821 12.1137 18.3886Z" fill="#3A62FF"/>
</svg>
