<svg width="22" height="20" viewBox="0 0 22 20" fill="none" xmlns="http://www.w3.org/2000/svg">
<path d="M11.0101 19.9973C8.20767 19.9973 5.41145 19.9973 2.60898 19.9973C1.34818 19.9973 0.35577 19.2363 0.0686574 18.0485C0.0187247 17.8506 0 17.6402 0 17.4361C0.00624158 12.4808 0.00624158 7.51925 0.00624158 2.55774C0.00624158 1.10393 1.111 0.00893594 2.59025 0.00274952C6.21037 -0.0034369 9.83673 0.00274952 13.4568 0.00274952C15.4417 0.00274952 17.4265 0.00274952 19.4051 0.00274952C20.6596 0.00274952 21.652 0.769865 21.9329 1.95766C21.9828 2.15562 21.9953 2.36596 21.9953 2.57011C22.0016 7.52543 22.0016 12.4746 21.9953 17.4299C21.9953 18.9023 20.8906 19.9973 19.3988 19.9973C16.6088 20.0034 13.8126 19.9973 11.0101 19.9973ZM1.37939 4.55595C1.37939 4.64256 1.37939 4.7168 1.37939 4.78485C1.37939 8.98543 1.37939 13.186 1.37939 17.3928C1.37939 18.1661 1.85375 18.6362 2.64019 18.6362C8.22016 18.6362 13.8001 18.6362 19.3739 18.6362C20.1603 18.6362 20.6284 18.1661 20.6284 17.3866C20.6284 13.186 20.6284 8.98543 20.6284 4.77866C20.6284 4.70443 20.6284 4.63019 20.6284 4.55595C14.1996 4.55595 7.80821 4.55595 1.37939 4.55595ZM20.6222 3.18257C20.6222 2.89799 20.6471 2.62579 20.6159 2.35977C20.541 1.74732 20.0479 1.36995 19.3489 1.36995C13.7876 1.36995 8.22016 1.36995 2.65891 1.36995C2.57777 1.36995 2.50287 1.36995 2.42173 1.38232C1.9661 1.438 1.63529 1.67308 1.46053 2.09995C1.31697 2.45257 1.39811 2.82376 1.37939 3.18875C7.80821 3.18257 14.2058 3.18257 20.6222 3.18257Z" fill="#748DB1"/>
<path d="M11.9214 10.4702C11.9214 11.262 11.9214 12.0601 11.9214 12.8519C11.9214 13.8789 11.2473 14.547 10.2112 14.547C8.60089 14.547 6.99057 14.547 5.38024 14.547C4.35038 14.547 3.67005 13.8665 3.67005 12.8458C3.67005 11.2497 3.67005 9.65356 3.67005 8.05747C3.67005 7.04289 4.34414 6.37476 5.36152 6.36857C6.98433 6.36239 8.61338 6.36239 10.2362 6.36857C11.2473 6.36857 11.9152 7.03052 11.9152 8.03891C11.9214 8.84933 11.9214 9.65975 11.9214 10.4702ZM10.542 9.36899C10.542 8.91119 10.542 8.48433 10.542 8.06365C10.542 7.77908 10.4921 7.73577 10.1987 7.73577C8.59465 7.73577 6.99681 7.73577 5.39272 7.73577C5.10561 7.73577 5.04944 7.79764 5.04319 8.0884C5.04319 8.83077 5.04319 9.57932 5.04319 10.3217C5.04319 10.3712 5.05568 10.4269 5.06192 10.4949C5.10561 10.464 5.13058 10.4516 5.1493 10.4331C5.98567 9.66593 6.666 9.62882 7.56479 10.3031C7.70211 10.4083 7.81446 10.3897 7.91432 10.266C8.06412 10.0866 8.20767 9.90102 8.35747 9.71543C8.62586 9.38755 8.96915 9.19577 9.39357 9.1339C9.79304 9.07822 10.155 9.17102 10.542 9.36899ZM7.80197 13.186C8.60089 13.186 9.40606 13.186 10.205 13.186C10.4671 13.186 10.5358 13.118 10.5358 12.8581C10.5358 12.4374 10.542 12.023 10.5358 11.6023C10.5358 11.528 10.5233 11.4414 10.4796 11.3858C10.2612 11.095 10.024 10.8166 9.79928 10.5382C9.68069 10.3897 9.5621 10.4083 9.44975 10.5506C9.30619 10.73 9.16888 10.9094 9.01908 11.0826C8.4074 11.8312 7.35882 11.9302 6.62231 11.293C6.47252 11.163 6.36017 11.163 6.21661 11.3053C5.90453 11.6208 5.59869 11.9425 5.27413 12.2333C5.09313 12.3941 5.02447 12.5674 5.03695 12.8086C5.05568 13.118 5.10561 13.186 5.41769 13.186C6.21661 13.186 7.00929 13.186 7.80197 13.186Z" fill="#748DB1"/>
<path d="M11.0164 15.908C13.1947 15.908 15.3668 15.908 17.5451 15.908C17.8509 15.908 18.0943 15.9885 18.2504 16.2607C18.4688 16.6442 18.2629 17.1329 17.8322 17.2443C17.7323 17.269 17.62 17.2752 17.5139 17.2752C13.176 17.2752 8.83807 17.2752 4.50018 17.2752C4.0383 17.2752 3.75743 17.0834 3.68877 16.7123C3.61387 16.3287 3.8885 15.9575 4.27548 15.9204C4.3691 15.9142 4.46273 15.9142 4.55635 15.9142C6.7097 15.908 8.86304 15.908 11.0164 15.908Z" fill="#748DB1"/>
<path d="M16.0533 8.18119C15.5353 8.18119 15.0235 8.18119 14.5054 8.18119C14.0623 8.18119 13.7564 7.89662 13.7564 7.50687C13.7564 7.11094 14.0623 6.82637 14.4992 6.82018C15.529 6.814 16.5589 6.814 17.5888 6.82018C18.0257 6.82018 18.3378 7.11094 18.3378 7.50069C18.3378 7.89043 18.0257 8.17501 17.5888 8.18119C17.0832 8.18738 16.5651 8.18119 16.0533 8.18119Z" fill="#748DB1"/>
<path d="M16.0346 10.9094C15.529 10.9094 15.0172 10.9094 14.5117 10.9094C14.0685 10.9094 13.7627 10.631 13.7564 10.2351C13.7502 9.83915 14.056 9.54839 14.4929 9.54221C15.529 9.53602 16.5651 9.53602 17.6075 9.54221C17.9757 9.54221 18.2441 9.75254 18.319 10.0742C18.3939 10.3774 18.2566 10.6929 17.9695 10.8228C17.8509 10.8785 17.7074 10.897 17.5763 10.9032C17.0645 10.9156 16.5464 10.9094 16.0346 10.9094Z" fill="#748DB1"/>
<path d="M16.0409 13.6314C15.5353 13.6314 15.0235 13.6314 14.5179 13.6314C14.0748 13.6314 13.7627 13.3592 13.7564 12.9633C13.7502 12.5612 14.056 12.2704 14.5117 12.2642C15.5415 12.258 16.5714 12.258 17.6012 12.2642C17.9445 12.2642 18.2067 12.4436 18.3003 12.7282C18.3939 13.0066 18.3128 13.3221 18.0631 13.483C17.9321 13.5634 17.7635 13.6191 17.6075 13.6191C17.0832 13.6438 16.5651 13.6314 16.0409 13.6314Z" fill="#748DB1"/>
</svg>
