<svg width="42" height="24" viewBox="0 0 42 24" fill="none" xmlns="http://www.w3.org/2000/svg">
<path d="M32.3028 6.45455C32.182 6.13687 32.0613 5.82307 31.9367 5.49764C32.0146 5.45503 32.0769 5.42016 32.1353 5.38529C32.8908 4.94752 33.2802 4.29279 33.2841 3.42886C33.288 1.97994 31.7537 0.910687 30.3283 1.36396C30.1648 1.41432 30.0713 1.39108 29.9623 1.27485C29.6546 0.953302 29.2886 0.713107 28.8836 0.527149C27.6919 -0.02685 26.4418 -0.0810876 25.1684 0.0777512C24.779 0.128115 24.4752 0.465163 24.448 0.833204C24.4129 1.2826 24.6232 1.63902 25.0438 1.75912C25.2307 1.80948 25.441 1.80561 25.6396 1.79011C26.3639 1.73587 27.0766 1.73587 27.7776 1.96832C28.4357 2.18915 28.9342 2.56493 29.1795 3.25453C29.5183 4.20756 29.9078 5.1451 30.2738 6.09038C30.2933 6.14075 30.3089 6.19498 30.34 6.28409C30.2349 6.23372 30.1687 6.19886 30.1025 6.16399C28.4162 5.29231 26.6365 4.72282 24.7322 4.57948C23.5016 4.49037 22.2827 4.57948 21.0872 4.89328C19.7709 5.24195 18.5559 5.80757 17.446 6.59789C17.3409 6.6715 17.2708 6.6715 17.1578 6.60951C16.6243 6.31896 16.0947 6.0129 15.5378 5.7727C15.0977 5.58287 14.6226 5.40466 14.1514 5.3543C13.135 5.24195 12.1069 5.21483 11.0827 5.1451C9.7898 5.05599 8.493 4.95914 7.20009 4.86229C5.63458 4.74219 4.06907 4.61434 2.50356 4.49037C2.23486 4.471 1.96615 4.45163 1.69355 4.43226C1.69355 5.7727 2.64376 6.91944 3.97171 7.20225C4.84014 7.38821 5.71247 7.55867 6.58089 7.74463C6.7172 7.77175 6.8535 7.82986 6.96643 7.90734C8.65656 9.03084 10.2805 10.2434 11.7954 11.5955C12.2121 11.9674 12.6171 12.3587 13.0376 12.75C12.4613 13.0909 11.9161 13.4125 11.3748 13.7301C9.15503 11.0144 5.46712 10.6657 2.86184 12.3819C0.392849 14.013 -0.717026 17.1587 0.490208 20.0798C1.59619 22.7607 4.44292 24.4808 7.60899 23.8803C9.1044 23.5975 10.3389 22.8421 11.3008 21.6721C12.4262 20.3084 12.8585 18.7278 12.7066 16.9612C13.2986 16.8178 13.8944 16.6861 14.4785 16.5273C14.9459 16.3994 15.4171 16.3568 15.9 16.3568C18.6532 16.3645 21.4026 16.3607 24.1559 16.3607C24.2571 16.3607 24.3701 16.3568 24.4596 16.3181C26.1653 15.5626 27.6763 14.5437 28.9108 13.1374C29.9506 11.9519 30.671 10.6076 31.0566 9.0812C31.1033 8.89524 31.1423 8.70929 31.1929 8.46909C31.6719 9.70881 32.1314 10.8943 32.5948 12.0875C31.9951 12.4323 31.4538 12.8275 30.9982 13.3272C29.4833 14.9931 28.9576 16.9302 29.4443 19.119C29.7754 20.6067 30.5854 21.8038 31.8082 22.722C32.8441 23.5007 34.0124 23.9268 35.3169 23.9888C36.3217 24.0353 37.2836 23.8726 38.1987 23.4658C39.48 22.8963 40.4808 22.0014 41.1779 20.7849C41.8555 19.5917 42.1047 18.3055 41.9606 16.9457C41.8555 15.9539 41.5167 15.0396 40.9637 14.2067C39.9784 12.7306 38.6115 11.8086 36.8669 11.456C36.0452 11.2894 35.2196 11.274 34.394 11.4483C34.3434 11.4599 34.2421 11.425 34.2265 11.3863C33.989 10.7936 33.7631 10.2008 33.5295 9.59646C33.5879 9.56547 33.6307 9.54222 33.6774 9.51898C34.3667 9.19742 35.095 9.06571 35.8505 9.05796C36.9448 9.04633 38.004 9.24391 39.0399 9.59646C39.4176 9.72431 39.7915 9.86765 40.2199 10.0265C38.1637 7.75238 35.7492 6.65213 32.6649 7.38046C32.5403 7.07828 32.4235 6.76448 32.3028 6.45455ZM34.3044 16.5234C34.3278 16.5854 34.3122 16.69 34.2733 16.7481C33.658 17.6972 34.0902 18.9098 35.1651 19.2391C36.2204 19.5607 37.3225 18.7123 37.2719 17.612C37.2407 16.9147 36.824 16.3607 36.1659 16.1205C36.1036 16.0972 36.0296 16.0546 36.0062 16.0004C35.683 15.1868 35.3676 14.3655 35.0482 13.5481C36.6449 13.2381 38.8763 14.1098 39.624 16.3607C40.3172 18.4449 39.2969 20.6609 37.2641 21.521C35.2585 22.3694 32.8791 21.5016 31.9094 19.6188C30.8697 17.6004 31.6174 15.2256 33.3893 14.1485C33.6969 14.9466 34.0046 15.7331 34.3044 16.5234ZM7.99842 15.7641C7.77255 15.9035 7.55058 16.0469 7.31692 16.1747C7.25461 16.2096 7.14167 16.2057 7.07936 16.1708C6.3745 15.7602 5.44765 15.9074 4.96476 16.5195C4.43124 17.1897 4.46239 18.1118 5.03875 18.7123C5.80593 19.5103 7.16893 19.3127 7.68298 18.3287C7.72192 18.2551 7.79981 18.166 7.8777 18.1466C8.73055 17.9297 9.5873 17.7244 10.444 17.5152C10.4791 17.5074 10.518 17.5074 10.557 17.5035C10.6699 19.1345 9.6535 21.0212 7.60899 21.6643C5.65795 22.2803 3.47324 21.335 2.60871 19.5374C1.68187 17.6081 2.2699 15.365 4.00287 14.1989C5.72804 13.0405 8.06462 13.3156 9.48215 14.8614C8.97979 15.1674 8.48911 15.4657 7.99842 15.7641Z" fill="#748DB1"/>
</svg>
