<svg width="30" height="24" viewBox="0 0 30 24" fill="none" xmlns="http://www.w3.org/2000/svg">
<path d="M24.9231 17.1801C26.2554 17.1801 27.5369 17.1801 28.8113 17.1801C28.9706 17.1801 29.1298 17.1873 29.2747 17.216C29.767 17.3236 30.0204 17.6678 29.9987 18.1769C29.977 18.6144 29.6294 18.9658 29.166 19.0231C29.0936 19.0303 29.0212 19.0303 28.9488 19.0303C25.4517 19.0303 21.9472 19.0303 18.4501 19.0303C18.3632 19.0303 18.2835 19.0231 18.1677 19.016C17.8563 17.4168 17.0599 16.126 15.6552 15.2511C14.656 14.6272 13.5627 14.3475 12.3752 14.4335C11.1009 14.5268 9.9931 15.0144 9.05907 15.8678C8.13952 16.714 7.56752 17.761 7.38651 19.0231C6.21354 19.0231 5.06954 19.016 3.92553 19.0231C2.86117 19.0303 1.94162 18.6574 1.13792 17.9977C0.392148 17.3881 0.0156396 16.5778 0.0156396 15.6096C0.0156396 11.6798 -0.0278037 7.74276 0.0301206 3.81292C0.0663233 1.94122 1.47823 0.11972 3.74452 0.048007C6.61177 -0.0380481 9.48627 0.0193219 12.3608 0.0121507C13.4251 0.0121507 14.4822 0.00497942 15.5466 0.0193219C15.7276 0.0193219 15.9521 0.105377 16.0824 0.227288C18.9641 3.03842 21.8314 5.85672 24.6914 8.68937C24.829 8.82562 24.9159 9.08379 24.9159 9.28458C24.9303 11.7587 24.9231 14.2327 24.9231 16.7068C24.9231 16.8503 24.9231 16.9937 24.9231 17.1801ZM11.7888 9.53558C14.265 9.53558 16.6906 9.53558 19.1451 9.53558C19.1162 9.48538 19.1089 9.44952 19.0872 9.42801C17.3205 7.61368 15.5611 5.79218 13.7944 3.97785C13.7365 3.92048 13.6568 3.85594 13.5917 3.85594C12.9907 3.84877 12.397 3.84877 11.796 3.84877C11.7888 5.77067 11.7888 7.64237 11.7888 9.53558ZM4.30204 9.53558C5.49673 9.53558 6.64797 9.53558 7.80646 9.53558C7.80646 7.6352 7.80646 5.74916 7.80646 3.87029C6.62625 3.87029 5.47501 3.87029 4.30204 3.87029C4.30204 5.7635 4.30204 7.6352 4.30204 9.53558Z" fill="#748DB1"/>
<path d="M12.7807 17.3881H12.7952C14.1419 17.3953 15.2353 18.4996 15.2353 19.8407C15.2353 20.4933 14.9818 21.11 14.5184 21.5618C14.055 22.0207 13.4324 22.2717 12.7662 22.2717H12.759C12.1001 22.2717 11.4847 22.0136 11.0213 21.5546C10.5579 21.0885 10.3044 20.4717 10.3044 19.812C10.3117 18.4781 11.4195 17.3881 12.7807 17.3881ZM12.7807 15.667C10.4637 15.667 8.57396 17.5244 8.56672 19.812C8.55947 22.1283 10.4275 23.9928 12.7517 24C12.759 24 12.759 24 12.7662 24C15.0977 24 16.973 22.1498 16.973 19.8478C16.973 17.553 15.1122 15.6813 12.8024 15.6742C12.8024 15.667 12.7879 15.667 12.7807 15.667Z" fill="#748DB1"/>
</svg>
