<svg width="53" height="24" viewBox="0 0 53 24" fill="none" xmlns="http://www.w3.org/2000/svg">
<path d="M18.5521 14.7166C12.7389 14.7166 6.92072 14.7166 1.10751 14.7166C0.324867 14.7166 0 14.3959 0 13.6115C0 9.41811 0 5.22469 0 1.03128C0 0.50834 0.231346 0.153134 0.669426 0.0347313C0.807251 -0.00473609 0.959843 0.000197337 1.10751 0.000197337C11.3212 0.00513076 18.5417 0.00513076 28.7506 0.00513076C30.2026 0.00513076 31.6547 0.00513076 33.1068 0.00513076C33.727 0.00513076 34.1109 0.389938 34.1109 1.02142C34.1109 5.27403 34.1109 9.52171 34.1109 13.7743C34.1109 14.3861 33.7417 14.7215 33.0772 14.7215C27.2394 14.7166 24.3948 14.7166 18.5521 14.7166Z" fill="#748DB1"/>
<path d="M45.8752 23.9816C46.7366 24.0605 47.5389 23.8878 48.2723 23.4241C49.3798 22.7285 49.9705 21.7073 50.1182 20.4048C50.4873 20.4048 50.8319 20.4098 51.1765 20.4048C52.2594 20.3851 52.9731 19.7142 52.9879 18.6239C53.0075 17.055 53.0026 15.4813 52.978 13.9125C52.9632 13.0294 52.3873 12.4127 51.521 12.2943C50.1329 12.1068 48.7399 11.9243 47.3518 11.7467C47.1746 11.722 47.0614 11.6579 46.9728 11.4951C46.1902 10.1187 45.4026 8.74223 44.5954 7.3806C44.3689 6.99579 44.0933 6.62579 43.7733 6.31498C42.9858 5.5503 42.0013 5.25923 40.9184 5.25923C39.4073 5.25923 37.9011 5.25923 36.3899 5.25923C35.6368 5.25923 35.2972 5.60457 35.2972 6.36432C35.2972 10.6712 35.2972 14.9781 35.2972 19.2899C35.2972 20.0743 35.6319 20.4098 36.4244 20.4098C38.3195 20.4098 40.2145 20.4098 42.1096 20.4098C42.2081 20.4098 42.3065 20.4098 42.4148 20.4098C42.7101 22.6594 44.3936 23.8484 45.8752 23.9816ZM38.349 11.5444C38.157 11.5444 38.1324 11.4359 38.1275 11.2928C38.1226 10.8735 38.1275 10.4541 38.1275 10.0348C38.1275 9.3589 38.1275 8.68796 38.1275 8.01208C38.1275 7.70127 38.1964 7.63221 38.5065 7.63221C39.3433 7.63221 40.1801 7.63714 41.0169 7.62727C41.6617 7.61741 42.1391 7.89861 42.4591 8.44622C42.9858 9.33917 43.5026 10.2321 44.0195 11.13C44.177 11.4063 44.1081 11.5197 43.7832 11.5247C42.8824 11.5296 41.9767 11.5247 41.0759 11.5247C41.0759 11.5296 41.0759 11.5345 41.0759 11.5395C40.1702 11.5395 39.2596 11.5345 38.349 11.5444ZM46.2542 17.9184C47.3518 17.8987 48.3314 18.8804 48.3265 19.9904C48.3215 21.1005 47.3715 22.0575 46.2689 22.0526C45.1664 22.0526 44.2114 21.0955 44.2065 19.9904C44.2016 18.8952 45.1417 17.9381 46.2542 17.9184Z" fill="#748DB1"/>
<path d="M10.2236 20.3407C12.6699 20.3407 15.1114 20.3407 17.5578 20.3407C23.686 20.3407 26.8161 20.3407 32.9443 20.3407C33.7368 20.3407 34.0568 20.0151 34.0568 19.2159C34.0568 18.4759 34.0568 17.7359 34.0568 16.9958C34.0568 16.2016 33.7516 15.8957 32.9542 15.8957C22.4156 15.8957 14.8702 15.8957 4.3316 15.8957C3.25854 15.8957 2.18057 15.8957 1.10751 15.8957C0.354401 15.8957 0 16.246 0 16.9909C0 17.7408 0 18.4857 0 19.2356C0 19.9954 0.339634 20.3358 1.09274 20.3407C1.47668 20.3407 1.86062 20.3407 2.23964 20.3407C2.50052 22.4275 4.00182 23.7546 5.72954 23.9273C6.64016 24.0161 7.49171 23.7892 8.24482 23.2613C9.24896 22.5558 9.8101 21.5839 9.92331 20.3358C10.0316 20.3407 10.1301 20.3407 10.2236 20.3407ZM6.08886 17.9184C7.18653 17.9283 8.14637 18.8952 8.14637 19.9855C8.14637 21.1153 7.20129 22.0625 6.07901 22.0526C4.9715 22.0477 4.02643 21.1005 4.02643 19.9904C4.0215 18.8755 4.98135 17.9085 6.08886 17.9184Z" fill="#748DB1"/>
</svg>
