<svg width="44" height="24" viewBox="0 0 44 24" fill="none" xmlns="http://www.w3.org/2000/svg">
<path d="M43.839 14.8685C43.7838 14.2784 43.7285 13.7053 43.6689 13.1323C43.5499 11.9007 43.4266 10.6648 43.3033 9.43314C43.1672 8.05184 43.0354 6.66627 42.8993 5.28497C42.8142 4.40829 42.7632 3.52306 42.6314 2.65066C42.5038 1.79109 42.1041 1.05982 41.3642 0.55947C40.569 0.0206347 39.6633 -0.02213 38.7491 0.00780524C27.8273 0.00780524 15.0105 0.00780524 3.29314 0.00780524C2.55324 -0.0264065 1.83037 0.0377405 1.20103 0.48677C0.380346 1.06837 0.00188989 1.87662 0.00188989 2.88159C0.00614216 6.80311 0.00188989 10.7204 0.00188989 14.6419C0.00188989 14.7103 0.00188989 14.783 0.00188989 14.8728C16.9472 14.8685 26.9108 14.8685 43.839 14.8685ZM3.64182 7.61564C3.57804 7.61564 3.51426 7.61564 3.45048 7.61564C3.19959 7.60709 3.1188 7.49163 3.21235 7.25642C3.43772 6.6791 3.67159 6.10605 3.90122 5.533C4.20313 4.78034 4.50929 4.02769 4.80269 3.27503C4.87923 3.07403 4.99404 2.99278 5.21516 2.99278C15.8246 2.99278 19.4693 2.99278 30.0745 2.99278C30.3806 2.99278 30.4189 3.03127 30.4189 3.33917C30.4146 4.63494 30.4061 5.93499 30.4019 7.23076C30.4019 7.59426 30.3764 7.61992 30.0149 7.61992C24.4402 7.61992 25.8216 7.61992 20.2469 7.61992C14.7105 7.61564 9.17827 7.61564 3.64182 7.61564ZM39.523 3.07403C40.3182 3.07403 40.6966 3.40332 40.7859 4.19874C41.0581 6.72614 41.326 9.25353 41.5896 11.7809C41.6491 12.3369 41.4408 12.7217 40.9773 12.9655C40.5776 13.1751 40.1268 13.0981 39.7186 12.7517C37.9539 11.2549 36.1935 9.7496 34.4245 8.26139C34.1694 8.04757 34.0546 7.80809 34.0546 7.47452C34.0418 6.22152 34.0078 4.96851 33.9823 3.71123C33.9738 3.22799 34.1226 3.07403 34.6116 3.06976C35.4493 3.06976 36.2828 3.06976 37.1205 3.06976C37.9241 3.07403 38.7236 3.07403 39.523 3.07403ZM34.6456 13.0382C34.433 13.0339 34.28 12.88 34.2885 12.6961C34.297 12.5122 34.4288 12.3839 34.6456 12.3796C35.0751 12.3754 35.5089 12.3754 35.9383 12.3796C36.1509 12.3839 36.2828 12.5122 36.2828 12.7046C36.287 12.8928 36.1382 13.0339 35.9213 13.0382C35.7087 13.0425 35.4961 13.0382 35.2835 13.0382C35.0666 13.0425 34.854 13.0468 34.6456 13.0382Z" fill="#748DB1"/>
<path d="M18.074 23.9817C18.8904 23.8962 19.6133 23.584 20.2086 23.0238C21.1739 22.1214 21.5736 20.9967 21.4205 19.6753C26.434 19.6753 24.4572 19.6753 29.4451 19.6753C29.5642 22.1899 31.5415 23.4172 33.1914 23.4343C34.7179 23.4514 36.8526 22.3139 36.9801 19.6625C37.0609 19.6625 37.146 19.6625 37.2268 19.6625C38.5875 19.6625 39.9482 19.6667 41.3089 19.6582C41.5598 19.6582 41.8192 19.6282 42.0658 19.5684C43.0566 19.3289 43.7582 18.7644 43.9368 17.7124C44.0729 16.9341 43.9581 16.1429 43.8816 15.3603C26.9278 15.3603 16.9557 15.3603 0.00188989 15.3603C0.00188989 15.7367 -0.00236237 16.1002 0.00188989 16.4637C0.0103944 16.7972 -0.015122 17.1393 0.0486619 17.4644C0.299545 18.7345 1.35411 19.5855 2.64254 19.5855C3.93098 19.5855 5.22367 19.5855 6.5121 19.5855C6.58864 19.5855 6.66093 19.5855 6.73747 19.5855C6.46533 21.5569 7.70699 23.306 9.47593 23.7893C11.062 24.2212 13.2902 23.5455 14.0726 21.1849C14.6084 23.1178 16.4071 24.1528 18.074 23.9817ZM33.2169 17.4772C34.3735 17.4644 35.3345 18.4351 35.3303 19.6111C35.326 20.7444 34.3565 21.7109 33.2169 21.7152C32.0773 21.7194 31.1205 20.7487 31.1163 19.5812C31.1163 18.4266 32.0518 17.4857 33.2169 17.4772ZM10.4369 22.2754C9.28883 22.2369 8.35333 21.279 8.37459 20.1543C8.39585 18.9782 9.35687 18.0331 10.5007 18.0502C11.6488 18.0673 12.5971 19.0552 12.5758 20.2056C12.5503 21.3517 11.5553 22.3139 10.4369 22.2754ZM17.6913 22.2754C16.4837 22.2454 15.6205 21.3346 15.6034 20.1585C15.5907 18.9953 16.573 18.0374 17.7211 18.0502C18.8649 18.0631 19.8047 19.0253 19.8004 20.1799C19.8004 21.3175 18.8181 22.3053 17.6913 22.2754Z" fill="#748DB1"/>
<path d="M8 2H9V9H8V2Z" fill="#748DB1"/>
<path d="M13 2H14V9H13V2Z" fill="#748DB1"/>
<path d="M19 2H20V9H19V2Z" fill="#748DB1"/>
<path d="M25 2H26V9H25V2Z" fill="#748DB1"/>
</svg>
