<svg width="53" height="21" viewBox="0 0 53 21" fill="none" xmlns="http://www.w3.org/2000/svg">
<path d="M38.7966 17.4292C38.9153 16.708 38.9747 16.0108 39.1528 15.3557C39.6872 13.3904 40.8627 12.0261 42.9109 11.6234C46.2594 10.9683 49.2635 13.745 48.9548 17.1768C48.9429 17.2849 48.9548 17.3931 48.9548 17.5133C49.78 17.3991 50.5578 17.2068 51.288 16.8162C52.0776 16.3894 52.5645 15.7283 52.7901 14.8629C53.1107 13.6308 53.0394 12.3867 52.7426 11.1787C52.3686 9.64609 51.3296 8.6424 49.97 7.95124C48.6401 7.27811 47.2034 6.97159 45.7429 6.85139C43.5878 6.6771 41.4208 6.59296 39.2597 6.47876C39.04 6.46674 38.8678 6.41265 38.7075 6.2624C36.9205 4.60361 34.9019 3.2934 32.6756 2.33179C30.6629 1.46633 28.5672 0.889358 26.418 0.528752C23.0933 -0.0301888 19.7448 -0.0842798 16.3904 0.0840034C13.2379 0.246276 10.1031 0.594863 6.97435 0.997541C5.8107 1.14779 4.64111 1.29204 3.41216 1.44229C3.82775 1.77285 4.19584 2.06133 4.58174 2.37386C4.17209 2.68638 3.77431 2.97487 3.38841 3.28739C2.28413 4.1829 1.33421 5.19861 0.823627 6.5629C0.764259 6.71917 0.734573 6.89346 0.734573 7.05573C0.722702 7.89715 0.728638 8.73255 0.728638 9.61003C0.526783 9.58599 0.360542 9.56796 0.129002 9.54392C0.0874405 10.0969 0.0280724 10.6438 0.0102615 11.1847C-0.0372353 12.4468 0.063694 13.6849 0.66333 14.8328C1.20953 15.8786 2.08227 16.4916 3.19249 16.744C3.82775 16.8883 4.49269 16.9123 5.18138 16.9965C5.217 15.0612 5.72758 13.4144 7.24152 12.2365C8.22705 11.4672 9.36102 11.1246 10.5959 11.1546C12.1633 11.1907 13.4813 11.7797 14.4728 13.0358C15.4524 14.2679 15.6958 15.7163 15.5889 17.2789C23.3486 17.321 31.0904 17.3751 38.7966 17.4292ZM22.7192 6.46674C22.5649 6.46674 22.464 6.46674 22.3571 6.46674C19.9942 6.46674 17.6312 6.46674 15.2683 6.46674C14.3362 6.46674 13.6238 5.87174 13.4338 4.95219C13.2616 4.11679 13.4813 3.37754 13.9978 2.73446C14.36 2.27769 14.8171 2.01926 15.4524 2.03128C17.6134 2.06734 19.7804 2.0433 21.9474 2.0433C22.0602 2.0433 22.173 2.0433 22.3036 2.0433C22.4461 3.53381 22.5827 4.98224 22.7192 6.46674ZM32.0997 6.77927C32.0344 6.78528 31.9928 6.79129 31.9572 6.79129C29.7843 6.68311 27.6113 6.57493 25.4384 6.47876C25.2484 6.47275 25.2187 6.36457 25.1772 6.22634C24.7794 4.91012 24.3697 3.59391 23.966 2.27769C23.9423 2.20557 23.9423 2.13345 23.9304 2.05532C25.8005 1.95315 27.6291 2.06133 29.428 2.53012C31.2151 2.99891 32.8596 3.77421 34.3498 4.88608C34.1717 4.91012 34.0055 4.88007 33.8392 4.8981C33.388 4.94017 32.9249 4.94017 32.4975 5.06639C32.0047 5.21063 31.8266 5.62533 31.9334 6.1422C31.9691 6.34654 32.0344 6.54487 32.0997 6.77927ZM2.37318 5.93184C2.56317 5.61932 2.68191 5.3128 2.8897 5.08442C3.47746 4.45336 4.10085 3.85835 4.7183 3.25133C4.77766 3.19123 4.8964 3.16118 4.98546 3.16719C5.34761 3.19724 5.71571 3.2333 6.07193 3.29941C6.60626 3.38957 7.06934 3.62396 7.2712 4.16487C7.479 4.72982 7.63335 5.3128 7.82334 5.92583C5.971 5.93184 4.20771 5.93184 2.37318 5.93184Z" fill="#FFA63A"/>
<path d="M5.9235 16.4555C5.96506 18.9377 7.94801 21.0473 10.4297 20.9992C12.9707 20.9571 14.9774 18.8175 14.9121 16.3233C14.8468 13.6608 12.656 11.7136 10.121 11.8218C7.84115 11.9179 5.8582 14.0755 5.9235 16.4555ZM7.53242 16.4015C7.53836 14.7607 8.81482 13.4385 10.3822 13.4445C12.0208 13.4445 13.321 14.7727 13.3091 16.4315C13.3032 18.0903 11.9852 19.4065 10.3525 19.3885C8.77325 19.3705 7.52055 18.0422 7.53242 16.4015Z" fill="#FFA63A"/>
<path d="M43.9796 12.3386C41.7176 12.3326 39.9543 14.1056 39.9424 16.4015C39.9306 18.6492 41.7414 20.4883 43.9737 20.4943C46.206 20.4943 48.0108 18.6793 48.0167 16.4135C48.0167 14.1296 46.2535 12.3446 43.9796 12.3386ZM43.9796 13.8712C45.351 13.8712 46.5028 15.0372 46.4969 16.4135C46.4909 17.7537 45.3154 18.9738 43.9855 18.9497C42.5903 18.9317 41.492 17.8319 41.4623 16.4015C41.4326 15.0251 42.6081 13.8712 43.9796 13.8712Z" fill="#FFA63A"/>
</svg>
