<svg width="40" height="40" viewBox="0 0 40 40" fill="none" xmlns="http://www.w3.org/2000/svg">
<rect width="40" height="40" rx="10" fill="url(#paint0_linear_2_11905)"/>
<path d="M30.9731 8.6027C30.2419 7.93099 27.2948 5.79734 20.7268 5.771C20.7268 5.771 12.9825 5.30564 9.20728 8.75635C7.10602 10.8505 6.37036 13.9149 6.29107 17.7124C6.21178 21.51 6.11046 28.6353 13.0001 30.5626H13.0089L13.0045 33.5085C13.0045 33.5085 12.9605 34.7026 13.749 34.9441C14.7005 35.2382 15.26 34.3338 16.1718 33.3548C16.6696 32.8192 17.3612 32.029 17.881 31.4275C22.5901 31.8226 26.2156 30.9182 26.6253 30.7865C27.5768 30.4792 32.9599 29.7899 33.8321 22.6734C34.7351 15.3373 33.3916 10.6968 30.9731 8.6027ZM31.7705 22.1466C31.0304 28.0953 26.6649 28.4685 25.8588 28.7275C25.5152 28.8373 22.3346 29.6275 18.3348 29.3641C18.3348 29.3641 15.3525 32.9509 14.423 33.8816C14.2776 34.0265 14.1058 34.0836 13.9913 34.0572C13.8327 34.0177 13.7886 33.8289 13.7886 33.5524C13.793 33.1572 13.8151 28.6573 13.8151 28.6573C7.98705 27.046 8.33066 20.9831 8.39673 17.809C8.46281 14.6349 9.06191 12.0359 10.8372 10.2885C14.0309 7.40855 20.6078 7.8388 20.6078 7.8388C26.1627 7.86075 28.8234 9.52464 29.4402 10.0866C31.4886 11.8339 32.5326 16.0178 31.7705 22.1466Z" fill="white"/>
<path d="M21.2284 14.8933C21.0213 14.8802 20.8495 15.0382 20.8363 15.2446C20.8275 15.4465 20.9817 15.6221 21.1887 15.6353C22.4001 15.6968 22.9948 16.3114 23.0565 17.5714C23.0653 17.7689 23.2283 17.9226 23.4266 17.9226C23.431 17.9226 23.4398 17.9226 23.4442 17.9226C23.6468 17.9138 23.8054 17.7382 23.7966 17.5363C23.7173 15.8855 22.8319 14.9768 21.2284 14.8933Z" fill="white"/>
<path d="M25.3269 18.5548C25.3313 18.5548 25.3313 18.5548 25.3357 18.5548C25.5384 18.5548 25.7014 18.3924 25.7058 18.1948C25.7366 16.7505 25.3005 15.5256 24.4019 14.5466C23.5076 13.5719 22.2522 13.0232 20.6707 12.909C20.4681 12.8958 20.2875 13.0451 20.2742 13.2514C20.261 13.4534 20.4108 13.6334 20.6178 13.6466C22.0231 13.7475 23.0803 14.2085 23.8512 15.0471C24.6265 15.89 24.9877 16.9129 24.9613 18.1773C24.9613 18.3792 25.1243 18.5505 25.3269 18.5548Z" fill="white"/>
<path d="M19.9955 10.9863C19.7885 10.9863 19.6211 11.1488 19.6211 11.3551C19.6211 11.5614 19.7841 11.7283 19.9911 11.7283C21.947 11.7414 23.6078 12.3956 24.9161 13.6688C26.2244 14.9419 26.8984 16.7156 26.916 18.9502C26.916 19.1521 27.0834 19.319 27.2861 19.319C27.2861 19.319 27.2861 19.319 27.2905 19.319C27.4975 19.319 27.6605 19.1521 27.6605 18.9458C27.6385 16.5048 26.8896 14.5512 25.4359 13.1375C23.9822 11.7239 22.1497 10.9995 19.9955 10.9863Z" fill="white"/>
<path d="M26.7908 23.1817C26.7864 23.1817 25.9406 22.4749 25.5265 22.1719C25.086 21.8602 24.6323 21.5705 24.1653 21.3071C23.5398 20.9602 22.9011 21.1754 22.6367 21.5178L22.0905 22.2027C21.8086 22.5495 21.2888 22.5056 21.2888 22.5056C17.4739 21.5354 16.4519 17.6807 16.4519 17.6807C16.4519 17.6807 16.4079 17.1627 16.7559 16.8817L17.4431 16.3373C17.7867 16.0739 18.0025 15.4373 17.6545 14.8139C17.3858 14.3486 17.0995 13.892 16.7867 13.4573C16.4827 13.0447 15.7779 12.1973 15.7735 12.1973C15.4343 11.7978 14.9321 11.7013 14.4035 11.9778C14.3991 11.9778 14.3947 11.9822 14.3903 11.9822C13.8661 12.2852 13.3903 12.6671 12.9851 13.1193C12.9806 13.1237 12.9806 13.1237 12.9762 13.1281C12.6503 13.5188 12.4608 13.9051 12.4168 14.2827C12.408 14.3398 12.4036 14.3969 12.408 14.4495C12.408 14.6164 12.43 14.7832 12.4829 14.9412L12.5005 14.9544C12.6635 15.5383 13.0776 16.5086 13.9718 18.1285C14.4828 19.0637 15.0775 19.9549 15.7383 20.7934C16.0687 21.2149 16.4255 21.6144 16.8043 21.9919C16.8175 22.0051 16.8308 22.0183 16.844 22.0315L16.8836 22.071L16.9233 22.1105L16.9629 22.15C17.3418 22.5276 17.747 22.8832 18.1655 23.2124C19.0069 23.8754 19.9011 24.4636 20.8394 24.9729C22.4649 25.8641 23.4385 26.2768 24.0244 26.4392L24.0376 26.4568C24.1962 26.5095 24.3636 26.5358 24.531 26.5314C24.5882 26.5358 24.6455 26.5314 24.6984 26.5227C25.0772 26.4788 25.4649 26.29 25.8569 25.9651C25.8613 25.9607 25.8613 25.9607 25.8657 25.9563C26.3195 25.5524 26.7027 25.0827 27.0067 24.5558C27.0067 24.5515 27.0111 24.5471 27.0111 24.5427C27.2886 24.0202 27.1961 23.5197 26.7908 23.1817Z" fill="white"/>
<defs>
<linearGradient id="paint0_linear_2_11905" x1="20" y1="0" x2="20" y2="40" gradientUnits="userSpaceOnUse">
<stop stop-color="#A55CEE"/>
<stop offset="1" stop-color="#854ABA"/>
</linearGradient>
</defs>
</svg>
