<svg width="40" height="40" viewBox="0 0 40 40" fill="none" xmlns="http://www.w3.org/2000/svg">
<rect width="40" height="40" rx="10" fill="url(#paint0_linear_2_11895)"/>
<path d="M29.2992 10.7798C26.8491 8.35081 23.5865 7 20.1114 7C12.9487 7 7.12344 12.775 7.12344 19.8761C7.12344 22.1439 7.72346 24.3622 8.861 26.3203L7.02344 33L13.9112 31.2031C15.8113 32.2316 17.9488 32.7645 20.1239 32.7769C27.2867 32.7769 33.1119 27.0019 33.1119 19.9009C33.0994 16.4433 31.7493 13.2088 29.2992 10.7798ZM20.1114 30.5958C18.1738 30.5958 16.2738 30.0753 14.6112 29.1087L14.2112 28.8732L10.1235 29.939L11.2111 25.9857L10.9486 25.5767C9.87354 23.8665 9.29852 21.9085 9.29852 19.8761C9.29852 13.9771 14.1487 9.16873 20.0989 9.16873C22.9865 9.16873 25.6991 10.2841 27.7367 12.3041C29.7743 14.3241 30.8993 17.0133 30.8993 19.8761C30.8993 25.7874 26.0616 30.5958 20.1114 30.5958ZM26.0241 22.5777C25.6991 22.4166 24.099 21.6358 23.8115 21.5367C23.5115 21.4252 23.299 21.3756 23.0865 21.6978C22.874 22.02 22.249 22.7388 22.0615 22.9619C21.874 23.1725 21.6865 23.1973 21.3615 23.0362C21.0364 22.8751 19.9864 22.5405 18.7489 21.4376C17.7863 20.5825 17.1363 19.5291 16.9488 19.2069C16.7613 18.8847 16.9238 18.7112 17.0863 18.55C17.2363 18.4013 17.4113 18.1783 17.5738 17.98C17.7363 17.7817 17.7863 17.6578 17.8988 17.4471C18.0113 17.2364 17.9488 17.0381 17.8738 16.8894C17.7988 16.7283 17.1488 15.142 16.8738 14.4976C16.6113 13.8656 16.3488 13.9523 16.1488 13.9399C15.9613 13.9275 15.7488 13.9276 15.5237 13.9276C15.3112 13.9276 14.9612 14.0143 14.6612 14.3365C14.3612 14.6587 13.5237 15.4395 13.5237 17.0257C13.5237 18.612 14.6862 20.1363 14.8487 20.3594C15.0112 20.5701 17.1363 23.8294 20.3989 25.2174C21.1739 25.552 21.774 25.7502 22.249 25.899C23.024 26.1468 23.7365 26.1096 24.2991 26.0229C24.9241 25.9361 26.2241 25.2421 26.4866 24.4986C26.7616 23.7426 26.7616 23.0982 26.6741 22.9619C26.5741 22.8132 26.3491 22.7388 26.0241 22.5777Z" fill="white"/>
<defs>
<linearGradient id="paint0_linear_2_11895" x1="20" y1="0" x2="20" y2="40" gradientUnits="userSpaceOnUse">
<stop stop-color="#A6F7A5"/>
<stop offset="1" stop-color="#49D035"/>
</linearGradient>
</defs>
</svg>
