<svg width="24" height="20" viewBox="0 0 24 20" fill="none" xmlns="http://www.w3.org/2000/svg">
<path d="M9.0077 18.7957C8.29171 18.7957 8.42022 18.5212 8.1632 17.8443L6.07031 10.9648L22.2259 1.41406" fill="#C8DAEA"/>
<path d="M9.00781 18.796C9.55857 18.796 9.79723 18.5398 10.1093 18.2471L13.0467 15.3928L9.37499 13.1973" fill="#A9C9DD"/>
<path d="M9.37643 13.1977L18.262 19.7295C19.2717 20.2784 20.0061 20.0039 20.2631 18.7964L23.8798 1.83558C24.2469 0.353574 23.3106 -0.305098 22.3376 0.134017L1.11503 8.27593C-0.335302 8.86141 -0.316944 9.66646 0.85801 10.0141L6.31053 11.7157L18.9229 3.7933C19.5104 3.42737 20.0612 3.62863 19.6206 4.03116" fill="url(#paint0_linear_2_7105)"/>
<defs>
<linearGradient id="paint0_linear_2_7105" x1="14.5973" y1="9.26862" x2="18.0159" y2="17.084" gradientUnits="userSpaceOnUse">
<stop stop-color="#EFF7FC"/>
<stop offset="1" stop-color="white"/>
</linearGradient>
</defs>
</svg>
