<svg width="28" height="30" viewBox="0 0 28 30" fill="none" xmlns="http://www.w3.org/2000/svg">
<path d="M24.6997 2.8527C23.9685 2.18099 21.0214 0.0473406 14.4533 0.0209992C14.4533 0.0209992 6.70906 -0.444365 2.93384 3.00635C0.832586 5.10049 0.0969251 8.16487 0.0176324 11.9624C-0.0616604 15.76 -0.162979 22.8853 6.72668 24.8126H6.73549L6.73109 27.7585C6.73109 27.7585 6.68704 28.9526 7.47556 29.1941C8.42707 29.4882 8.98653 28.5838 9.89839 27.6048C10.3962 27.0692 11.0878 26.279 11.6076 25.6775C16.3167 26.0726 19.9421 25.1682 20.3518 25.0365C21.3033 24.7292 26.6864 24.0399 27.5587 16.9234C28.4617 9.58731 27.1181 4.94684 24.6997 2.8527ZM25.497 16.3966C24.757 22.3453 20.3915 22.7185 19.5853 22.9775C19.2417 23.0873 16.0612 23.8775 12.0613 23.6141C12.0613 23.6141 9.07903 27.2009 8.14955 28.1316C8.00418 28.2765 7.83238 28.3336 7.71784 28.3072C7.55926 28.2677 7.5152 28.0789 7.5152 27.8024C7.51961 27.4072 7.54163 22.9073 7.54163 22.9073C1.71362 21.296 2.05722 15.2331 2.1233 12.059C2.18937 8.88487 2.78847 6.28585 4.56375 4.53854C7.75749 1.65855 14.3344 2.0888 14.3344 2.0888C19.8893 2.11075 22.55 3.77464 23.1667 4.33659C25.2151 6.0839 26.2591 10.2678 25.497 16.3966Z" fill="white"/>
<path d="M14.9549 9.14335C14.7479 9.13017 14.5761 9.28822 14.5629 9.49456C14.554 9.69651 14.7082 9.87212 14.9153 9.88529C16.1267 9.94676 16.7214 10.5614 16.7831 11.8214C16.7919 12.0189 16.9549 12.1726 17.1531 12.1726C17.1575 12.1726 17.1663 12.1726 17.1707 12.1726C17.3734 12.1638 17.532 11.9882 17.5232 11.7863C17.4439 10.1355 16.5584 9.22676 14.9549 9.14335Z" fill="white"/>
<path d="M19.0535 12.8048C19.0579 12.8048 19.0579 12.8048 19.0623 12.8048C19.2649 12.8048 19.4279 12.6424 19.4323 12.4448C19.4632 11.0005 19.0271 9.77559 18.1284 8.79657C17.2342 7.82194 15.9787 7.27316 14.3973 7.15901C14.1946 7.14584 14.014 7.29511 14.0008 7.50145C13.9876 7.7034 14.1374 7.8834 14.3444 7.89657C15.7496 7.99754 16.8069 8.45852 17.5778 9.29705C18.3531 10.14 18.7143 11.1629 18.6879 12.4273C18.6879 12.6292 18.8509 12.8005 19.0535 12.8048Z" fill="white"/>
<path d="M13.7182 5.23633C13.5111 5.23633 13.3438 5.39877 13.3438 5.60511C13.3438 5.81145 13.5067 5.97827 13.7138 5.97827C15.6697 5.99145 17.3304 6.64559 18.6388 7.91875C19.9471 9.19191 20.6211 10.9656 20.6387 13.2002C20.6387 13.4021 20.8061 13.569 21.0087 13.569C21.0087 13.569 21.0087 13.569 21.0131 13.569C21.2202 13.569 21.3832 13.4021 21.3832 13.1958C21.3611 10.7548 20.6123 8.80118 19.1586 7.38753C17.7049 5.97388 15.8723 5.2495 13.7182 5.23633Z" fill="white"/>
<path d="M20.5174 17.4317C20.513 17.4317 19.6672 16.7249 19.2531 16.4219C18.8126 16.1102 18.3588 15.8205 17.8919 15.5571C17.2664 15.2102 16.6276 15.4254 16.3633 15.7678L15.8171 16.4527C15.5351 16.7995 15.0153 16.7556 15.0153 16.7556C11.2005 15.7854 10.1785 11.9307 10.1785 11.9307C10.1785 11.9307 10.1344 11.4127 10.4824 11.1317L11.1696 10.5873C11.5132 10.3239 11.7291 9.68734 11.3811 9.06392C11.1124 8.59856 10.826 8.14198 10.5133 7.70734C10.2093 7.29466 9.50448 6.44735 9.50008 6.44735C9.16088 6.04784 8.65869 5.95125 8.13008 6.22784C8.12567 6.22784 8.12127 6.23223 8.11686 6.23223C7.59265 6.53515 7.11689 6.9171 6.71162 7.3693C6.70721 7.37369 6.70721 7.37369 6.70281 7.37808C6.37682 7.76881 6.1874 8.15515 6.14335 8.53271C6.13454 8.58978 6.13014 8.64685 6.13454 8.69954C6.13454 8.86636 6.15657 9.03319 6.20943 9.19124L6.22705 9.20441C6.39004 9.78831 6.80412 10.7586 7.69837 12.3785C8.20937 13.3137 8.80406 14.2049 9.46484 15.0434C9.79522 15.4649 10.152 15.8644 10.5309 16.2419C10.5441 16.2551 10.5573 16.2683 10.5705 16.2815L10.6102 16.321L10.6498 16.3605L10.6895 16.4C11.0683 16.7776 11.4736 17.1332 11.8921 17.4624C12.7335 18.1254 13.6277 18.7136 14.566 19.2229C16.1915 20.1141 17.165 20.5268 17.7509 20.6892L17.7641 20.7068C17.9227 20.7595 18.0901 20.7858 18.2575 20.7814C18.3148 20.7858 18.3721 20.7814 18.4249 20.7727C18.8038 20.7288 19.1914 20.54 19.5835 20.2151C19.5879 20.2107 19.5879 20.2107 19.5923 20.2063C20.046 19.8024 20.4293 19.3327 20.7332 18.8058C20.7332 18.8015 20.7376 18.7971 20.7376 18.7927C21.0152 18.2702 20.9226 17.7697 20.5174 17.4317Z" fill="white"/>
</svg>
