<svg width="45" height="45" viewBox="0 0 45 45" fill="none" xmlns="http://www.w3.org/2000/svg">
<path d="M6.957 6.00323C6.957 5.22304 6.90498 4.47257 6.96443 3.74439C7.12789 1.9611 8.63626 0.586485 10.4567 0.512182C12.2474 0.437878 13.8895 1.72333 14.1645 3.49176C14.2833 4.24223 14.2239 5.02242 14.2536 5.78775C14.2536 5.84719 14.2611 5.90663 14.2685 5.98094C15.7917 5.98094 17.2926 5.98094 18.8456 5.98094C18.8456 5.38651 18.8456 4.80694 18.8456 4.2348C18.8456 2.26575 20.2722 0.68308 22.1744 0.519612C24.0691 0.356144 25.7484 1.64903 26.1051 3.5512C26.1497 3.78898 26.1497 4.04161 26.1497 4.29424C26.1571 4.85152 26.1497 5.40137 26.1497 6.00323C26.9298 6.00323 27.6803 6.00323 28.4382 6.00323C29.1887 6.00323 29.9466 6.00323 30.7416 6.00323C30.7416 5.37908 30.7416 4.77722 30.7416 4.16793C30.7491 2.57783 31.767 1.18835 33.2754 0.68308C35.4673 -0.0376662 37.8079 1.44841 38.0308 3.75926C38.0977 4.48 38.0383 5.21561 38.0383 5.9958C38.4469 5.9958 38.7887 6.00323 39.1305 5.9958C40.0667 5.97351 40.9881 6.01066 41.85 6.44162C43.455 7.2441 44.3244 8.55185 44.4804 10.3351C44.4953 10.4837 44.4878 10.6324 44.4878 10.781C44.4878 18.8578 44.4878 26.9272 44.4952 35.004C44.4952 35.5018 44.3392 35.8733 43.99 36.2226C41.3894 38.8083 38.7962 41.4015 36.2178 43.9947C35.8686 44.344 35.5045 44.5 35.0067 44.5C25.0871 44.4926 15.1676 44.4926 5.24801 44.4926C2.94459 44.4926 1.14644 43.1031 0.626316 40.9111C0.537152 40.5396 0.50743 40.1532 0.50743 39.7743C0.5 30.0925 0.5 20.4033 0.5 10.7215C0.5 8.00943 2.49877 6.01066 5.21086 6.00323C5.75327 6.00323 6.29569 6.00323 6.957 6.00323ZM2.35016 17.015C2.35016 17.1488 2.35016 17.2528 2.35016 17.3494C2.35016 24.8764 2.35016 32.4108 2.35016 39.9378C2.35016 41.461 3.56131 42.6424 5.10683 42.6424C14.7292 42.6424 24.3515 42.6424 33.9738 42.6424C34.1076 42.6424 34.2339 42.6424 34.3899 42.6424C34.3899 42.4566 34.3899 42.3229 34.3899 42.1892C34.3899 40.6065 34.3899 39.0164 34.3899 37.4337C34.3899 35.5464 35.5416 34.4021 37.4215 34.3947C39.0191 34.3947 40.6166 34.3947 42.2141 34.3947C42.3479 34.3947 42.4742 34.3947 42.6079 34.3947C42.6079 28.5693 42.6079 22.7959 42.6079 17.015C29.1887 17.015 15.7917 17.015 2.35016 17.015ZM42.6228 15.1352C42.6302 15.0534 42.6377 15.0163 42.6377 14.9791C42.6377 13.5451 42.6377 12.1036 42.6377 10.6695C42.6377 9.01996 41.4637 7.85339 39.8067 7.85339C38.3578 7.85339 36.9088 7.86082 35.4599 7.85339C34.8135 7.84596 34.3825 7.45215 34.4048 6.9023C34.4197 6.35989 34.8358 6.01066 35.4673 6.00323C35.72 6.00323 35.9726 6.00323 36.2401 6.00323C36.2401 5.32706 36.2624 4.70291 36.2327 4.08619C36.1881 3.07566 35.3633 2.33262 34.3379 2.35491C33.3645 2.37721 32.5992 3.16483 32.5918 4.1605C32.5844 5.70601 32.5844 7.25896 32.5918 8.80448C32.5992 9.68869 33.2308 10.4317 34.1076 10.5506C34.5237 10.6026 34.9472 10.5878 35.3633 10.6026C35.8537 10.6249 36.2252 11.0113 36.2327 11.4943C36.2401 11.9847 35.8612 12.3934 35.3559 12.4156C35.0587 12.4305 34.7615 12.4156 34.4642 12.4156C32.3317 12.4156 30.7416 10.8181 30.7342 8.67816C30.7342 8.41067 30.7342 8.14318 30.7342 7.86082C30.5336 7.86082 30.385 7.86082 30.2364 7.86082C28.141 7.86082 26.0531 7.86082 23.9577 7.86082C23.7719 7.86082 23.5862 7.86825 23.4004 7.85339C22.8357 7.80138 22.4568 7.39271 22.4865 6.88001C22.5162 6.38218 22.91 6.02552 23.4599 6.01066C23.7422 6.00323 24.0171 6.01066 24.3069 6.01066C24.3069 5.31963 24.3143 4.67319 24.2995 4.03418C24.2921 3.84099 24.24 3.64037 24.1583 3.46204C23.8388 2.65956 22.9917 2.21374 22.1373 2.37721C21.2753 2.54067 20.666 3.28371 20.6512 4.25709C20.6363 5.7283 20.6289 7.20695 20.6512 8.67816C20.666 9.82987 21.4239 10.558 22.5831 10.6026C22.8803 10.6101 23.1775 10.5952 23.4747 10.6101C23.9577 10.6324 24.3218 11.0336 24.3218 11.5166C24.3144 11.9995 23.9503 12.3934 23.4599 12.4156C23.1404 12.4305 22.8134 12.4231 22.4939 12.4156C20.4506 12.4082 18.8382 10.8107 18.8307 8.76733C18.8307 8.47754 18.8307 8.18033 18.8307 7.86082C18.645 7.86082 18.5112 7.86082 18.3775 7.86082C16.8022 7.86082 15.2344 7.86082 13.6592 7.86082C12.9682 7.86082 12.2697 7.87568 11.5787 7.85339C10.9545 7.83853 10.5682 7.45215 10.583 6.89487C10.5979 6.35989 10.9917 6.01809 11.6084 6.01066C11.861 6.01066 12.1211 6.01066 12.3886 6.01066C12.3886 5.36422 12.396 4.76979 12.3886 4.17536C12.3812 3.16483 11.6084 2.37721 10.6127 2.36234C9.58735 2.34748 8.75515 3.11281 8.74772 4.12334C8.72542 5.68372 8.73285 7.2441 8.74772 8.80448C8.75515 9.70356 9.41645 10.4392 10.3081 10.558C10.7093 10.6101 11.1254 10.5878 11.5341 10.6026C12.0319 10.6249 12.3886 10.9964 12.4035 11.4868C12.4109 11.9995 12.0542 12.3859 11.5415 12.4082C11.2592 12.4231 10.9694 12.4082 10.687 12.4082C8.61397 12.4082 7.08331 10.9964 6.92727 8.93823C6.89755 8.589 6.91984 8.23234 6.91984 7.85339C6.2734 7.85339 5.70869 7.85339 5.14398 7.85339C3.53159 7.85339 2.35016 9.02739 2.35016 10.6324C2.35016 11.9921 2.35016 13.3593 2.35016 14.7191C2.35016 14.8528 2.35016 14.9866 2.35016 15.1352C15.7917 15.1352 29.1961 15.1352 42.6228 15.1352ZM41.2407 36.2449C41.159 36.2449 41.0698 36.2449 40.9733 36.2449C39.7472 36.2449 38.5287 36.2449 37.3026 36.2449C36.5893 36.2449 36.2401 36.6015 36.2401 37.3223C36.2401 38.5334 36.2401 39.7446 36.2401 40.9557C36.2401 41.0597 36.255 41.1638 36.255 41.2232C37.9194 39.5737 39.5689 37.9167 41.2407 36.2449Z" fill="#3A62FF"/>
<path d="M22.4865 39.9006C16.9211 39.9006 12.3589 35.3458 12.396 29.8176C12.4332 24.2299 16.9434 19.7494 22.5088 19.7494C28.037 19.7494 32.5472 24.2671 32.5769 29.825C32.6215 35.3606 28.0667 39.9006 22.4865 39.9006ZM22.5088 21.5996C17.954 21.5996 14.2536 25.2628 14.2462 29.773C14.2388 34.3798 17.9688 38.1247 22.5088 38.0802C27.0784 38.0356 30.7416 34.3575 30.7416 29.8101C30.7416 25.2776 27.0487 21.5996 22.5088 21.5996Z" fill="#3A62FF"/>
<path d="M21.1119 31.2814C22.6945 29.6987 24.2475 28.1457 25.793 26.5928C26.0456 26.3402 26.3131 26.1247 26.6995 26.1693C27.0487 26.2064 27.3014 26.3847 27.45 26.7043C27.606 27.0386 27.554 27.3581 27.3385 27.6479C27.2642 27.7445 27.175 27.8337 27.0859 27.9228C25.3769 29.6318 23.6753 31.3408 21.9664 33.0424C21.3496 33.6591 20.9112 33.6591 20.2945 33.0498C19.4549 32.2102 18.6153 31.3705 17.7756 30.5309C17.4933 30.2485 17.3744 29.9067 17.5304 29.5129C17.6716 29.1563 17.9391 28.9557 18.318 28.9259C18.6673 28.8962 18.9273 29.0745 19.1651 29.3123C19.7967 29.9588 20.4431 30.6052 21.1119 31.2814Z" fill="#3A62FF"/>
<path d="M6.957 6.00323C6.957 5.22304 6.90498 4.47257 6.96443 3.74439C7.12789 1.9611 8.63626 0.586485 10.4567 0.512182C12.2474 0.437878 13.8895 1.72333 14.1645 3.49176C14.2833 4.24223 14.2239 5.02242 14.2536 5.78775C14.2536 5.84719 14.2611 5.90663 14.2685 5.98094C15.7917 5.98094 17.2926 5.98094 18.8456 5.98094C18.8456 5.38651 18.8456 4.80694 18.8456 4.2348C18.8456 2.26575 20.2722 0.68308 22.1744 0.519612C24.0691 0.356144 25.7484 1.64903 26.1051 3.5512C26.1497 3.78898 26.1497 4.04161 26.1497 4.29424C26.1571 4.85152 26.1497 5.40137 26.1497 6.00323C26.9298 6.00323 27.6803 6.00323 28.4382 6.00323C29.1887 6.00323 29.9466 6.00323 30.7416 6.00323C30.7416 5.37908 30.7416 4.77722 30.7416 4.16793C30.7491 2.57783 31.767 1.18835 33.2754 0.68308C35.4673 -0.0376662 37.8079 1.44841 38.0308 3.75926C38.0977 4.48 38.0383 5.21561 38.0383 5.9958C38.4469 5.9958 38.7887 6.00323 39.1305 5.9958C40.0667 5.97351 40.9881 6.01066 41.85 6.44162C43.455 7.2441 44.3244 8.55185 44.4804 10.3351C44.4953 10.4837 44.4878 10.6324 44.4878 10.781C44.4878 18.8578 44.4878 26.9272 44.4952 35.004C44.4952 35.5018 44.3392 35.8733 43.99 36.2226C41.3894 38.8083 38.7962 41.4015 36.2178 43.9947C35.8686 44.344 35.5045 44.5 35.0067 44.5C25.0871 44.4926 15.1676 44.4926 5.24801 44.4926C2.94459 44.4926 1.14644 43.1031 0.626316 40.9111C0.537152 40.5396 0.50743 40.1532 0.50743 39.7743C0.5 30.0925 0.5 20.4033 0.5 10.7215C0.5 8.00943 2.49877 6.01066 5.21086 6.00323C5.75327 6.00323 6.29569 6.00323 6.957 6.00323ZM2.35016 17.015C2.35016 17.1488 2.35016 17.2528 2.35016 17.3494C2.35016 24.8764 2.35016 32.4108 2.35016 39.9378C2.35016 41.461 3.56131 42.6424 5.10683 42.6424C14.7292 42.6424 24.3515 42.6424 33.9738 42.6424C34.1076 42.6424 34.2339 42.6424 34.3899 42.6424C34.3899 42.4566 34.3899 42.3229 34.3899 42.1892C34.3899 40.6065 34.3899 39.0164 34.3899 37.4337C34.3899 35.5464 35.5416 34.4021 37.4215 34.3947C39.0191 34.3947 40.6166 34.3947 42.2141 34.3947C42.3479 34.3947 42.4742 34.3947 42.6079 34.3947C42.6079 28.5693 42.6079 22.7959 42.6079 17.015C29.1887 17.015 15.7917 17.015 2.35016 17.015ZM42.6228 15.1352C42.6302 15.0534 42.6377 15.0163 42.6377 14.9791C42.6377 13.5451 42.6377 12.1036 42.6377 10.6695C42.6377 9.01996 41.4637 7.85339 39.8067 7.85339C38.3578 7.85339 36.9088 7.86082 35.4599 7.85339C34.8135 7.84596 34.3825 7.45215 34.4048 6.9023C34.4197 6.35989 34.8358 6.01066 35.4673 6.00323C35.72 6.00323 35.9726 6.00323 36.2401 6.00323C36.2401 5.32706 36.2624 4.70291 36.2327 4.08619C36.1881 3.07566 35.3633 2.33262 34.3379 2.35491C33.3645 2.37721 32.5992 3.16483 32.5918 4.1605C32.5844 5.70601 32.5844 7.25896 32.5918 8.80448C32.5992 9.68869 33.2308 10.4317 34.1076 10.5506C34.5237 10.6026 34.9472 10.5878 35.3633 10.6026C35.8537 10.6249 36.2252 11.0113 36.2327 11.4943C36.2401 11.9847 35.8612 12.3934 35.3559 12.4156C35.0587 12.4305 34.7615 12.4156 34.4642 12.4156C32.3317 12.4156 30.7416 10.8181 30.7342 8.67816C30.7342 8.41067 30.7342 8.14318 30.7342 7.86082C30.5336 7.86082 30.385 7.86082 30.2364 7.86082C28.141 7.86082 26.0531 7.86082 23.9577 7.86082C23.7719 7.86082 23.5862 7.86825 23.4004 7.85339C22.8357 7.80138 22.4568 7.39271 22.4865 6.88001C22.5162 6.38218 22.91 6.02552 23.4599 6.01066C23.7422 6.00323 24.0171 6.01066 24.3069 6.01066C24.3069 5.31963 24.3143 4.67319 24.2995 4.03418C24.2921 3.84099 24.24 3.64037 24.1583 3.46204C23.8388 2.65956 22.9917 2.21374 22.1373 2.37721C21.2753 2.54067 20.666 3.28371 20.6512 4.25709C20.6363 5.7283 20.6289 7.20695 20.6512 8.67816C20.666 9.82987 21.4239 10.558 22.5831 10.6026C22.8803 10.6101 23.1775 10.5952 23.4747 10.6101C23.9577 10.6324 24.3218 11.0336 24.3218 11.5166C24.3144 11.9995 23.9503 12.3934 23.4599 12.4156C23.1404 12.4305 22.8134 12.4231 22.4939 12.4156C20.4506 12.4082 18.8382 10.8107 18.8307 8.76733C18.8307 8.47754 18.8307 8.18033 18.8307 7.86082C18.645 7.86082 18.5112 7.86082 18.3775 7.86082C16.8022 7.86082 15.2344 7.86082 13.6592 7.86082C12.9682 7.86082 12.2697 7.87568 11.5787 7.85339C10.9545 7.83853 10.5682 7.45215 10.583 6.89487C10.5979 6.35989 10.9917 6.01809 11.6084 6.01066C11.861 6.01066 12.1211 6.01066 12.3886 6.01066C12.3886 5.36422 12.396 4.76979 12.3886 4.17536C12.3812 3.16483 11.6084 2.37721 10.6127 2.36234C9.58735 2.34748 8.75515 3.11281 8.74772 4.12334C8.72542 5.68372 8.73285 7.2441 8.74772 8.80448C8.75515 9.70356 9.41645 10.4392 10.3081 10.558C10.7093 10.6101 11.1254 10.5878 11.5341 10.6026C12.0319 10.6249 12.3886 10.9964 12.4035 11.4868C12.4109 11.9995 12.0542 12.3859 11.5415 12.4082C11.2592 12.4231 10.9694 12.4082 10.687 12.4082C8.61397 12.4082 7.08331 10.9964 6.92727 8.93823C6.89755 8.589 6.91984 8.23234 6.91984 7.85339C6.2734 7.85339 5.70869 7.85339 5.14398 7.85339C3.53159 7.85339 2.35016 9.02739 2.35016 10.6324C2.35016 11.9921 2.35016 13.3593 2.35016 14.7191C2.35016 14.8528 2.35016 14.9866 2.35016 15.1352C15.7917 15.1352 29.1961 15.1352 42.6228 15.1352ZM41.2407 36.2449C41.159 36.2449 41.0698 36.2449 40.9733 36.2449C39.7472 36.2449 38.5287 36.2449 37.3026 36.2449C36.5893 36.2449 36.2401 36.6015 36.2401 37.3223C36.2401 38.5334 36.2401 39.7446 36.2401 40.9557C36.2401 41.0597 36.255 41.1638 36.255 41.2232C37.9194 39.5737 39.5689 37.9167 41.2407 36.2449Z" stroke="#3A62FF"/>
<path d="M22.4865 39.9006C16.9211 39.9006 12.3589 35.3458 12.396 29.8176C12.4332 24.2299 16.9434 19.7494 22.5088 19.7494C28.037 19.7494 32.5472 24.2671 32.5769 29.825C32.6215 35.3606 28.0667 39.9006 22.4865 39.9006ZM22.5088 21.5996C17.954 21.5996 14.2536 25.2628 14.2462 29.773C14.2388 34.3798 17.9688 38.1247 22.5088 38.0802C27.0784 38.0356 30.7416 34.3575 30.7416 29.8101C30.7416 25.2776 27.0487 21.5996 22.5088 21.5996Z" stroke="#3A62FF"/>
<path d="M21.1119 31.2814C22.6945 29.6987 24.2475 28.1457 25.793 26.5928C26.0456 26.3402 26.3131 26.1247 26.6995 26.1693C27.0487 26.2064 27.3014 26.3847 27.45 26.7043C27.606 27.0386 27.554 27.3581 27.3385 27.6479C27.2642 27.7445 27.175 27.8337 27.0859 27.9228C25.3769 29.6318 23.6753 31.3408 21.9664 33.0424C21.3496 33.6591 20.9112 33.6591 20.2945 33.0498C19.4549 32.2102 18.6153 31.3705 17.7756 30.5309C17.4933 30.2485 17.3744 29.9067 17.5304 29.5129C17.6716 29.1563 17.9391 28.9557 18.318 28.9259C18.6673 28.8962 18.9273 29.0745 19.1651 29.3123C19.7967 29.9588 20.4431 30.6052 21.1119 31.2814Z" stroke="#3A62FF"/>
</svg>
