<svg width="54" height="49" viewBox="0 0 54 49" fill="none" xmlns="http://www.w3.org/2000/svg">
<path d="M19.7626 47.3958C19.9386 46.3655 20.1353 45.2415 20.3217 44.1175C20.4563 43.3161 20.5806 42.5147 20.7359 41.7134C20.798 41.4116 20.7462 41.2138 20.5081 40.9953C19.1827 39.7256 17.8885 38.4351 16.5735 37.1549C16.2525 36.8427 16.035 36.5097 16.1593 36.0518C16.2939 35.573 16.6874 35.4169 17.1429 35.3545C18.9135 35.1047 20.6841 34.8237 22.465 34.5843C22.8378 34.5323 23.0345 34.397 23.2002 34.064C23.9768 32.4404 24.7947 30.8377 25.5817 29.2245C25.7784 28.8187 26.0165 28.4544 26.5239 28.4544C27.0209 28.4544 27.2694 28.777 27.4765 29.2037C28.2738 30.8377 29.0918 32.4508 29.889 34.0952C30.0444 34.4178 30.2307 34.5427 30.5828 34.5947C32.3948 34.8341 34.1964 35.1151 35.9981 35.3753C36.464 35.4377 36.8368 35.6043 36.9714 36.0934C37.106 36.5617 36.8575 36.8844 36.5468 37.1862C35.2422 38.4455 33.9479 39.7256 32.6329 40.9744C32.3948 41.2034 32.3119 41.4116 32.3741 41.7342C32.6847 43.441 32.9643 45.1478 33.2542 46.8546C33.2749 46.9899 33.2956 47.1252 33.3163 47.2605C33.3784 47.6768 33.3267 48.0723 32.9435 48.322C32.5708 48.5614 32.198 48.4886 31.8149 48.2908C30.1686 47.4166 28.5326 46.5424 26.8759 45.689C26.6896 45.5953 26.3789 45.5953 26.1926 45.689C24.5255 46.5424 22.8689 47.4374 21.2018 48.3116C20.4563 48.7071 19.7522 48.3012 19.7626 47.3958ZM19.1517 36.9364C19.0999 37.0092 19.0481 37.0821 18.9964 37.1549C19.162 37.2486 19.3691 37.3007 19.5037 37.4359C20.4356 38.331 21.3468 39.2572 22.289 40.1523C22.6307 40.4853 22.7653 40.8287 22.6825 41.3075C22.4754 42.4523 22.289 43.5971 22.1026 44.7419C22.0405 45.0854 21.9991 45.4288 21.937 45.8659C23.2934 45.1478 24.5669 44.5129 25.8095 43.8052C26.3789 43.4826 26.8552 43.5242 27.404 43.8365C28.6362 44.5234 29.889 45.1582 31.1937 45.8555C31.1833 45.6369 31.1833 45.4808 31.1626 45.3351C30.9452 44.0342 30.7381 42.7333 30.4792 41.4532C30.3653 40.9016 30.4792 40.4957 30.9038 40.1106C31.5768 39.507 32.198 38.8618 32.84 38.2373C33.2438 37.8418 33.658 37.4672 34.1343 37.0196C33.9272 36.9468 33.8547 36.9156 33.7719 36.9052C32.488 36.7178 31.2144 36.5201 29.9305 36.364C29.2574 36.2807 28.7501 36.0622 28.4912 35.3857C28.3566 35.011 28.1599 34.6676 27.9839 34.3137C27.5283 33.3875 27.0727 32.4716 26.586 31.4829C25.8923 32.8879 25.2193 34.2201 24.5669 35.5522C24.3495 35.9893 24.0492 36.2599 23.5522 36.312C22.931 36.3744 22.3201 36.4889 21.7092 36.5721C20.8394 36.6866 19.9904 36.8115 19.1517 36.9364Z" fill="#3A62FF"/>
<path d="M39.7463 31.8368C39.7463 32.4716 39.4046 32.8775 38.918 32.9192C38.3795 32.9504 37.9757 32.5965 37.9032 31.9721C37.7169 30.4734 37.5305 28.9852 37.3752 27.4865C37.1577 25.4779 36.961 23.4589 36.7332 21.4398C36.4329 18.8172 34.0722 16.4963 31.4318 16.1529C28.046 15.7054 24.6601 15.747 21.2743 16.1737C18.6443 16.5068 16.4699 18.6923 16.1489 21.4086C15.8072 24.3539 15.5277 27.2992 15.2171 30.2445C15.1549 30.8481 15.0928 31.4517 15.01 32.0553C14.9271 32.6694 14.4923 33.0128 13.9435 32.94C13.4465 32.8671 13.1151 32.3988 13.1773 31.8264C13.4982 28.9644 13.8089 26.1127 14.1402 23.2507C14.2645 22.1684 14.3369 21.0652 14.6061 20.0244C15.4034 16.871 18.2819 14.5814 21.5228 14.29C24.1735 14.0506 26.8242 13.8529 29.4749 14.1235C30.6656 14.238 31.8978 14.342 33.0367 14.6751C36.3087 15.6534 38.4727 18.6923 38.6487 22.1267C38.7523 24.0729 39.0629 26.0191 39.2804 27.9548C39.4357 29.2558 39.6013 30.5775 39.7463 31.8368Z" fill="#3A62FF"/>
<path d="M3.23717 47.4582C3.46496 46.0949 3.6824 44.7107 3.93091 43.3369C3.98268 43.0455 3.93091 42.8582 3.71347 42.6604C2.80229 41.7966 1.90147 40.9016 1.00065 40.0274C0.658959 39.7047 0.389748 39.3509 0.545062 38.8409C0.700376 38.3518 1.10419 38.2269 1.54943 38.1541C2.79194 37.9667 4.03445 37.7794 5.28731 37.6025C5.6083 37.5608 5.80503 37.4359 5.94999 37.1341C6.49876 35.9789 7.08896 34.8341 7.63773 33.6893C7.83446 33.2938 8.07261 32.9608 8.54891 32.9504C9.04591 32.9504 9.31512 33.2626 9.52221 33.6789C10.0813 34.8341 10.6612 35.9789 11.1996 37.1341C11.3446 37.4464 11.5309 37.5504 11.8623 37.6025C13.1773 37.7794 14.4923 37.9667 15.7865 38.2165C16.0868 38.2789 16.4181 38.5495 16.5838 38.8305C16.8013 39.1844 16.6045 39.5695 16.3042 39.8505C15.3517 40.7767 14.3991 41.7134 13.4361 42.6292C13.2187 42.8374 13.1358 43.0143 13.198 43.3473C13.4361 44.565 13.6536 45.7931 13.8192 47.0315C13.871 47.3958 13.8089 47.8329 13.6432 48.1555C13.4465 48.551 12.9288 48.5822 12.4421 48.322C11.3135 47.7288 10.1745 47.1564 9.06662 46.532C8.68351 46.3134 8.39359 46.3446 8.02084 46.5424C6.90258 47.1564 5.77396 47.76 4.64535 48.3429C3.92055 48.7279 3.1854 48.27 3.23717 47.4582ZM13.4879 39.7256C12.7527 39.6215 11.883 39.4758 10.9925 39.3717C10.4541 39.3093 10.0606 39.0907 9.83283 38.5703C9.55327 37.9251 9.22193 37.2902 8.90095 36.6554C8.80776 36.4681 8.70422 36.2807 8.56962 36.0101C8.24863 36.6658 7.97942 37.207 7.71021 37.7482C6.86116 39.4133 7.23392 39.226 5.26661 39.4966C4.67641 39.5799 4.09657 39.6735 3.36142 39.788C4.14835 40.5582 4.81102 41.2346 5.4944 41.8799C5.84644 42.2129 5.92928 42.5876 5.83609 43.0559C5.66007 43.9718 5.52546 44.8876 5.34944 45.8867C6.23991 45.4184 7.04754 45.0125 7.84482 44.5754C8.34182 44.2944 8.79741 44.284 9.30477 44.5754C10.0606 45.0125 10.8476 45.3976 11.7173 45.8555C11.5516 44.846 11.4274 43.9405 11.241 43.0455C11.1271 42.4731 11.3342 42.0984 11.7173 41.7134C12.3489 41.0681 12.9081 40.3812 13.4879 39.7256Z" fill="#3A62FF"/>
<path d="M39.2079 47.3021C39.415 46.0741 39.6635 44.7107 39.8602 43.3369C39.8913 43.1288 39.7981 42.827 39.6428 42.6708C38.7005 41.703 37.7169 40.7767 36.7746 39.8192C36.2362 39.2676 36.3708 38.4975 37.0335 38.2581C37.2613 38.1749 37.4994 38.1541 37.7376 38.1228C38.9283 37.9459 40.1294 37.7794 41.3098 37.5712C41.5065 37.54 41.7343 37.3423 41.8275 37.1654C42.4384 35.9997 43.0079 34.8237 43.5877 33.6373C43.7741 33.2522 44.033 32.9608 44.4782 32.9504C44.9441 32.9504 45.2237 33.2418 45.4204 33.6477C45.9796 34.8029 46.549 35.9477 47.1082 37.1029C47.2531 37.4151 47.4395 37.5608 47.8019 37.6129C49.0858 37.7794 50.3594 37.9979 51.633 38.1853C52.0575 38.2477 52.3992 38.4142 52.5338 38.8409C52.6891 39.2989 52.4717 39.6423 52.1507 39.9441C51.2188 40.8496 50.2869 41.7446 49.3861 42.6813C49.2412 42.8374 49.1376 43.1288 49.1687 43.3473C49.3551 44.6482 49.5725 45.9492 49.8003 47.2397C49.8728 47.6664 49.8417 48.041 49.4793 48.3116C49.1066 48.603 48.7027 48.5198 48.3093 48.3116C47.2014 47.7184 46.0831 47.146 44.9752 46.5424C44.6335 46.355 44.3747 46.3342 44.033 46.532C42.9043 47.1668 41.755 47.76 40.6057 48.3533C39.8498 48.7279 39.1665 48.2908 39.2079 47.3021ZM44.5093 35.9893C44.064 36.8844 43.6395 37.6545 43.2978 38.4559C43.039 39.0595 42.6248 39.3197 42.0035 39.3821C41.1545 39.4654 40.3054 39.6215 39.4357 39.7464C40.088 40.4229 40.6575 41.0889 41.3098 41.6717C41.7964 42.1088 41.9103 42.5772 41.7757 43.2016C41.5997 44.055 41.4755 44.9084 41.3305 45.8451C42.0967 45.4392 42.8112 45.1374 43.4531 44.7107C44.1986 44.2111 44.8613 44.2528 45.5965 44.7211C46.2384 45.127 46.9425 45.4392 47.6984 45.8347C47.5534 44.9501 47.4809 44.1591 47.2842 43.389C47.0771 42.598 47.2738 42.036 47.8744 41.5052C48.4749 40.9849 49.003 40.3708 49.6036 39.7464C48.7442 39.6215 47.9365 39.455 47.1185 39.3925C46.373 39.3405 45.9278 38.997 45.6482 38.3102C45.3169 37.5608 44.9234 36.8427 44.5093 35.9893Z" fill="#3A62FF"/>
<path d="M26.3893 0.500244C29.6405 0.521059 32.167 2.49846 32.6536 5.57903C33.0057 7.76458 32.2912 9.72116 30.9452 11.4384C30.2411 12.3438 29.3713 13.0411 28.2945 13.447C26.5964 14.0922 24.9397 13.9465 23.4694 12.8954C20.9637 11.1157 19.7833 8.6492 20.1767 5.55822C20.4977 3.02923 22.4857 1.11428 25.0536 0.656354C25.4885 0.583503 25.9441 0.552281 26.3893 0.500244ZM30.883 6.49488C30.8106 4.91296 30.1168 3.71612 28.895 3.01882C27.8596 2.43601 26.7413 2.2799 25.6024 2.44642C23.4798 2.75864 21.968 4.26771 21.9473 6.35958C21.9266 8.53472 22.8481 10.2415 24.6394 11.4384C25.6127 12.094 26.7103 12.1565 27.7975 11.6569C29.537 10.8452 30.9762 8.43065 30.883 6.49488Z" fill="#3A62FF"/>
<path d="M20.5702 25.9879C20.4356 27.9444 20.301 29.901 20.1664 31.8472C20.1353 32.3259 19.9697 32.7318 19.4519 32.8775C19.0481 32.992 18.6961 32.8671 18.5097 32.5341C18.3647 32.2843 18.313 31.9409 18.3337 31.6495C18.4683 29.3286 18.634 27.0182 18.7893 24.6973C18.8307 24.0937 18.8617 23.4901 18.9239 22.8865C18.9964 22.1788 19.4002 21.8041 19.9697 21.8561C20.5081 21.9082 20.8291 22.3557 20.7876 23.0322C20.7255 24.0105 20.6427 24.9992 20.5702 25.9879Z" fill="#3A62FF"/>
<path d="M34.5692 32.0033C34.5795 32.43 34.2585 32.8775 33.7201 32.9192C33.161 32.9608 32.7572 32.5341 32.7054 31.8472C32.5087 29.0164 32.3016 26.1752 32.1049 23.3444C32.0945 23.1571 32.0738 22.9593 32.0841 22.772C32.1049 22.2516 32.4258 21.8978 32.8918 21.8457C33.3681 21.7937 33.803 22.1059 33.8858 22.6263C33.9583 23.0634 33.9686 23.5213 33.9997 23.9688C34.1964 26.5603 34.3724 29.1517 34.5692 32.0033Z" fill="#3A62FF"/>
<path d="M19.7626 47.3958C19.9386 46.3655 20.1353 45.2415 20.3217 44.1175C20.4563 43.3161 20.5806 42.5147 20.7359 41.7134C20.798 41.4116 20.7462 41.2138 20.5081 40.9953C19.1827 39.7256 17.8885 38.4351 16.5735 37.1549C16.2525 36.8427 16.035 36.5097 16.1593 36.0518C16.2939 35.573 16.6874 35.4169 17.1429 35.3545C18.9135 35.1047 20.6841 34.8237 22.465 34.5843C22.8378 34.5323 23.0345 34.397 23.2002 34.064C23.9768 32.4404 24.7947 30.8377 25.5817 29.2245C25.7784 28.8187 26.0165 28.4544 26.5239 28.4544C27.0209 28.4544 27.2694 28.777 27.4765 29.2037C28.2738 30.8377 29.0918 32.4508 29.889 34.0952C30.0444 34.4178 30.2307 34.5427 30.5828 34.5947C32.3948 34.8341 34.1964 35.1151 35.9981 35.3753C36.464 35.4377 36.8368 35.6043 36.9714 36.0934C37.106 36.5617 36.8575 36.8844 36.5468 37.1862C35.2422 38.4455 33.9479 39.7256 32.6329 40.9744C32.3948 41.2034 32.3119 41.4116 32.3741 41.7342C32.6847 43.441 32.9643 45.1478 33.2542 46.8546C33.2749 46.9899 33.2956 47.1252 33.3163 47.2605C33.3784 47.6768 33.3267 48.0723 32.9435 48.322C32.5708 48.5614 32.198 48.4886 31.8149 48.2908C30.1686 47.4166 28.5326 46.5424 26.8759 45.689C26.6896 45.5953 26.3789 45.5953 26.1926 45.689C24.5255 46.5424 22.8689 47.4374 21.2018 48.3116C20.4563 48.7071 19.7522 48.3012 19.7626 47.3958ZM19.1517 36.9364C19.0999 37.0092 19.0481 37.0821 18.9964 37.1549C19.162 37.2486 19.3691 37.3007 19.5037 37.4359C20.4356 38.331 21.3468 39.2572 22.289 40.1523C22.6307 40.4853 22.7653 40.8287 22.6825 41.3075C22.4754 42.4523 22.289 43.5971 22.1026 44.7419C22.0405 45.0854 21.9991 45.4288 21.937 45.8659C23.2934 45.1478 24.5669 44.5129 25.8095 43.8052C26.3789 43.4826 26.8552 43.5242 27.404 43.8365C28.6362 44.5234 29.889 45.1582 31.1937 45.8555C31.1833 45.6369 31.1833 45.4808 31.1626 45.3351C30.9452 44.0342 30.7381 42.7333 30.4792 41.4532C30.3653 40.9016 30.4792 40.4957 30.9038 40.1106C31.5768 39.507 32.198 38.8618 32.84 38.2373C33.2438 37.8418 33.658 37.4672 34.1343 37.0196C33.9272 36.9468 33.8547 36.9156 33.7719 36.9052C32.488 36.7178 31.2144 36.5201 29.9305 36.364C29.2574 36.2807 28.7501 36.0622 28.4912 35.3857C28.3566 35.011 28.1599 34.6676 27.9839 34.3137C27.5283 33.3875 27.0727 32.4716 26.586 31.4829C25.8923 32.8879 25.2193 34.2201 24.5669 35.5522C24.3495 35.9893 24.0492 36.2599 23.5522 36.312C22.931 36.3744 22.3201 36.4889 21.7092 36.5721C20.8394 36.6866 19.9904 36.8115 19.1517 36.9364Z" stroke="#3A62FF"/>
<path d="M39.7463 31.8368C39.7463 32.4716 39.4046 32.8775 38.918 32.9192C38.3795 32.9504 37.9757 32.5965 37.9032 31.9721C37.7169 30.4734 37.5305 28.9852 37.3752 27.4865C37.1577 25.4779 36.961 23.4589 36.7332 21.4398C36.4329 18.8172 34.0722 16.4963 31.4318 16.1529C28.046 15.7054 24.6601 15.747 21.2743 16.1737C18.6443 16.5068 16.4699 18.6923 16.1489 21.4086C15.8072 24.3539 15.5277 27.2992 15.2171 30.2445C15.1549 30.8481 15.0928 31.4517 15.01 32.0553C14.9271 32.6694 14.4923 33.0128 13.9435 32.94C13.4465 32.8671 13.1151 32.3988 13.1773 31.8264C13.4982 28.9644 13.8089 26.1127 14.1402 23.2507C14.2645 22.1684 14.3369 21.0652 14.6061 20.0244C15.4034 16.871 18.2819 14.5814 21.5228 14.29C24.1735 14.0506 26.8242 13.8529 29.4749 14.1235C30.6656 14.238 31.8978 14.342 33.0367 14.6751C36.3087 15.6534 38.4727 18.6923 38.6487 22.1267C38.7523 24.0729 39.0629 26.0191 39.2804 27.9548C39.4357 29.2558 39.6013 30.5775 39.7463 31.8368Z" stroke="#3A62FF"/>
<path d="M3.23717 47.4582C3.46496 46.0949 3.6824 44.7107 3.93091 43.3369C3.98268 43.0455 3.93091 42.8582 3.71347 42.6604C2.80229 41.7966 1.90147 40.9016 1.00065 40.0274C0.658959 39.7047 0.389748 39.3509 0.545062 38.8409C0.700376 38.3518 1.10419 38.2269 1.54943 38.1541C2.79194 37.9667 4.03445 37.7794 5.28731 37.6025C5.6083 37.5608 5.80503 37.4359 5.94999 37.1341C6.49876 35.9789 7.08896 34.8341 7.63773 33.6893C7.83446 33.2938 8.07261 32.9608 8.54891 32.9504C9.04591 32.9504 9.31512 33.2626 9.52221 33.6789C10.0813 34.8341 10.6612 35.9789 11.1996 37.1341C11.3446 37.4464 11.5309 37.5504 11.8623 37.6025C13.1773 37.7794 14.4923 37.9667 15.7865 38.2165C16.0868 38.2789 16.4181 38.5495 16.5838 38.8305C16.8013 39.1844 16.6045 39.5695 16.3042 39.8505C15.3517 40.7767 14.3991 41.7134 13.4361 42.6292C13.2187 42.8374 13.1358 43.0143 13.198 43.3473C13.4361 44.565 13.6536 45.7931 13.8192 47.0315C13.871 47.3958 13.8089 47.8329 13.6432 48.1555C13.4465 48.551 12.9288 48.5822 12.4421 48.322C11.3135 47.7288 10.1745 47.1564 9.06662 46.532C8.68351 46.3134 8.39359 46.3446 8.02084 46.5424C6.90258 47.1564 5.77396 47.76 4.64535 48.3429C3.92055 48.7279 3.1854 48.27 3.23717 47.4582ZM13.4879 39.7256C12.7527 39.6215 11.883 39.4758 10.9925 39.3717C10.4541 39.3093 10.0606 39.0907 9.83283 38.5703C9.55327 37.9251 9.22193 37.2902 8.90095 36.6554C8.80776 36.4681 8.70422 36.2807 8.56962 36.0101C8.24863 36.6658 7.97942 37.207 7.71021 37.7482C6.86116 39.4133 7.23392 39.226 5.26661 39.4966C4.67641 39.5799 4.09657 39.6735 3.36142 39.788C4.14835 40.5582 4.81102 41.2346 5.4944 41.8799C5.84644 42.2129 5.92928 42.5876 5.83609 43.0559C5.66007 43.9718 5.52546 44.8876 5.34944 45.8867C6.23991 45.4184 7.04754 45.0125 7.84482 44.5754C8.34182 44.2944 8.79741 44.284 9.30477 44.5754C10.0606 45.0125 10.8476 45.3976 11.7173 45.8555C11.5516 44.846 11.4274 43.9405 11.241 43.0455C11.1271 42.4731 11.3342 42.0984 11.7173 41.7134C12.3489 41.0681 12.9081 40.3812 13.4879 39.7256Z" stroke="#3A62FF"/>
<path d="M39.2079 47.3021C39.415 46.0741 39.6635 44.7107 39.8602 43.3369C39.8913 43.1288 39.7981 42.827 39.6428 42.6708C38.7005 41.703 37.7169 40.7767 36.7746 39.8192C36.2362 39.2676 36.3708 38.4975 37.0335 38.2581C37.2613 38.1749 37.4994 38.1541 37.7376 38.1228C38.9283 37.9459 40.1294 37.7794 41.3098 37.5712C41.5065 37.54 41.7343 37.3423 41.8275 37.1654C42.4384 35.9997 43.0079 34.8237 43.5877 33.6373C43.7741 33.2522 44.033 32.9608 44.4782 32.9504C44.9441 32.9504 45.2237 33.2418 45.4204 33.6477C45.9796 34.8029 46.549 35.9477 47.1082 37.1029C47.2531 37.4151 47.4395 37.5608 47.8019 37.6129C49.0858 37.7794 50.3594 37.9979 51.633 38.1853C52.0575 38.2477 52.3992 38.4142 52.5338 38.8409C52.6891 39.2989 52.4717 39.6423 52.1507 39.9441C51.2188 40.8496 50.2869 41.7446 49.3861 42.6813C49.2412 42.8374 49.1376 43.1288 49.1687 43.3473C49.3551 44.6482 49.5725 45.9492 49.8003 47.2397C49.8728 47.6664 49.8417 48.041 49.4793 48.3116C49.1066 48.603 48.7027 48.5198 48.3093 48.3116C47.2014 47.7184 46.0831 47.146 44.9752 46.5424C44.6335 46.355 44.3747 46.3342 44.033 46.532C42.9043 47.1668 41.755 47.76 40.6057 48.3533C39.8498 48.7279 39.1665 48.2908 39.2079 47.3021ZM44.5093 35.9893C44.064 36.8844 43.6395 37.6545 43.2978 38.4559C43.039 39.0595 42.6248 39.3197 42.0035 39.3821C41.1545 39.4654 40.3054 39.6215 39.4357 39.7464C40.088 40.4229 40.6575 41.0889 41.3098 41.6717C41.7964 42.1088 41.9103 42.5772 41.7757 43.2016C41.5997 44.055 41.4755 44.9084 41.3305 45.8451C42.0967 45.4392 42.8112 45.1374 43.4531 44.7107C44.1986 44.2111 44.8613 44.2528 45.5965 44.7211C46.2384 45.127 46.9425 45.4392 47.6984 45.8347C47.5534 44.9501 47.4809 44.1591 47.2842 43.389C47.0771 42.598 47.2738 42.036 47.8744 41.5052C48.4749 40.9849 49.003 40.3708 49.6036 39.7464C48.7442 39.6215 47.9365 39.455 47.1185 39.3925C46.373 39.3405 45.9278 38.997 45.6482 38.3102C45.3169 37.5608 44.9234 36.8427 44.5093 35.9893Z" stroke="#3A62FF"/>
<path d="M26.3893 0.500244C29.6405 0.521059 32.167 2.49846 32.6536 5.57903C33.0057 7.76458 32.2912 9.72116 30.9452 11.4384C30.2411 12.3438 29.3713 13.0411 28.2945 13.447C26.5964 14.0922 24.9397 13.9465 23.4694 12.8954C20.9637 11.1157 19.7833 8.6492 20.1767 5.55822C20.4977 3.02923 22.4857 1.11428 25.0536 0.656354C25.4885 0.583503 25.9441 0.552281 26.3893 0.500244ZM30.883 6.49488C30.8106 4.91296 30.1168 3.71612 28.895 3.01882C27.8596 2.43601 26.7413 2.2799 25.6024 2.44642C23.4798 2.75864 21.968 4.26771 21.9473 6.35958C21.9266 8.53472 22.8481 10.2415 24.6394 11.4384C25.6127 12.094 26.7103 12.1565 27.7975 11.6569C29.537 10.8452 30.9762 8.43065 30.883 6.49488Z" stroke="#3A62FF"/>
<path d="M20.5702 25.9879C20.4356 27.9444 20.301 29.901 20.1664 31.8472C20.1353 32.3259 19.9697 32.7318 19.4519 32.8775C19.0481 32.992 18.6961 32.8671 18.5097 32.5341C18.3647 32.2843 18.313 31.9409 18.3337 31.6495C18.4683 29.3286 18.634 27.0182 18.7893 24.6973C18.8307 24.0937 18.8617 23.4901 18.9239 22.8865C18.9964 22.1788 19.4002 21.8041 19.9697 21.8561C20.5081 21.9082 20.8291 22.3557 20.7876 23.0322C20.7255 24.0105 20.6427 24.9992 20.5702 25.9879Z" stroke="#3A62FF"/>
<path d="M34.5692 32.0033C34.5795 32.43 34.2585 32.8775 33.7201 32.9192C33.161 32.9608 32.7572 32.5341 32.7054 31.8472C32.5087 29.0164 32.3016 26.1752 32.1049 23.3444C32.0945 23.1571 32.0738 22.9593 32.0841 22.772C32.1049 22.2516 32.4258 21.8978 32.8918 21.8457C33.3681 21.7937 33.803 22.1059 33.8858 22.6263C33.9583 23.0634 33.9686 23.5213 33.9997 23.9688C34.1964 26.5603 34.3724 29.1517 34.5692 32.0033Z" stroke="#3A62FF"/>
</svg>
