<svg width="49" height="49" viewBox="0 0 49 49" fill="none" xmlns="http://www.w3.org/2000/svg">
<path d="M11.2037 28.6956C9.79125 30.1081 8.47143 31.4395 7.15161 32.7593C6.79271 33.1182 6.43381 33.4655 6.08649 33.8244C5.75075 34.1833 5.34554 34.3454 4.88245 34.1717C4.38462 33.9865 4.22254 33.5581 4.22254 33.0603C4.22254 32.2846 4.22254 31.5205 4.22254 30.7448C4.22254 30.6175 4.21096 30.4785 4.19938 30.2586C3.33108 30.2586 2.47436 30.247 1.60606 30.2586C1.0735 30.2702 0.587248 30.2123 0.344123 29.6566C0.0894214 29.0777 0.390433 28.6725 0.784063 28.2788C2.26596 26.8085 3.72471 25.3266 5.21819 23.8679C5.49605 23.6016 5.58867 23.37 5.48447 22.9764C4.47724 19.1906 6.8506 15.3006 10.6827 14.4555C11.1458 14.3513 11.2616 14.1892 11.25 13.7377C11.2268 10.6697 11.2963 7.60168 11.2268 4.53368C11.169 1.95193 13.2529 0.238481 15.5105 0.250058C25.0386 0.319522 34.5784 0.273213 44.1065 0.273213C46.5262 0.273213 48.2049 1.96351 48.2049 4.38318C48.2049 11.5611 48.2049 18.7391 48.2049 25.9171C48.2049 26.9359 47.8923 27.2485 46.8504 27.26C45.519 27.26 44.1876 27.26 42.8562 27.26C42.671 27.26 42.4857 27.26 42.2426 27.26C42.2426 27.5726 42.2426 27.8158 42.2426 28.0705C42.2426 32.9329 42.2426 37.7954 42.2426 42.6579C42.2426 43.6073 42.1731 44.545 41.7216 45.4133C40.7838 47.2078 39.3135 48.2151 37.2759 48.2151C28.014 48.2266 18.7521 48.1803 9.49024 48.2498C6.86218 48.2729 4.36147 46.3395 4.24569 43.422C4.22254 42.7505 4.19938 42.0675 4.22254 41.396C4.24569 40.5972 4.62775 40.2498 5.42658 40.2498C7.33685 40.2498 9.24711 40.2498 11.1921 40.2498C11.2037 36.4062 11.2037 32.6319 11.2037 28.6956ZM13.276 40.2383C13.5307 40.2383 13.7507 40.2383 13.9823 40.2383C20.3151 40.2383 26.6363 40.2383 32.9691 40.2383C33.8953 40.2383 34.2079 40.5624 34.2311 41.477C34.2426 42.2296 34.2079 42.9821 34.3121 43.723C34.5784 45.6565 36.7318 46.7795 38.4915 45.9343C39.8229 45.2976 40.2513 44.163 40.2397 42.7505C40.2281 30.9416 40.2165 19.1443 40.2397 7.3354C40.2397 5.64511 39.9271 3.9085 40.7375 2.24136C39.7187 2.24136 38.7694 2.24136 37.82 2.24136C30.399 2.24136 22.9663 2.24136 15.5452 2.24136C14.0517 2.24136 13.2529 3.0402 13.2413 4.5221C13.2413 7.61326 13.2413 10.6928 13.2297 13.784C13.2297 14.1197 13.2529 14.3281 13.6812 14.4207C17.6291 15.2659 20.0141 19.1327 18.9952 23.0227C18.9026 23.3816 18.9837 23.5784 19.2268 23.8216C20.7319 25.315 22.2253 26.8201 23.7304 28.3136C24.0893 28.6725 24.3787 29.0545 24.1588 29.5871C23.9388 30.1312 23.4757 30.2586 22.9316 30.247C22.0517 30.2354 21.1718 30.247 20.234 30.247C20.234 31.1385 20.2225 31.9373 20.234 32.7477C20.2456 33.3266 20.234 33.9054 19.5857 34.1601C18.9489 34.4148 18.5437 33.9981 18.1385 33.5929C16.6682 32.111 15.1979 30.6406 13.716 29.1703C13.5886 29.043 13.4497 28.9156 13.2529 28.7419C13.276 32.6088 13.276 36.3946 13.276 40.2383ZM6.20227 42.2759C6.27173 42.9126 6.24858 43.5031 6.39908 44.0472C6.76956 45.4481 7.93887 46.2353 9.54812 46.2353C17.2586 46.2353 24.9807 46.2353 32.6913 46.2353C32.8302 46.2353 32.9807 46.2353 33.1081 46.2353C32.8418 45.5638 32.5292 44.9618 32.3787 44.3135C32.2282 43.6536 32.2282 42.9589 32.1703 42.2759C23.5336 42.2759 14.9432 42.2759 6.20227 42.2759ZM46.2368 25.2687C46.2368 25.0488 46.2368 24.9098 46.2368 24.7709C46.2368 18.0213 46.2368 11.2717 46.2368 4.5221C46.2368 4.3716 46.2368 4.20952 46.2136 4.05901C46.0979 3.24859 45.6695 2.65815 44.8938 2.38029C43.5277 1.88247 42.2542 2.87812 42.2542 4.44106C42.2542 11.1675 42.2542 17.9055 42.2542 24.632C42.2542 24.8172 42.2542 25.0025 42.2542 25.2108C42.4278 25.234 42.5436 25.2687 42.6478 25.2687C43.8171 25.2687 44.9864 25.2687 46.2368 25.2687ZM12.2225 26.2297C15.0011 26.2412 17.2355 24.0184 17.2355 21.263C17.2355 18.5191 15.0242 16.2731 12.3035 16.2615C9.51339 16.25 7.23265 18.5076 7.24423 21.263C7.25581 23.9952 9.49024 26.2181 12.2225 26.2297ZM6.237 30.6406C7.29054 29.5871 8.28619 28.5914 9.18923 27.6768C8.3325 26.9822 7.41789 26.2297 6.61905 25.5697C5.77391 26.4265 4.87087 27.3527 4.00257 28.2325C4.09519 28.2325 4.30358 28.2325 4.51197 28.2325C4.74352 28.2325 4.97507 28.221 5.20661 28.2441C5.8781 28.2904 6.21384 28.6493 6.237 29.3208C6.24858 29.7607 6.237 30.2007 6.237 30.6406ZM15.2558 27.6074C16.2398 28.5799 17.2471 29.5755 18.2427 30.548C18.2427 30.2817 18.2427 29.9113 18.2427 29.5524C18.2427 28.5799 18.5785 28.2441 19.5741 28.2325C19.9214 28.2325 20.2803 28.2325 20.6508 28.2325C19.6783 27.26 18.7753 26.357 17.9301 25.5119C17.5249 25.8708 17.1081 26.2991 16.645 26.6696C16.1704 27.0401 15.6494 27.3411 15.2558 27.6074Z" fill="#3A62FF"/>
<path d="M29.2759 12.2558C31.8809 12.2558 34.4858 12.2558 37.0907 12.2558C37.9242 12.2558 38.4452 12.881 38.1558 13.5409C38.04 13.8071 37.7506 14.0271 37.4843 14.1776C37.2991 14.2818 37.0328 14.2587 36.8012 14.2587C31.7651 14.2587 26.7289 14.2587 21.7044 14.2587C21.496 14.2587 21.276 14.2587 21.0676 14.2124C20.535 14.1082 20.2109 13.6914 20.2456 13.182C20.2688 12.6841 20.6392 12.3021 21.1834 12.2442C21.357 12.2326 21.5307 12.2326 21.7044 12.2326C24.2282 12.2558 26.7521 12.2558 29.2759 12.2558Z" fill="#3A62FF"/>
<path d="M30.2716 20.2442C32.4713 20.2442 34.671 20.2442 36.8707 20.2442C37.0791 20.2442 37.2991 20.2442 37.4959 20.2905C37.959 20.4062 38.2137 20.742 38.2252 21.2167C38.2368 21.6566 38.0284 22.0155 37.5885 22.1544C37.3338 22.2355 37.0559 22.247 36.7897 22.247C32.4134 22.247 28.0372 22.247 23.6609 22.247C23.4525 22.247 23.2326 22.247 23.0242 22.2007C22.5032 22.085 22.1906 21.645 22.2485 21.1356C22.3064 20.6031 22.6305 20.3136 23.1515 20.2442C23.3252 20.221 23.4988 20.2326 23.6725 20.2326C25.8838 20.2442 28.0719 20.2442 30.2716 20.2442Z" fill="#3A62FF"/>
<path d="M30.26 16.25C32.5523 16.25 34.8447 16.25 37.1486 16.25C37.7043 16.25 38.0863 16.5047 38.2021 17.0372C38.3179 17.5235 38.0979 17.9055 37.658 18.1255C37.4959 18.2065 37.2875 18.2297 37.1022 18.2297C32.5292 18.2297 27.9677 18.2413 23.3946 18.2297C22.6653 18.2297 22.2485 17.8245 22.2601 17.2109C22.2716 16.5973 22.7 16.2384 23.441 16.2384C25.7101 16.25 27.9909 16.25 30.26 16.25Z" fill="#3A62FF"/>
<path d="M32.2282 30.247C30.6073 30.247 28.9865 30.2817 27.3657 30.2238C27.0184 30.2123 26.5784 29.9691 26.3932 29.6797C26.2427 29.4482 26.289 28.9388 26.4511 28.6841C26.6016 28.4409 27.0184 28.2557 27.3194 28.2441C30.5958 28.2094 33.8722 28.221 37.1485 28.2325C37.82 28.2325 38.2484 28.6841 38.2252 29.2629C38.2021 29.8418 37.7621 30.2238 37.0791 30.2354C35.4698 30.2586 33.849 30.247 32.2282 30.247Z" fill="#3A62FF"/>
<path d="M32.2629 24.2383C33.849 24.2383 35.4235 24.2383 37.0096 24.2383C37.7737 24.2383 38.2368 24.6204 38.2368 25.234C38.2368 25.8476 37.7853 26.2297 37.0096 26.2297C33.8258 26.2297 30.6537 26.2297 27.4699 26.2297C26.7058 26.2297 26.2311 25.8476 26.2311 25.2456C26.2311 24.6436 26.7058 24.2499 27.4699 24.2383C29.0676 24.2383 30.6652 24.2383 32.2629 24.2383Z" fill="#3A62FF"/>
<path d="M19.713 6.24713C18.6132 6.24713 17.5133 6.24713 16.4135 6.24713C15.7189 6.24713 15.2789 5.87666 15.2442 5.30936C15.2095 4.7305 15.6725 4.24425 16.3672 4.24425C18.6248 4.22109 20.8824 4.22109 23.1399 4.24425C23.823 4.25582 24.2514 4.68419 24.2514 5.26305C24.2514 5.86508 23.7999 6.24713 23.0705 6.24713C21.9475 6.24713 20.8245 6.24713 19.713 6.24713Z" fill="#3A62FF"/>
<path d="M34.7405 38.2354C33.9532 38.2354 33.1544 38.2354 32.3671 38.2354C31.684 38.2238 31.2557 37.8417 31.2441 37.2629C31.2325 36.6956 31.6262 36.2556 32.2745 36.2441C33.9185 36.2209 35.5509 36.2093 37.1949 36.2441C37.8663 36.2556 38.2716 36.7303 38.2368 37.3092C38.2021 37.8649 37.7621 38.2354 37.1138 38.2354C36.3266 38.247 35.5277 38.2354 34.7405 38.2354Z" fill="#3A62FF"/>
<path d="M15.2326 21.263C15.2326 22.9185 13.9012 24.2383 12.2572 24.2499C10.6017 24.2499 9.22396 22.8838 9.24711 21.2282C9.25869 19.5842 10.6017 18.2529 12.2341 18.2413C13.9012 18.2297 15.2326 19.5842 15.2326 21.263ZM12.2572 20.2557C11.7015 20.2442 11.2732 20.6725 11.2616 21.2282C11.25 21.7724 11.7015 22.2355 12.2341 22.247C12.7551 22.2586 13.2297 21.7839 13.2413 21.263C13.2413 20.7188 12.8014 20.2673 12.2572 20.2557Z" fill="#3A62FF"/>
<path d="M11.2037 28.6956C9.79125 30.1081 8.47143 31.4395 7.15161 32.7593C6.79271 33.1182 6.43381 33.4655 6.08649 33.8244C5.75075 34.1833 5.34554 34.3454 4.88245 34.1717C4.38462 33.9865 4.22254 33.5581 4.22254 33.0603C4.22254 32.2846 4.22254 31.5205 4.22254 30.7448C4.22254 30.6175 4.21096 30.4785 4.19938 30.2586C3.33108 30.2586 2.47436 30.247 1.60606 30.2586C1.0735 30.2702 0.587248 30.2123 0.344123 29.6566C0.0894214 29.0777 0.390433 28.6725 0.784063 28.2788C2.26596 26.8085 3.72471 25.3266 5.21819 23.8679C5.49605 23.6016 5.58867 23.37 5.48447 22.9764C4.47724 19.1906 6.8506 15.3006 10.6827 14.4555C11.1458 14.3513 11.2616 14.1892 11.25 13.7377C11.2268 10.6697 11.2963 7.60168 11.2268 4.53368C11.169 1.95193 13.2529 0.238481 15.5105 0.250058C25.0386 0.319522 34.5784 0.273213 44.1065 0.273213C46.5262 0.273213 48.2049 1.96351 48.2049 4.38318C48.2049 11.5611 48.2049 18.7391 48.2049 25.9171C48.2049 26.9359 47.8923 27.2485 46.8504 27.26C45.519 27.26 44.1876 27.26 42.8562 27.26C42.671 27.26 42.4857 27.26 42.2426 27.26C42.2426 27.5726 42.2426 27.8158 42.2426 28.0705C42.2426 32.9329 42.2426 37.7954 42.2426 42.6579C42.2426 43.6073 42.1731 44.545 41.7216 45.4133C40.7838 47.2078 39.3135 48.2151 37.2759 48.2151C28.014 48.2266 18.7521 48.1803 9.49024 48.2498C6.86218 48.2729 4.36147 46.3395 4.24569 43.422C4.22254 42.7505 4.19938 42.0675 4.22254 41.396C4.24569 40.5972 4.62775 40.2498 5.42658 40.2498C7.33685 40.2498 9.24711 40.2498 11.1921 40.2498C11.2037 36.4062 11.2037 32.6319 11.2037 28.6956ZM13.276 40.2383C13.5307 40.2383 13.7507 40.2383 13.9823 40.2383C20.3151 40.2383 26.6363 40.2383 32.9691 40.2383C33.8953 40.2383 34.2079 40.5624 34.2311 41.477C34.2426 42.2296 34.2079 42.9821 34.3121 43.723C34.5784 45.6565 36.7318 46.7795 38.4915 45.9343C39.8229 45.2976 40.2513 44.163 40.2397 42.7505C40.2281 30.9416 40.2165 19.1443 40.2397 7.3354C40.2397 5.64511 39.9271 3.9085 40.7375 2.24136C39.7187 2.24136 38.7694 2.24136 37.82 2.24136C30.399 2.24136 22.9663 2.24136 15.5452 2.24136C14.0517 2.24136 13.2529 3.0402 13.2413 4.5221C13.2413 7.61326 13.2413 10.6928 13.2297 13.784C13.2297 14.1197 13.2529 14.3281 13.6812 14.4207C17.6291 15.2659 20.0141 19.1327 18.9952 23.0227C18.9026 23.3816 18.9837 23.5784 19.2268 23.8216C20.7319 25.315 22.2253 26.8201 23.7304 28.3136C24.0893 28.6725 24.3787 29.0545 24.1588 29.5871C23.9388 30.1312 23.4757 30.2586 22.9316 30.247C22.0517 30.2354 21.1718 30.247 20.234 30.247C20.234 31.1385 20.2225 31.9373 20.234 32.7477C20.2456 33.3266 20.234 33.9054 19.5857 34.1601C18.9489 34.4148 18.5437 33.9981 18.1385 33.5929C16.6682 32.111 15.1979 30.6406 13.716 29.1703C13.5886 29.043 13.4497 28.9156 13.2529 28.7419C13.276 32.6088 13.276 36.3946 13.276 40.2383ZM6.20227 42.2759C6.27173 42.9126 6.24858 43.5031 6.39908 44.0472C6.76956 45.4481 7.93887 46.2353 9.54812 46.2353C17.2586 46.2353 24.9807 46.2353 32.6913 46.2353C32.8302 46.2353 32.9807 46.2353 33.1081 46.2353C32.8418 45.5638 32.5292 44.9618 32.3787 44.3135C32.2282 43.6536 32.2282 42.9589 32.1703 42.2759C23.5336 42.2759 14.9432 42.2759 6.20227 42.2759ZM46.2368 25.2687C46.2368 25.0488 46.2368 24.9098 46.2368 24.7709C46.2368 18.0213 46.2368 11.2717 46.2368 4.5221C46.2368 4.3716 46.2368 4.20952 46.2136 4.05901C46.0979 3.24859 45.6695 2.65815 44.8938 2.38029C43.5277 1.88247 42.2542 2.87812 42.2542 4.44106C42.2542 11.1675 42.2542 17.9055 42.2542 24.632C42.2542 24.8172 42.2542 25.0025 42.2542 25.2108C42.4278 25.234 42.5436 25.2687 42.6478 25.2687C43.8171 25.2687 44.9864 25.2687 46.2368 25.2687ZM12.2225 26.2297C15.0011 26.2412 17.2355 24.0184 17.2355 21.263C17.2355 18.5191 15.0242 16.2731 12.3035 16.2615C9.51339 16.25 7.23265 18.5076 7.24423 21.263C7.25581 23.9952 9.49024 26.2181 12.2225 26.2297ZM6.237 30.6406C7.29054 29.5871 8.28619 28.5914 9.18923 27.6768C8.3325 26.9822 7.41789 26.2297 6.61905 25.5697C5.77391 26.4265 4.87087 27.3527 4.00257 28.2325C4.09519 28.2325 4.30358 28.2325 4.51197 28.2325C4.74352 28.2325 4.97507 28.221 5.20661 28.2441C5.8781 28.2904 6.21384 28.6493 6.237 29.3208C6.24858 29.7607 6.237 30.2007 6.237 30.6406ZM15.2558 27.6074C16.2398 28.5799 17.2471 29.5755 18.2427 30.548C18.2427 30.2817 18.2427 29.9113 18.2427 29.5524C18.2427 28.5799 18.5785 28.2441 19.5741 28.2325C19.9214 28.2325 20.2803 28.2325 20.6508 28.2325C19.6783 27.26 18.7753 26.357 17.9301 25.5119C17.5249 25.8708 17.1081 26.2991 16.645 26.6696C16.1704 27.0401 15.6494 27.3411 15.2558 27.6074Z" stroke="#3A62FF" stroke-width="0.5"/>
<path d="M29.2759 12.2558C31.8809 12.2558 34.4858 12.2558 37.0907 12.2558C37.9242 12.2558 38.4452 12.881 38.1558 13.5409C38.04 13.8071 37.7506 14.0271 37.4843 14.1776C37.2991 14.2818 37.0328 14.2587 36.8012 14.2587C31.7651 14.2587 26.7289 14.2587 21.7044 14.2587C21.496 14.2587 21.276 14.2587 21.0676 14.2124C20.535 14.1082 20.2109 13.6914 20.2456 13.182C20.2688 12.6841 20.6392 12.3021 21.1834 12.2442C21.357 12.2326 21.5307 12.2326 21.7044 12.2326C24.2282 12.2558 26.7521 12.2558 29.2759 12.2558Z" stroke="#3A62FF" stroke-width="0.5"/>
<path d="M30.2716 20.2442C32.4713 20.2442 34.671 20.2442 36.8707 20.2442C37.0791 20.2442 37.2991 20.2442 37.4959 20.2905C37.959 20.4062 38.2137 20.742 38.2252 21.2167C38.2368 21.6566 38.0284 22.0155 37.5885 22.1544C37.3338 22.2355 37.0559 22.247 36.7897 22.247C32.4134 22.247 28.0372 22.247 23.6609 22.247C23.4525 22.247 23.2326 22.247 23.0242 22.2007C22.5032 22.085 22.1906 21.645 22.2485 21.1356C22.3064 20.6031 22.6305 20.3136 23.1515 20.2442C23.3252 20.221 23.4988 20.2326 23.6725 20.2326C25.8838 20.2442 28.0719 20.2442 30.2716 20.2442Z" stroke="#3A62FF" stroke-width="0.5"/>
<path d="M30.26 16.25C32.5523 16.25 34.8447 16.25 37.1486 16.25C37.7043 16.25 38.0863 16.5047 38.2021 17.0372C38.3179 17.5235 38.0979 17.9055 37.658 18.1255C37.4959 18.2065 37.2875 18.2297 37.1022 18.2297C32.5292 18.2297 27.9677 18.2413 23.3946 18.2297C22.6653 18.2297 22.2485 17.8245 22.2601 17.2109C22.2716 16.5973 22.7 16.2384 23.441 16.2384C25.7101 16.25 27.9909 16.25 30.26 16.25Z" stroke="#3A62FF" stroke-width="0.5"/>
<path d="M32.2282 30.247C30.6073 30.247 28.9865 30.2817 27.3657 30.2238C27.0184 30.2123 26.5784 29.9691 26.3932 29.6797C26.2427 29.4482 26.289 28.9388 26.4511 28.6841C26.6016 28.4409 27.0184 28.2557 27.3194 28.2441C30.5958 28.2094 33.8722 28.221 37.1485 28.2325C37.82 28.2325 38.2484 28.6841 38.2252 29.2629C38.2021 29.8418 37.7621 30.2238 37.0791 30.2354C35.4698 30.2586 33.849 30.247 32.2282 30.247Z" stroke="#3A62FF" stroke-width="0.5"/>
<path d="M32.2629 24.2383C33.849 24.2383 35.4235 24.2383 37.0096 24.2383C37.7737 24.2383 38.2368 24.6204 38.2368 25.234C38.2368 25.8476 37.7853 26.2297 37.0096 26.2297C33.8258 26.2297 30.6537 26.2297 27.4699 26.2297C26.7058 26.2297 26.2311 25.8476 26.2311 25.2456C26.2311 24.6436 26.7058 24.2499 27.4699 24.2383C29.0676 24.2383 30.6652 24.2383 32.2629 24.2383Z" stroke="#3A62FF" stroke-width="0.5"/>
<path d="M19.713 6.24713C18.6132 6.24713 17.5133 6.24713 16.4135 6.24713C15.7189 6.24713 15.2789 5.87666 15.2442 5.30936C15.2095 4.7305 15.6725 4.24425 16.3672 4.24425C18.6248 4.22109 20.8824 4.22109 23.1399 4.24425C23.823 4.25582 24.2514 4.68419 24.2514 5.26305C24.2514 5.86508 23.7999 6.24713 23.0705 6.24713C21.9475 6.24713 20.8245 6.24713 19.713 6.24713Z" stroke="#3A62FF" stroke-width="0.5"/>
<path d="M34.7405 38.2354C33.9532 38.2354 33.1544 38.2354 32.3671 38.2354C31.684 38.2238 31.2557 37.8417 31.2441 37.2629C31.2325 36.6956 31.6262 36.2556 32.2745 36.2441C33.9185 36.2209 35.5509 36.2093 37.1949 36.2441C37.8663 36.2556 38.2716 36.7303 38.2368 37.3092C38.2021 37.8649 37.7621 38.2354 37.1138 38.2354C36.3266 38.247 35.5277 38.2354 34.7405 38.2354Z" stroke="#3A62FF" stroke-width="0.5"/>
<path d="M15.2326 21.263C15.2326 22.9185 13.9012 24.2383 12.2572 24.2499C10.6017 24.2499 9.22396 22.8838 9.24711 21.2282C9.25869 19.5842 10.6017 18.2529 12.2341 18.2413C13.9012 18.2297 15.2326 19.5842 15.2326 21.263ZM12.2572 20.2557C11.7015 20.2442 11.2732 20.6725 11.2616 21.2282C11.25 21.7724 11.7015 22.2355 12.2341 22.247C12.7551 22.2586 13.2297 21.7839 13.2413 21.263C13.2413 20.7188 12.8014 20.2673 12.2572 20.2557Z" stroke="#3A62FF" stroke-width="0.5"/>
</svg>
