<svg width="49" height="50" viewBox="0 0 49 50" fill="none" xmlns="http://www.w3.org/2000/svg">
<path d="M35.9285 22.0587C37.2726 21.5721 38.5125 21.5605 39.7175 22.1746C42.0002 23.3333 42.9156 25.6623 42.0697 28.084C41.3745 30.0654 40.9342 32.0932 41.0385 34.2136C41.1659 36.786 42.0465 38.9875 44.2481 40.517C44.4567 40.6561 44.5957 41.0153 44.6189 41.2702C44.6652 41.9538 44.6305 42.6491 44.6305 43.2748C45.2678 43.4949 45.8935 43.6108 46.4149 43.9005C47.3303 44.4103 47.8285 45.2446 47.8749 46.3106C47.898 46.9247 47.8865 47.5504 47.898 48.1645C47.9096 48.5701 47.759 48.7902 47.3187 48.7439C47.2028 48.7323 47.0869 48.7439 46.9711 48.7439C31.873 48.7439 16.7634 48.7439 1.66538 48.7439C0.75 48.7439 0.75 48.7439 0.75 47.8169C0.75 32.4408 0.75 17.0763 0.75 1.70014C0.75 0.773174 0.75 0.761587 1.66538 0.761587C9.68368 0.761587 17.6904 0.761587 25.7087 0.75C26.1258 0.75 26.4271 0.842697 26.7283 1.15555C29.6367 4.08709 32.5567 7.00705 35.4998 9.92701C35.8127 10.2399 35.9285 10.5643 35.9285 11.0046C35.9169 14.4576 35.9169 17.9221 35.9169 21.3751C35.9285 21.5605 35.9285 21.7691 35.9285 22.0587ZM1.53792 47.9676C10.2283 47.9676 18.8723 47.9676 27.5974 47.9676C27.3541 45.4995 27.9334 43.5992 30.7954 43.3675C30.9577 42.7418 30.5173 42.8692 30.2277 42.8692C21.9197 42.8692 16.1725 42.8692 7.8645 42.8576C7.54006 42.8576 7.00705 43.0546 7.00705 42.4869C7.00705 41.9191 7.54006 42.1161 7.8645 42.1161C16.1261 42.1045 21.8502 42.1045 30.1118 42.1045C30.3319 42.1045 30.5637 42.1045 30.8418 42.1045C30.8418 41.78 30.7954 41.5019 30.8534 41.247C30.9229 40.9805 31.0272 40.6329 31.2357 40.4939C33.4489 38.9644 34.3295 36.7744 34.4338 34.1905C34.5149 32.1859 34.1557 30.2277 33.4836 28.339C32.6841 26.0911 33.0781 24.1792 34.9436 22.6149C35.0943 22.4875 35.1754 22.1862 35.1754 21.966C35.187 18.4551 35.187 14.9326 35.187 11.4217C35.187 11.2479 35.1638 11.0857 35.1522 10.854C34.9089 10.854 34.7003 10.854 34.4917 10.854C31.8499 10.854 29.1964 10.854 26.5545 10.854C25.8477 10.854 25.8014 10.8076 25.8014 10.1008C25.8014 7.47054 25.8014 4.85184 25.8014 2.22157C25.8014 1.98982 25.8014 1.76967 25.8014 1.52634C17.6788 1.52634 9.61416 1.52634 1.54951 1.52634C1.53792 17.0067 1.53792 32.464 1.53792 47.9676ZM43.9237 43.3906C43.9237 42.7302 43.9468 42.1392 43.9121 41.5483C43.9005 41.3397 43.7614 41.0732 43.5876 40.9574C41.4672 39.4047 40.5402 37.2379 40.3432 34.7003C40.1694 32.4176 40.5981 30.2045 41.3281 28.0493C41.6062 27.2266 41.7684 26.4039 41.5599 25.5465C41.0385 23.2986 38.8021 21.966 36.6469 22.6033C34.4338 23.2522 33.2983 25.5465 34.0746 27.7596C34.7466 29.7062 35.1985 31.6992 35.1754 33.7617C35.1406 36.6585 34.3295 39.1961 31.8499 40.9689C31.734 41.05 31.5834 41.1891 31.5834 41.305C31.5602 41.9886 31.5718 42.6838 31.5718 43.3791C35.7084 43.3906 39.7755 43.3906 43.9237 43.3906ZM47.168 47.9676C47.168 47.423 47.1796 46.9247 47.168 46.4265C47.1333 45.1635 46.1831 44.2017 44.9086 44.1902C40.1347 44.1786 35.3723 44.1786 30.5985 44.1902C29.405 44.1902 28.478 44.9897 28.3274 46.16C28.2463 46.7393 28.3158 47.3419 28.3158 47.9676C34.596 47.9676 40.8415 47.9676 47.168 47.9676ZM34.2832 10.1124C31.734 7.56323 29.1037 4.93295 26.5777 2.40696C26.5777 4.84026 26.5777 7.47054 26.5777 10.1124C29.2428 10.1124 31.8615 10.1124 34.2832 10.1124Z" fill="#3A62FF"/>
<path d="M18.2002 30.7607C13.9362 30.7607 12.2213 30.7607 7.94561 30.7607C7.85291 30.7607 7.74863 30.7607 7.65593 30.7607C7.35467 30.7375 6.93753 30.7838 6.98388 30.3551C7.00705 30.1929 7.43577 29.9727 7.6791 29.9727C10.3441 29.9496 10.46 29.9843 13.1251 29.9843C18.8607 29.9843 22.0471 29.9843 27.7712 29.9843C28.1536 29.9843 28.5475 29.9496 28.9183 29.9959C29.069 30.0191 29.3586 29.9959 29.3355 30.3783C29.3123 30.7607 29.0574 30.7259 28.8951 30.7375C28.3969 30.7838 27.8987 30.7491 27.3888 30.7491C26.6209 30.7491 18.2002 30.7402 18.2002 30.7607Z" fill="#3A62FF"/>
<path d="M18.1423 24.6543C13.8898 24.6543 12.1981 24.6543 7.94561 24.6543C7.7718 24.6543 7.58641 24.7006 7.42419 24.6427C7.25038 24.5847 6.9607 24.6427 6.9607 24.3182C6.9607 23.9938 7.26197 24.0285 7.43578 23.9359C7.54006 23.8779 7.70228 23.9243 7.84132 23.9243C16.4158 23.9243 19.8919 23.9243 28.4664 23.9359C28.7909 23.9359 29.3355 23.7505 29.3239 24.3066C29.3239 24.8744 28.7677 24.6543 28.4548 24.6543C24.1676 24.6658 22.4295 24.6543 18.1423 24.6543Z" fill="#3A62FF"/>
<path d="M18.1423 18.6289C13.8898 18.6289 12.1981 18.6289 7.94561 18.6289C7.7718 18.6289 7.58641 18.6753 7.42419 18.6174C7.25038 18.5594 6.9607 18.6289 6.9607 18.2929C6.9607 17.9569 7.26197 18.0032 7.43578 17.9105C7.54006 17.8526 7.70228 17.899 7.84132 17.899C16.4158 17.899 19.8919 17.899 28.4664 17.9105C28.7909 17.9105 29.3355 17.7251 29.3239 18.2813C29.3239 18.8491 28.7677 18.6289 28.4548 18.6289C24.1676 18.6405 22.4295 18.6289 18.1423 18.6289Z" fill="#3A62FF"/>
<path d="M18.1423 36.0676C22.4295 36.0676 24.1676 36.0676 28.4548 36.0676C28.6286 36.0676 28.8256 36.0212 28.9763 36.0792C29.1269 36.1371 29.3586 36.0792 29.3586 36.4268C29.3586 36.7744 29.1385 36.7049 28.9878 36.7744C28.8604 36.8323 28.6866 36.7976 28.5359 36.7976C19.9267 36.7976 16.4158 36.7976 7.79498 36.7976C7.6791 36.7976 7.54006 36.8439 7.44736 36.786C7.27355 36.6817 6.9607 36.786 6.97229 36.4036C6.98388 36.0212 7.26197 36.1487 7.43578 36.0792C7.57482 36.0212 7.73704 36.0676 7.89926 36.0676C12.1633 36.0676 13.8782 36.0676 18.1423 36.0676Z" fill="#3A62FF"/>
<path d="M12.6384 7.38943C15.1065 7.38943 17.5745 7.38943 20.0542 7.38943C20.228 7.38943 20.4134 7.35467 20.5756 7.4126C20.7146 7.45895 20.9116 7.64434 20.8884 7.73704C20.8653 7.88767 20.7146 8.04989 20.5756 8.131C20.4597 8.20053 20.2743 8.15418 20.1237 8.15418C15.1644 8.15418 12.7543 8.15418 7.79498 8.15418C7.73704 8.15418 7.6791 8.15418 7.62117 8.15418C7.3199 8.15418 6.9607 8.14259 7.00705 7.74863C7.01864 7.60958 7.40101 7.4126 7.60958 7.4126C10.1356 7.37784 10.1124 7.38943 12.6384 7.38943Z" fill="#3A62FF"/>
<path d="M12.6963 12.117C10.2051 12.117 10.263 12.117 7.78339 12.117C7.63276 12.117 7.44736 12.1633 7.33149 12.0938C7.18086 12.0127 7.04181 11.8621 6.99546 11.7114C6.97229 11.6419 7.19245 11.4681 7.3199 11.4102C7.43578 11.3522 7.58641 11.387 7.72545 11.387C12.7195 11.387 15.176 11.387 20.17 11.387C20.3207 11.387 20.4945 11.3638 20.6219 11.4102C20.7378 11.4565 20.9 11.6187 20.9 11.7114C20.8884 11.8505 20.761 12.0243 20.6335 12.0822C20.4945 12.1517 20.2975 12.117 20.1237 12.117C17.644 12.117 15.176 12.117 12.6963 12.117Z" fill="#3A62FF"/>
<path d="M35.9285 22.0587C37.2726 21.5721 38.5125 21.5605 39.7175 22.1746C42.0002 23.3333 42.9156 25.6623 42.0697 28.084C41.3745 30.0654 40.9342 32.0932 41.0385 34.2136C41.1659 36.786 42.0465 38.9875 44.2481 40.517C44.4567 40.6561 44.5957 41.0153 44.6189 41.2702C44.6652 41.9538 44.6305 42.6491 44.6305 43.2748C45.2678 43.4949 45.8935 43.6108 46.4149 43.9005C47.3303 44.4103 47.8285 45.2446 47.8749 46.3106C47.898 46.9247 47.8865 47.5504 47.898 48.1645C47.9096 48.5701 47.759 48.7902 47.3187 48.7439C47.2028 48.7323 47.0869 48.7439 46.9711 48.7439C31.873 48.7439 16.7634 48.7439 1.66538 48.7439C0.75 48.7439 0.75 48.7439 0.75 47.8169C0.75 32.4408 0.75 17.0763 0.75 1.70014C0.75 0.773174 0.75 0.761587 1.66538 0.761587C9.68368 0.761587 17.6904 0.761587 25.7087 0.75C26.1258 0.75 26.4271 0.842697 26.7283 1.15555C29.6367 4.08709 32.5567 7.00705 35.4998 9.92701C35.8127 10.2399 35.9285 10.5643 35.9285 11.0046C35.9169 14.4576 35.9169 17.9221 35.9169 21.3751C35.9285 21.5605 35.9285 21.7691 35.9285 22.0587ZM1.53792 47.9676C10.2283 47.9676 18.8723 47.9676 27.5974 47.9676C27.3541 45.4995 27.9334 43.5992 30.7954 43.3675C30.9577 42.7418 30.5173 42.8692 30.2277 42.8692C21.9197 42.8692 16.1725 42.8692 7.8645 42.8576C7.54006 42.8576 7.00705 43.0546 7.00705 42.4869C7.00705 41.9191 7.54006 42.1161 7.8645 42.1161C16.1261 42.1045 21.8502 42.1045 30.1118 42.1045C30.3319 42.1045 30.5637 42.1045 30.8418 42.1045C30.8418 41.78 30.7954 41.5019 30.8534 41.247C30.9229 40.9805 31.0272 40.6329 31.2357 40.4939C33.4489 38.9644 34.3295 36.7744 34.4338 34.1905C34.5149 32.1859 34.1557 30.2277 33.4836 28.339C32.6841 26.0911 33.0781 24.1792 34.9436 22.6149C35.0943 22.4875 35.1754 22.1862 35.1754 21.966C35.187 18.4551 35.187 14.9326 35.187 11.4217C35.187 11.2479 35.1638 11.0857 35.1522 10.854C34.9089 10.854 34.7003 10.854 34.4917 10.854C31.8499 10.854 29.1964 10.854 26.5545 10.854C25.8477 10.854 25.8014 10.8076 25.8014 10.1008C25.8014 7.47054 25.8014 4.85184 25.8014 2.22157C25.8014 1.98982 25.8014 1.76967 25.8014 1.52634C17.6788 1.52634 9.61416 1.52634 1.54951 1.52634C1.53792 17.0067 1.53792 32.464 1.53792 47.9676ZM43.9237 43.3906C43.9237 42.7302 43.9468 42.1392 43.9121 41.5483C43.9005 41.3397 43.7614 41.0732 43.5876 40.9574C41.4672 39.4047 40.5402 37.2379 40.3432 34.7003C40.1694 32.4176 40.5981 30.2045 41.3281 28.0493C41.6062 27.2266 41.7684 26.4039 41.5599 25.5465C41.0385 23.2986 38.8021 21.966 36.6469 22.6033C34.4338 23.2522 33.2983 25.5465 34.0746 27.7596C34.7466 29.7062 35.1985 31.6992 35.1754 33.7617C35.1406 36.6585 34.3295 39.1961 31.8499 40.9689C31.734 41.05 31.5834 41.1891 31.5834 41.305C31.5602 41.9886 31.5718 42.6838 31.5718 43.3791C35.7084 43.3906 39.7755 43.3906 43.9237 43.3906ZM47.168 47.9676C47.168 47.423 47.1796 46.9247 47.168 46.4265C47.1333 45.1635 46.1831 44.2017 44.9086 44.1902C40.1347 44.1786 35.3723 44.1786 30.5985 44.1902C29.405 44.1902 28.478 44.9897 28.3274 46.16C28.2463 46.7393 28.3158 47.3419 28.3158 47.9676C34.596 47.9676 40.8415 47.9676 47.168 47.9676ZM34.2832 10.1124C31.734 7.56323 29.1037 4.93295 26.5777 2.40696C26.5777 4.84026 26.5777 7.47054 26.5777 10.1124C29.2428 10.1124 31.8615 10.1124 34.2832 10.1124Z" stroke="#3A62FF" stroke-width="1.5"/>
<path d="M18.2002 30.7607C13.9362 30.7607 12.2213 30.7607 7.94561 30.7607C7.85291 30.7607 7.74863 30.7607 7.65593 30.7607C7.35467 30.7375 6.93753 30.7838 6.98388 30.3551C7.00705 30.1929 7.43577 29.9727 7.6791 29.9727C10.3441 29.9496 10.46 29.9843 13.1251 29.9843C18.8607 29.9843 22.0471 29.9843 27.7712 29.9843C28.1536 29.9843 28.5475 29.9496 28.9183 29.9959C29.069 30.0191 29.3586 29.9959 29.3355 30.3783C29.3123 30.7607 29.0574 30.7259 28.8951 30.7375C28.3969 30.7838 27.8987 30.7491 27.3888 30.7491C26.6209 30.7491 18.2002 30.7402 18.2002 30.7607Z" stroke="#3A62FF" stroke-width="1.5"/>
<path d="M18.1423 24.6543C13.8898 24.6543 12.1981 24.6543 7.94561 24.6543C7.7718 24.6543 7.58641 24.7006 7.42419 24.6427C7.25038 24.5847 6.9607 24.6427 6.9607 24.3182C6.9607 23.9938 7.26197 24.0285 7.43578 23.9359C7.54006 23.8779 7.70228 23.9243 7.84132 23.9243C16.4158 23.9243 19.8919 23.9243 28.4664 23.9359C28.7909 23.9359 29.3355 23.7505 29.3239 24.3066C29.3239 24.8744 28.7677 24.6543 28.4548 24.6543C24.1676 24.6658 22.4295 24.6543 18.1423 24.6543Z" stroke="#3A62FF" stroke-width="1.5"/>
<path d="M18.1423 18.6289C13.8898 18.6289 12.1981 18.6289 7.94561 18.6289C7.7718 18.6289 7.58641 18.6753 7.42419 18.6174C7.25038 18.5594 6.9607 18.6289 6.9607 18.2929C6.9607 17.9569 7.26197 18.0032 7.43578 17.9105C7.54006 17.8526 7.70228 17.899 7.84132 17.899C16.4158 17.899 19.8919 17.899 28.4664 17.9105C28.7909 17.9105 29.3355 17.7251 29.3239 18.2813C29.3239 18.8491 28.7677 18.6289 28.4548 18.6289C24.1676 18.6405 22.4295 18.6289 18.1423 18.6289Z" stroke="#3A62FF" stroke-width="1.5"/>
<path d="M18.1423 36.0676C22.4295 36.0676 24.1676 36.0676 28.4548 36.0676C28.6286 36.0676 28.8256 36.0212 28.9763 36.0792C29.1269 36.1371 29.3586 36.0792 29.3586 36.4268C29.3586 36.7744 29.1385 36.7049 28.9878 36.7744C28.8604 36.8323 28.6866 36.7976 28.5359 36.7976C19.9267 36.7976 16.4158 36.7976 7.79498 36.7976C7.6791 36.7976 7.54006 36.8439 7.44736 36.786C7.27355 36.6817 6.9607 36.786 6.97229 36.4036C6.98388 36.0212 7.26197 36.1487 7.43578 36.0792C7.57482 36.0212 7.73704 36.0676 7.89926 36.0676C12.1633 36.0676 13.8782 36.0676 18.1423 36.0676Z" stroke="#3A62FF" stroke-width="1.5"/>
<path d="M12.6384 7.38943C15.1065 7.38943 17.5745 7.38943 20.0542 7.38943C20.228 7.38943 20.4134 7.35467 20.5756 7.4126C20.7146 7.45895 20.9116 7.64434 20.8884 7.73704C20.8653 7.88767 20.7146 8.04989 20.5756 8.131C20.4597 8.20053 20.2743 8.15418 20.1237 8.15418C15.1644 8.15418 12.7543 8.15418 7.79498 8.15418C7.73704 8.15418 7.6791 8.15418 7.62117 8.15418C7.3199 8.15418 6.9607 8.14259 7.00705 7.74863C7.01864 7.60958 7.40101 7.4126 7.60958 7.4126C10.1356 7.37784 10.1124 7.38943 12.6384 7.38943Z" stroke="#3A62FF" stroke-width="1.5"/>
<path d="M12.6963 12.117C10.2051 12.117 10.263 12.117 7.78339 12.117C7.63276 12.117 7.44736 12.1633 7.33149 12.0938C7.18086 12.0127 7.04181 11.8621 6.99546 11.7114C6.97229 11.6419 7.19245 11.4681 7.3199 11.4102C7.43578 11.3522 7.58641 11.387 7.72545 11.387C12.7195 11.387 15.176 11.387 20.17 11.387C20.3207 11.387 20.4945 11.3638 20.6219 11.4102C20.7378 11.4565 20.9 11.6187 20.9 11.7114C20.8884 11.8505 20.761 12.0243 20.6335 12.0822C20.4945 12.1517 20.2975 12.117 20.1237 12.117C17.644 12.117 15.176 12.117 12.6963 12.117Z" stroke="#3A62FF" stroke-width="1.5"/>
</svg>
