<svg width="62" height="48" viewBox="0 0 62 48" fill="none" xmlns="http://www.w3.org/2000/svg">
<path d="M47.6051 37.5666C47.2886 39.6267 46.2734 40.6368 44.1638 41.0488C43.8737 43.0159 42.7793 44.212 40.7356 44.5044C40.4323 46.3917 39.4303 47.6677 37.4789 47.96C35.5143 48.2524 34.3935 46.8835 33.2596 45.6873C32.6531 45.993 32.1125 46.3519 31.5192 46.5246C29.4623 47.1094 27.4449 45.8202 27.0098 43.6804C26.9307 43.3083 26.7989 43.1753 26.4429 43.1089C24.8738 42.8032 23.8718 41.7399 23.5289 40.145C23.4894 39.9589 23.2521 39.7064 23.0675 39.6665C21.4325 39.3077 20.4304 38.3242 20.1008 36.6761C20.0349 36.3438 19.9162 36.2242 19.5602 36.1578C17.3187 35.7192 16.0925 33.5926 16.7518 31.3864C16.8045 31.187 16.8045 30.868 16.6858 30.7484C14.1543 28.1567 11.6095 25.5915 9.07799 23.0397C8.07592 23.5182 7.71992 23.4517 6.94199 22.6676C4.85874 20.5676 2.77548 18.4676 0.692222 16.3677C-0.230741 15.4373 -0.230741 14.8791 0.692222 13.9488C5.0697 9.53619 9.44718 5.11033 13.8378 0.69777C14.7608 -0.23259 15.3014 -0.23259 16.2244 0.69777C18.334 2.82431 20.4568 4.95084 22.5664 7.09067C23.2521 7.7818 23.318 8.16723 22.8433 9.13746C23.5158 9.802 24.2014 10.5064 24.9266 11.1843C25.0584 11.3039 25.3353 11.3172 25.5331 11.3172C26.8121 11.3305 28.0778 11.3437 29.3568 11.3172C29.9501 11.3039 30.4116 11.5032 30.8203 11.9285C31.7697 12.9121 32.7586 13.8557 33.6947 14.8525C34.0112 15.1848 34.3144 15.2247 34.7363 15.1715C35.6066 15.0652 36.3054 14.7196 36.8723 14.0285C37.2943 13.5234 37.8085 13.0981 38.4941 12.4336C38.1513 12.1944 37.7953 12.0216 37.5448 11.7558C36.9383 11.1311 36.9515 10.4931 37.5448 9.89504C39.7863 7.62231 42.0409 5.34957 44.3088 3.09012C44.9021 2.50533 45.5746 2.50533 46.1679 3.09012C51.2969 8.24697 56.426 13.4171 61.555 18.5873C62.1483 19.1853 62.1483 19.8499 61.555 20.448C59.3135 22.7207 57.0589 24.9934 54.791 27.2662C54.1977 27.8643 53.5516 27.8643 52.9319 27.2662C52.6814 27.0269 52.4968 26.7213 52.3122 26.482C51.0728 27.7181 49.9652 28.8478 48.7258 30.0838C48.95 30.2699 49.24 30.5224 49.5301 30.7883C50.7695 31.8914 51.376 33.2338 50.9014 34.8818C50.4267 36.5166 49.24 37.3274 47.6051 37.5666ZM31.0972 22.6543C29.9501 22.96 28.9744 23.1859 28.0119 23.465C27.7218 23.5447 27.379 23.6511 27.1681 23.8504C25.6254 25.3656 24.1091 26.9073 22.5928 28.4358C21.5248 29.5123 20.4436 30.5889 19.3888 31.6788C18.8878 32.1971 18.9009 32.9547 19.3624 33.4066C19.8503 33.885 20.5359 33.8983 21.0765 33.4066C21.4589 33.0743 21.8017 32.6889 22.1577 32.33C22.9356 31.5458 23.7267 30.7484 24.386 30.0838C25.0189 30.6952 25.5858 31.2269 26.2055 31.8249C25.7441 32.2768 25.243 32.742 24.7552 33.2205C24.1223 33.8319 23.4894 34.4432 22.8829 35.0945C22.3159 35.6926 22.3291 36.4369 22.8433 36.9153C23.3575 37.3938 24.03 37.3539 24.6101 36.809C24.8343 36.5964 25.0452 36.3704 25.2694 36.1578C26.166 35.254 27.0626 34.3502 27.8801 33.5262C28.4998 34.1243 29.0535 34.6825 29.726 35.3204C29.5678 35.4401 29.37 35.5464 29.2118 35.6926C28.2361 36.6628 27.2735 37.6198 26.3242 38.6033C25.81 39.1349 25.8232 39.8393 26.2978 40.3311C26.7593 40.8096 27.4318 40.8361 27.9592 40.3843C28.1965 40.1849 28.3943 39.9457 28.6184 39.733C29.5414 38.8027 30.4643 37.859 31.3214 36.9951C31.9675 37.5932 32.5344 38.1248 33.2069 38.7495C32.9695 38.9356 32.7454 39.0818 32.5608 39.2678C31.6115 40.2115 30.6489 41.1684 29.726 42.1387C29.3041 42.5773 29.2249 43.1089 29.5678 43.6538C29.871 44.1323 30.4907 44.3449 31.0181 44.119C31.5455 43.893 31.7829 43.5342 31.7169 42.8697C31.5192 41.0754 32.6135 39.5071 34.2749 39.0286C34.5386 38.9488 34.8286 38.909 35.0924 38.8558C35.3824 36.7957 36.5691 35.6926 38.5337 35.4135C38.8238 33.3667 39.9709 32.2237 41.9486 31.918C42.6738 29.2332 43.7155 28.4358 46.392 28.5288C46.5634 28.5288 46.748 28.3959 46.8667 28.3427C44.9153 26.3757 43.0035 24.4485 41.1839 22.6144C41.83 23.9701 41.764 25.4055 40.6961 26.6947C39.3248 28.356 36.846 28.4092 35.2506 26.8409C33.8002 25.4055 32.3894 23.9568 31.0972 22.6543ZM40.2609 10.7722C44.8098 15.3576 49.3719 19.9562 53.9208 24.5416C55.5557 22.9068 57.2435 21.2056 58.9048 19.5309C54.3559 14.9456 49.7674 10.3203 45.2581 5.77488C43.5968 7.43623 41.8827 9.15075 40.2609 10.7722ZM24.9925 20.0094C25.098 20.0891 25.2298 20.1822 25.3485 20.2752C26.7593 21.3385 28.5525 21.2853 29.9106 20.1556C30.8731 19.3581 31.3214 19.3847 32.218 20.2885C33.787 21.8701 35.3429 23.465 36.9383 25.02C37.2152 25.2859 37.7294 25.5118 38.0854 25.4586C38.4414 25.4055 38.8501 25.0333 39.0347 24.6878C39.2852 24.2226 39.0611 23.7441 38.6919 23.372C35.6329 20.2885 32.574 17.205 29.5018 14.1348C29.3304 13.962 29.014 13.8424 28.7635 13.8291C27.735 13.7893 26.6934 13.776 25.6649 13.8291C25.3089 13.8424 24.887 14.0019 24.6365 14.2544C21.2875 17.5904 17.978 20.9397 14.6553 24.289C14.5235 24.4219 14.3916 24.5681 14.3125 24.6612C15.7629 26.1099 17.1869 27.532 18.5713 28.9275C20.5623 26.9206 22.606 24.8605 24.6497 22.8005C24.2146 22.4682 23.7399 22.1226 23.3048 21.7904C23.8849 21.1657 24.4255 20.5942 24.9925 20.0094ZM20.0612 8.30014C18.3604 6.57233 16.6727 4.85781 15.0772 3.22303C11.1217 7.21029 7.12659 11.2374 3.21059 15.1848C4.84555 16.8329 6.54644 18.5474 8.22096 20.2353C12.1501 16.2747 16.1321 12.2475 20.0612 8.30014ZM12.4402 22.8403C15.842 19.4113 19.2569 15.969 22.6455 12.5399C22.1577 12.0349 21.6171 11.4767 21.1424 10.9716C17.7275 14.4139 14.3125 17.8563 10.8844 21.3119C11.3458 21.7771 11.8996 22.322 12.4402 22.8403ZM40.0368 14.4804C39.5226 14.9854 38.982 15.5171 38.4941 15.9955C41.9091 19.4379 45.3241 22.8802 48.6995 26.2827C49.2005 25.8042 49.7543 25.2726 50.2553 24.7941C46.8535 21.3518 43.4386 17.9094 40.0368 14.4804ZM45.1526 37.2476C45.1263 37.1546 45.1131 36.9153 44.9944 36.7824C44.2692 36.0249 43.5704 35.2274 42.7661 34.5496C42.3574 34.204 41.7904 34.3369 41.3817 34.7489C40.9598 35.1742 40.8279 35.7458 41.1971 36.1843C41.8563 36.9685 42.5683 37.7527 43.3726 38.364C44.0978 38.9223 45.1526 38.2577 45.1526 37.2476ZM38.6787 37.6995C38.3227 38.0052 37.914 38.2311 37.6766 38.5767C37.3734 39.0286 37.5316 39.5204 37.8876 39.9058C38.4282 40.4906 38.982 41.0488 39.5621 41.5937C40.1159 42.1387 40.8279 42.1652 41.3289 41.6868C41.8563 41.1817 41.8563 40.4773 41.2762 39.8659C40.762 39.321 40.2478 38.7761 39.694 38.2843C39.4435 38.0717 39.1006 37.952 38.6787 37.6995ZM48.6863 34.0312C48.5676 33.6591 48.5544 33.4199 48.4357 33.2869C47.7106 32.5294 46.9986 31.7452 46.2075 31.0541C45.7855 30.6819 45.1131 30.8813 44.7307 31.3332C44.3483 31.7851 44.3352 32.4496 44.7439 32.9015C45.3372 33.5528 45.9569 34.1774 46.603 34.7755C46.9722 35.1211 47.46 35.2274 47.8688 34.935C48.2248 34.7091 48.4489 34.3103 48.6863 34.0312ZM38.3359 44.4247C38.204 44.0525 38.1777 43.8 38.0458 43.6538C37.3866 42.9494 36.7273 42.2317 36.0021 41.5937C35.5406 41.195 34.8682 41.3412 34.4595 41.8064C34.0771 42.245 34.0375 42.9228 34.4463 43.388C35.0264 44.026 35.6329 44.6373 36.2658 45.2221C36.6614 45.581 37.1756 45.6607 37.5975 45.3418C37.914 45.1025 38.1118 44.7038 38.3359 44.4247Z" fill="#3A62FF"/>
</svg>
