<svg width="14" height="14" viewBox="0 0 14 14" fill="none" xmlns="http://www.w3.org/2000/svg">
<path fill-rule="evenodd" clip-rule="evenodd" d="M13.5219 2.67982L7.99241 8.06939C7.355 8.68244 6.32156 8.68244 5.68415 8.06939L0.478056 2.67985C-0.159352 2.0668 -0.159352 1.07286 0.478056 0.459816C1.11546 -0.153229 2.14891 -0.153229 2.78631 0.459816L6.83828 4.73935L11.2137 0.459784C11.8511 -0.153261 12.8845 -0.153261 13.5219 0.459784C14.1594 1.07283 14.1594 2.06677 13.5219 2.67982Z" fill="white"/>
<path fill-rule="evenodd" clip-rule="evenodd" d="M0.478056 11.3202L6.00759 5.93061C6.64499 5.31756 7.67844 5.31756 8.31585 5.93061L13.5219 11.3202C14.1594 11.9332 14.1594 12.9271 13.5219 13.5402C12.8845 14.1532 11.8511 14.1532 11.2137 13.5402L7.16172 9.26065L2.78632 13.5402C2.14891 14.1533 1.11546 14.1533 0.478056 13.5402C-0.159352 12.9272 -0.159352 11.9332 0.478056 11.3202Z" fill="white"/>
</svg>
