<svg width="20" height="20" viewBox="0 0 20 20" fill="none" xmlns="http://www.w3.org/2000/svg">
<path d="M20 10.0068C19.9898 15.5271 15.4831 20.0237 9.98311 20.0001C4.46285 19.9764 -0.0101179 15.4933 1.71896e-05 9.99332C0.0101523 4.47306 4.52028 -0.0235558 10.0169 9.28543e-05C15.5372 0.0237415 20.0101 4.50684 20 10.0068ZM19 10.0001C18.9966 5.044 14.9628 1.01023 10.0034 1.00009C5.06082 0.989956 1.02366 5.02035 1.00002 9.99332C0.976367 14.9257 5.06758 19.017 10.0068 19.0001C14.973 18.9832 19.0034 14.9494 19 10.0001Z" fill="#3A62FF"/>
<path d="M10.5034 8.47981C10.5034 9.57102 10.5034 10.6622 10.5034 11.7568C10.5034 12.0541 10.3514 12.2568 10.1014 12.3041C9.80406 12.3616 9.53379 12.1589 9.5 11.8582C9.49662 11.8176 9.49662 11.7805 9.49662 11.7399C9.49662 9.56764 9.49662 7.39535 9.49662 5.22306C9.49662 5.0136 9.55068 4.83117 9.73649 4.7163C10.0709 4.50684 10.4899 4.73657 10.5 5.1386C10.5101 5.53387 10.5034 5.92576 10.5034 6.32103C10.5034 7.04062 10.5034 7.76021 10.5034 8.47981Z" fill="#3A62FF"/>
<path d="M10.5034 14.3582C10.5034 14.6352 10.277 14.8683 10.0034 14.8649C9.72635 14.8649 9.49662 14.6352 9.5 14.3616C9.5 14.0947 9.72635 13.8649 9.99324 13.8616C10.2669 13.8548 10.5034 14.0845 10.5034 14.3582Z" fill="#3A62FF"/>
</svg>
